<svg width="49" height="48" viewBox="0 0 49 48" fill="none" xmlns="http://www.w3.org/2000/svg">
<path d="M48.8086 4.15312C48.8086 1.96875 46.9902 0.1875 44.7604 0.1875H4.23965C2.00977 0.1875 0.191406 1.96875 0.191406 4.15312V28.1438C0.191406 30.3281 2.00977 32.1094 4.23965 32.1094H24.1555C23.8396 33.1875 23.6578 34.3219 23.6578 35.4938C23.6578 42.2812 29.2947 47.8125 36.2332 47.8125C43.1621 47.8125 48.8086 42.2906 48.8086 35.4938C48.8086 33.8063 48.4545 32.1938 47.8229 30.7219C48.4449 30.0188 48.8086 29.1094 48.8086 28.1438V4.15312ZM36.2332 45.1687C30.7877 45.1687 26.3662 40.8281 26.3662 35.5031C26.3662 30.1688 30.7973 25.8375 36.2332 25.8375C41.6787 25.8375 46.1002 30.1781 46.1002 35.5031C46.1098 40.8281 41.6787 45.1687 36.2332 45.1687ZM46.1098 27.8906C43.8033 25.0219 40.2432 23.175 36.2428 23.175C31.5438 23.175 27.4477 25.7156 25.2943 29.4656H4.23965C3.49316 29.4656 2.89023 28.875 2.89023 28.1438V4.15312C2.89023 3.42188 3.49316 2.83125 4.23965 2.83125H44.7508C45.4973 2.83125 46.1002 3.42188 46.1002 4.15312V27.8906H46.1098Z" fill="#00C0F3" stroke="white" stroke-width="0.7"/>
<path d="M9.48535 23.4188H7.1502C6.40371 23.4188 5.80078 24.0094 5.80078 24.7406C5.80078 25.4719 6.40371 26.0625 7.1502 26.0625H9.48535C10.2318 26.0625 10.8348 25.4719 10.8348 24.7406C10.8348 24.0094 10.2318 23.4188 9.48535 23.4188Z" fill="#00C0F3" stroke="white" stroke-width="0.7"/>
<path d="M17.5818 16.2562H7.1502C6.40371 16.2562 5.80078 16.8469 5.80078 17.5781C5.80078 18.3094 6.40371 18.9 7.1502 18.9H17.5914C18.3379 18.9 18.9408 18.3094 18.9408 17.5781C18.9408 16.8469 18.3283 16.2562 17.5818 16.2562Z" fill="#00C0F3" stroke="white" stroke-width="0.7"/>
<path d="M17.2939 23.4188H14.9588C14.2123 23.4188 13.6094 24.0094 13.6094 24.7406C13.6094 25.4719 14.2123 26.0625 14.9588 26.0625H17.2939C18.0404 26.0625 18.6434 25.4719 18.6434 24.7406C18.6434 24.0094 18.0404 23.4188 17.2939 23.4188Z" fill="#00C0F3" stroke="white" stroke-width="0.7"/>
<path d="M25.1025 23.4188H22.7674C22.0209 23.4188 21.418 24.0094 21.418 24.7406C21.418 25.4719 22.0209 26.0625 22.7674 26.0625H25.1025C25.849 26.0625 26.452 25.4719 26.452 24.7406C26.452 24.0094 25.849 23.4188 25.1025 23.4188Z" fill="#00C0F3" stroke="white" stroke-width="0.7"/>
<path d="M38.8168 5.7375C37.9268 5.7375 37.0941 5.98125 36.3572 6.42187C35.6299 5.99062 34.7877 5.7375 33.8785 5.7375C31.2275 5.7375 29.0742 7.84687 29.0742 10.4437C29.0742 13.0406 31.2275 15.15 33.8785 15.15C34.7781 15.15 35.6299 14.8969 36.3477 14.475C37.0846 14.9156 37.9268 15.15 38.8168 15.15C41.4678 15.15 43.6211 13.0406 43.6211 10.4437C43.6211 7.85625 41.4582 5.7375 38.8168 5.7375ZM33.8785 12.5062C32.7205 12.5062 31.773 11.5781 31.773 10.4437C31.773 9.30937 32.7205 8.38125 33.8785 8.38125C35.0365 8.38125 35.984 9.30937 35.984 10.4437C35.9744 11.5875 35.0365 12.5062 33.8785 12.5062ZM38.8168 12.5062C38.6158 12.5062 38.4244 12.4687 38.233 12.4125C38.5201 11.8125 38.6828 11.1469 38.6828 10.4437C38.6828 9.74062 38.5201 9.075 38.233 8.475C38.4244 8.41875 38.6158 8.38125 38.8168 8.38125C39.9748 8.38125 40.9223 9.30937 40.9223 10.4437C40.9127 11.5875 39.9748 12.5062 38.8168 12.5062Z" fill="#00C0F3" stroke="white" stroke-width="0.7"/>
<path d="M37.1899 30.1125C36.6635 29.5969 35.8118 29.5969 35.2758 30.1125L31.553 33.7594C31.0266 34.275 31.0266 35.1094 31.553 35.6344C32.0793 36.15 32.9311 36.15 33.467 35.6344L34.8834 34.2469V39.9469C34.8834 40.6781 35.4864 41.2687 36.2329 41.2687C36.9793 41.2687 37.5823 40.6781 37.5823 39.9469V34.2469L38.9987 35.6344C39.2666 35.8969 39.6112 36.0187 39.9557 36.0187C40.3002 36.0187 40.6448 35.8875 40.9127 35.6344C41.4391 35.1187 41.4391 34.2844 40.9127 33.7594L37.1899 30.1125Z" fill="#00C0F3" stroke="white" stroke-width="0.7"/>
</svg>
