<svg width="52" height="51" viewBox="0 0 52 51" fill="none" xmlns="http://www.w3.org/2000/svg">
<path d="M39.4567 35.2083L31.979 38.9754C31.3314 38.3355 30.4348 37.9386 29.4452 37.9386H24.2924C24.0632 37.9386 23.9793 37.9247 23.9541 37.9188C23.9074 37.8878 23.7909 37.7803 23.6964 37.693L23.6472 37.6475C19.4531 33.7739 15.909 34.0196 11.8784 35.5798C11.2476 35.8239 11.2356 35.8244 10.6105 35.8524L9.47534 35.8537C9.12101 34.8688 8.16373 34.1608 7.04081 34.1608H3.24946C1.82603 34.1608 0.667969 35.2979 0.667969 36.6955V46.4475C0.667969 47.8436 1.82603 48.9794 3.24946 48.9794H7.0407C8.16373 48.9794 9.12101 48.2722 9.47534 47.2882H11.5602C11.7962 47.3083 12.0264 47.3554 12.2507 47.4295L22.0548 50.0007C22.4841 50.1148 22.8782 50.2272 23.2594 50.3358C24.5256 50.6967 25.5899 51 26.6996 50.9999C27.9533 50.9999 29.2649 50.6127 30.9904 49.4839C30.999 49.4782 31.0076 49.4726 31.016 49.4667L43.1042 41.0242C44.6932 39.9123 45.1564 37.9054 44.1812 36.3552C43.2173 34.8267 41.1856 34.334 39.4567 35.2083ZM7.59104 46.4476C7.59104 46.7402 7.33898 46.9874 7.0407 46.9874H3.24946C2.95108 46.9874 2.69912 46.7402 2.69912 46.4476V36.6956C2.69912 36.4015 2.95119 36.153 3.24946 36.153H7.0407C7.33908 36.153 7.59104 36.4015 7.59104 36.6956V46.4476ZM41.9251 39.4022L29.8504 47.8352C27.3927 49.4395 26.3468 49.1413 23.8259 48.4229C23.4362 48.3119 23.0331 48.197 22.5828 48.0772L12.7761 45.5053C12.3815 45.3853 11.9761 45.3156 11.56 45.2963H9.6222V37.8469L10.7029 37.8424C11.4758 37.8079 11.7155 37.7844 12.6238 37.433C16.1174 36.0805 18.8134 35.9195 22.2555 39.0987L22.3042 39.1435C22.8969 39.6908 23.2641 39.9306 24.2924 39.9306H29.4452C30.2947 39.9306 30.9858 40.6085 30.9858 41.4417C30.9858 42.2734 30.2947 42.95 29.4452 42.95H21.0914C20.5305 42.95 20.0758 43.3959 20.0758 43.946C20.0758 44.4961 20.5305 44.9421 21.0914 44.9421H29.4452C31.4147 44.9421 33.017 43.3718 33.017 41.4417C33.017 41.1976 32.9912 40.9594 32.9426 40.7293L40.3859 36.9795C41.0644 36.6365 41.9925 36.6717 42.453 37.4021C42.859 38.0476 42.6317 38.9077 41.9251 39.4022Z" fill="#00C0F3"/>
<path d="M24.3824 24.1663C23.3451 24.6619 22.6285 25.7063 22.6285 26.9119C22.6285 28.2412 23.5012 29.3737 24.7144 29.7902V31.1899C24.7144 32.9037 26.1348 34.298 27.8806 34.298H32.1256C33.8729 34.298 35.2945 32.9037 35.2945 31.1899V29.7902C36.5077 29.3737 37.3804 28.2411 37.3804 26.9119C37.3804 25.7062 36.6637 24.6618 35.6264 24.1662C36.046 22.6374 36.8966 21.4991 37.7911 20.3051C39.1673 18.4683 40.727 16.3863 40.7236 12.7192C40.7236 12.4136 40.7116 12.1005 40.6879 11.7874C40.6862 11.765 40.6844 11.7427 40.6826 11.7203C40.1384 10.9595 40.6588 11.4267 40.6826 11.7203C40.5078 11.6023 39.8801 10.8407 39.6514 10.858C39.124 10.8992 38.7303 11.3519 38.7723 11.8694C38.7955 12.1553 38.8073 12.4412 38.8073 12.7199C38.8101 15.7707 37.565 17.4327 36.2468 19.1922C35.2465 20.5272 34.2171 21.9035 33.7267 23.8596H26.2818C25.7914 21.9037 24.7617 20.5275 23.7613 19.1925C22.4426 17.433 21.1972 15.7711 21.2013 12.7202C21.2055 9.46708 22.6266 7.41261 23.8181 6.26198C25.4587 4.67757 27.7059 3.78707 29.9907 3.81864C29.9999 3.81873 30.009 3.81873 30.0182 3.81864C31.8799 3.79092 33.747 4.38606 35.2712 5.4913C35.6966 5.79982 36.2968 5.71157 36.6113 5.29433C36.7615 5.09511 36.4372 4.20814 36.4105 3.98C36.185 3.94005 36.6528 4.17873 36.4613 4.01945C36.4449 4.00585 36.428 3.99268 36.4105 3.98C34.5546 2.63447 32.2801 1.91058 30.0043 1.93943C27.217 1.90607 24.4737 2.99157 22.4737 4.92313C20.3918 6.93381 19.2892 9.62928 19.2852 12.718C19.2802 16.3867 20.8407 18.4689 22.2174 20.3059C23.112 21.4997 23.9628 22.6378 24.3824 24.1663ZM33.3783 31.19C33.3783 31.8675 32.8164 32.4186 32.1256 32.4186H27.8807C27.1914 32.4186 26.6308 31.8675 26.6308 31.19V29.9615H33.3783V31.19ZM25.7405 25.7393H34.2685C34.9277 25.7393 35.4641 26.2653 35.4641 26.9119C35.4641 27.557 34.9278 28.0819 34.2685 28.0819H25.7405C25.0813 28.0819 24.5449 27.557 24.5449 26.9119C24.5449 26.2653 25.0813 25.7393 25.7405 25.7393Z" fill="#00C0F3"/>
<path d="M39.6514 10.858C39.8801 10.8407 40.5078 11.6023 40.6826 11.7203C40.3235 8.68132 38.495 5.4913 36.4105 3.98C36.4372 4.20814 36.7615 5.09511 36.6113 5.29433C36.2968 5.71157 35.6966 5.79982 35.2712 5.4913C36.9534 6.87452 38.5517 9.14892 38.7723 11.8694C38.7303 11.3519 39.124 10.8992 39.6514 10.858Z" fill="#00C0F3"/>
<path d="M30.9613 8.80353C30.9613 8.28451 30.5323 7.86378 30.0031 7.86378C29.4739 7.86378 29.0449 8.28451 29.0449 8.80353V14.6319C29.0449 15.151 29.4739 15.5717 30.0031 15.5717C30.5323 15.5717 30.9613 15.151 30.9613 14.6319V8.80353Z" fill="#00C0F3"/>
<path d="M30.0031 17.9435C29.4739 17.9435 29.0449 18.3643 29.0449 18.8833V18.8887C29.0449 19.4077 29.4739 19.8258 30.0031 19.8258C30.5324 19.8258 30.9614 19.4024 30.9614 18.8834C30.9614 18.3644 30.5324 17.9435 30.0031 17.9435Z" fill="#00C0F3"/>
<path d="M49.1665 12.7118H45.2746C44.7454 12.7118 44.3164 13.1326 44.3164 13.6516C44.3164 14.1706 44.7454 14.5913 45.2746 14.5913H49.1665C49.6957 14.5913 50.1247 14.1706 50.1247 13.6516C50.1247 13.1326 49.6957 12.7118 49.1665 12.7118Z" fill="#00C0F3"/>
<path d="M43.6643 6.65865C43.8479 6.65865 44.0335 6.60696 44.1973 6.49908L47.4266 4.37337C47.866 4.08412 47.9831 3.50035 47.6882 3.06938C47.3933 2.6385 46.7981 2.52357 46.3586 2.81283L43.1294 4.93854C42.6899 5.22779 42.5729 5.81165 42.8678 6.24253C43.0528 6.51271 43.3557 6.65865 43.6643 6.65865Z" fill="#00C0F3"/>
<path d="M47.4266 22.9298L44.1973 20.8041C43.7579 20.5148 43.1626 20.6298 42.8678 21.0607C42.5728 21.4915 42.69 22.0754 43.1293 22.3646L46.3586 24.4904C46.5224 24.5982 46.708 24.6499 46.8916 24.6499C47.2002 24.6499 47.5032 24.504 47.6881 24.2338C47.9831 23.8028 47.866 23.219 47.4266 22.9298Z" fill="#00C0F3"/>
<path d="M10.839 14.5913H14.7283C15.2575 14.5913 15.6864 14.1706 15.6864 13.6516C15.6864 13.1326 15.2575 12.7118 14.7283 12.7118H10.839C10.3098 12.7118 9.88086 13.1326 9.88086 13.6516C9.88086 14.1706 10.3098 14.5913 10.839 14.5913Z" fill="#00C0F3"/>
<path d="M12.5786 4.37348L15.8078 6.49919C15.9717 6.60707 16.1573 6.65875 16.3409 6.65875C16.6495 6.65875 16.9525 6.51281 17.1374 6.24263C17.4323 5.81176 17.3151 5.2279 16.8758 4.93864L13.6466 2.81293C13.2071 2.52368 12.6119 2.63861 12.317 3.06949C12.0221 3.50036 12.1392 4.08422 12.5786 4.37348Z" fill="#00C0F3"/>
<path d="M15.8078 20.8041L12.5786 22.9298C12.1392 23.2191 12.0221 23.8029 12.317 24.2338C12.5019 24.504 12.8048 24.6499 13.1135 24.6499C13.2971 24.6499 13.4827 24.5982 13.6466 24.4904L16.8758 22.3646C17.3152 22.0754 17.4323 21.4915 17.1374 21.0607C16.8425 20.6298 16.2471 20.5148 15.8078 20.8041Z" fill="#00C0F3"/>
</svg>
