<svg width="16" height="17" viewBox="0 0 16 17" fill="none" xmlns="http://www.w3.org/2000/svg">
<path d="M8 16.5C12.4107 16.5 16 12.9107 16 8.5C16 4.08934 12.4107 0.5 8 0.5C3.5893 0.5 0 4.08934 0 8.5C0 12.9107 3.58934 16.5 8 16.5ZM8 1.56665C11.824 1.56665 14.9334 4.67597 14.9334 8.5C14.9334 12.324 11.824 15.4334 8 15.4334C4.17597 15.4334 1.06665 12.324 1.06665 8.5C1.06665 4.67597 4.17602 1.56665 8 1.56665Z" fill="#00C0F3"/>
<path d="M10.0718 10.39C10.1775 10.465 10.3032 10.5 10.429 10.5C10.5976 10.5 10.7633 10.435 10.8747 10.3125C11.0719 10.0975 11.0319 9.78249 10.7861 9.60999L8.14297 7.75999V3.99999C8.14297 3.72499 7.88581 3.5 7.57149 3.5C7.25716 3.5 7 3.72499 7 3.99999V8C7 8.15251 7.08003 8.295 7.21431 8.38998L10.0718 10.39Z" fill="#00C0F3"/>
</svg>
