<svg width="31" height="31" viewBox="0 0 31 31" fill="none" xmlns="http://www.w3.org/2000/svg">
<circle cx="15.1123" cy="15.8004" r="14.6098" stroke="#22B573"/>
<path d="M22.5178 19.4564L20.3319 17.2751C19.5512 16.4961 18.2241 16.8077 17.9118 17.8204C17.6776 18.5216 16.8969 18.9111 16.1943 18.7553C14.6329 18.3658 12.5251 16.3403 12.1347 14.7043C11.9005 14.0031 12.3689 13.224 13.0715 12.9904C14.0864 12.6787 14.3987 11.3544 13.618 10.5753L11.4321 8.39398C10.8075 7.84865 9.87072 7.84865 9.32424 8.39398L7.84094 9.87417C6.35764 11.4323 7.99708 15.5612 11.6663 19.2227C15.3355 22.8842 19.4732 24.5982 21.0345 23.04L22.5178 21.5599C23.0643 20.9366 23.0643 20.0018 22.5178 19.4564Z" fill="#22B573"/>
</svg>
