<svg width="14" height="15" viewBox="0 0 14 15" fill="none" xmlns="http://www.w3.org/2000/svg">
<path d="M2.63706 3.875H0.362945C0.162471 3.875 0 3.65103 0 3.375C0 3.09897 0.162471 2.875 0.362945 2.875H2.63706C2.83753 2.875 3 3.09897 3 3.375C3 3.65103 2.83753 3.875 2.63706 3.875Z" fill="#00C0F3"/>
<path d="M5 4.875C3.89717 4.875 3 3.97784 3 2.87511C3 1.77216 3.89717 0.875 5 0.875C6.10283 0.875 7 1.77216 7 2.87511C7 3.97787 6.10283 4.875 5 4.875ZM5 1.74829C4.37871 1.74829 3.87327 2.25382 3.87327 2.87511C3.87327 3.4964 4.37871 4.00171 5 4.00171C5.6213 4.00171 6.12673 3.4964 6.12673 2.87511C6.12673 2.25382 5.6213 1.74829 5 1.74829Z" fill="#00C0F3"/>
<path d="M13.587 3.875H7.41308C7.18491 3.875 7 3.65103 7 3.375C7 3.09897 7.18491 2.875 7.41308 2.875H13.5869C13.8151 2.875 14 3.09897 14 3.375C14 3.65103 13.8151 3.875 13.587 3.875Z" fill="#00C0F3"/>
<path d="M10 9.875C8.89713 9.875 8 8.97779 8 7.875C8 6.77221 8.89717 5.875 10 5.875C11.1028 5.875 12 6.77221 12 7.875C12 8.97779 11.1029 9.875 10 9.875ZM10 6.74834C9.37871 6.74834 8.87327 7.25367 8.87327 7.875C8.87327 8.49633 9.37871 9.00166 10 9.00166C10.6213 9.00166 11.1267 8.49633 11.1267 7.875C11.1267 7.25367 10.6213 6.74834 10 6.74834Z" fill="#00C0F3"/>
<path d="M6.61251 8.875H0.387489C0.173458 8.875 0 8.65103 0 8.375C0 8.09897 0.173458 7.875 0.387489 7.875H6.61251C6.82654 7.875 7 8.09897 7 8.375C7 8.65103 6.82654 8.875 6.61251 8.875Z" fill="#00C0F3"/>
<path d="M13.5802 8.875H11.4198C11.1879 8.875 11 8.65103 11 8.375C11 8.09897 11.1879 7.875 11.4198 7.875H13.5802C13.8121 7.875 14 8.09897 14 8.375C14 8.65103 13.8121 8.875 13.5802 8.875Z" fill="#00C0F3"/>
<path d="M4 14.875C2.89717 14.875 2 13.9778 2 12.8749C2 11.7722 2.89717 10.875 4 10.875C5.10283 10.875 6 11.7722 6 12.8749C6 13.9778 5.10283 14.875 4 14.875ZM4 11.7483C3.3787 11.7483 2.87327 12.2536 2.87327 12.8749C2.87327 13.4962 3.3787 14.0017 4 14.0017C4.62129 14.0017 5.12673 13.4962 5.12673 12.8749C5.12673 12.2536 4.62129 11.7483 4 11.7483Z" fill="#00C0F3"/>
<path d="M13.6125 13.875H7.38749C7.17346 13.875 7 13.651 7 13.375C7 13.099 7.17346 12.875 7.38749 12.875H13.6125C13.8265 12.875 14 13.099 14 13.375C14 13.651 13.8265 13.875 13.6125 13.875Z" fill="#00C0F3"/>
<path d="M2.58024 13.875H0.419761C0.187904 13.875 0 13.651 0 13.375C0 13.099 0.187904 12.875 0.419761 12.875H2.58024C2.8121 12.875 3 13.099 3 13.375C3 13.651 2.8121 13.875 2.58024 13.875Z" fill="#00C0F3"/>
</svg>
