<svg width="14" height="14" viewBox="0 0 14 14" fill="none" xmlns="http://www.w3.org/2000/svg">
<path d="M13.3019 9.02272L10.1735 7.62089L10.1649 7.6169C10.0025 7.54744 9.82531 7.51956 9.64942 7.5358C9.47353 7.55203 9.30446 7.61186 9.15751 7.70987C9.1402 7.7213 9.12357 7.73372 9.1077 7.74706L7.49137 9.12499C6.46739 8.62761 5.4102 7.57839 4.91282 6.56768L6.29274 4.92678C6.30602 4.91018 6.31864 4.89358 6.33059 4.87565C6.4265 4.72909 6.48469 4.5611 6.49998 4.38662C6.51528 4.21214 6.4872 4.03658 6.41825 3.87557V3.86761L5.01243 0.733894C4.92128 0.523562 4.76455 0.348349 4.56564 0.234412C4.36673 0.120474 4.1363 0.0739227 3.90876 0.101706C3.00893 0.220113 2.18298 0.662021 1.58516 1.34489C0.987337 2.02777 0.658535 2.90491 0.660162 3.81249C0.660162 9.08514 4.95001 13.375 10.2227 13.375C11.1302 13.3766 12.0074 13.0478 12.6903 12.45C13.3731 11.8522 13.815 11.0262 13.9334 10.1264C13.9613 9.89893 13.9148 9.66856 13.801 9.46966C13.6872 9.27075 13.5121 9.11398 13.3019 9.02272ZM10.2227 12.3125C7.96908 12.31 5.8085 11.4137 4.21497 9.82018C2.62145 8.22665 1.72512 6.06607 1.72266 3.81249C1.72016 3.16402 1.95379 2.53682 2.37991 2.04801C2.80603 1.5592 3.3955 1.24221 4.03825 1.15624C4.03799 1.15889 4.03799 1.16156 4.03825 1.16421L5.43278 4.2853L4.06016 5.92819C4.04623 5.94422 4.03357 5.96132 4.02231 5.97932C3.92238 6.13267 3.86376 6.30923 3.85212 6.49189C3.84049 6.67455 3.87624 6.85712 3.9559 7.0219C4.55754 8.25241 5.79735 9.48292 7.04114 10.0839C7.20713 10.1628 7.39076 10.1973 7.57408 10.1841C7.7574 10.1708 7.93414 10.1102 8.08704 10.0082C8.10409 9.99671 8.12049 9.98429 8.13618 9.971L9.75051 8.59374L12.8716 9.99159C12.8716 9.99159 12.8769 9.99159 12.8789 9.99159C12.794 10.6352 12.4775 11.2259 11.9886 11.6531C11.4997 12.0803 10.8719 12.3147 10.2227 12.3125Z" fill="#22B573"/>
</svg>
