<svg width="27" height="28" viewBox="0 0 27 28" fill="none" xmlns="http://www.w3.org/2000/svg">
<path d="M26.5522 9.13132C26.719 9.35134 26.6759 9.66498 26.4559 9.83185L22.8705 12.5511C22.6504 12.718 22.3368 12.6749 22.1699 12.4549C22.0031 12.2349 22.0462 11.9212 22.2662 11.7544L25.4532 9.33723L23.0361 6.15016C22.8692 5.93014 22.9123 5.6165 23.1323 5.44963C23.3524 5.28276 23.666 5.32585 23.8329 5.54587L26.5522 9.13132ZM0.305137 18.5838C2.98647 12.6098 6.42092 9.72943 10.7792 8.60417C15.0729 7.49561 20.2082 8.11194 26.2218 8.93812L26.0857 9.92881C20.0235 9.09597 15.0961 8.52241 11.0292 9.57242C7.02698 10.6057 3.80313 13.2324 1.21746 18.9933L0.305137 18.5838Z" fill="#22B573"/>
</svg>
