<svg width="54" height="52" viewBox="0 0 54 52" fill="none" xmlns="http://www.w3.org/2000/svg">
<path d="M29.2958 49.5625C30.6157 49.5642 31.9202 49.2906 33.1197 48.7606L41.4062 45.1124C42.7204 44.5336 43.8761 43.6672 44.7812 42.5823L51.7582 34.2006C52.1668 33.7112 52.3639 33.0891 52.3086 32.4634C52.2533 31.8378 51.9498 31.2567 51.4612 30.8409L51.2637 30.6719C50.8021 30.2785 50.2066 30.0619 49.5901 30.0631C48.9737 30.0642 48.3791 30.2832 47.9191 30.6784L40.0469 37.4408C39.3966 38.0003 38.6503 38.4468 37.8413 38.7603L31.8263 41.0889C31.675 41.1475 31.5091 41.1618 31.3494 41.13C31.1897 41.0982 31.0433 41.0217 30.9285 40.9102L30.0738 40.0814L35.4375 37.8974C35.4729 37.8828 35.5073 37.8659 35.5404 37.8471C36.3464 37.3836 37.0186 36.7326 37.4954 35.9539C37.7449 35.5537 37.8697 35.0929 37.8551 34.6263C37.8406 34.1598 37.6872 33.707 37.4132 33.322C37.1392 32.9369 36.7562 32.6357 36.3097 32.4541C35.8631 32.2725 35.3718 32.2182 34.8941 32.2977L25.8542 33.8414C24.6853 34.041 23.5678 34.4571 22.5636 35.0667L19.2729 37.0597C18.0751 37.7872 16.688 38.1736 15.2719 38.1745H10.125V37.375C10.125 37.1595 10.0361 36.9528 9.87787 36.8005C9.71964 36.6481 9.50503 36.5625 9.28125 36.5625H2.53125C2.30747 36.5625 2.09286 36.6481 1.93463 36.8005C1.77639 36.9528 1.6875 37.1595 1.6875 37.375V49.5625C1.6875 49.778 1.77639 49.9847 1.93463 50.137C2.09286 50.2894 2.30747 50.375 2.53125 50.375H9.28125C9.50503 50.375 9.71964 50.2894 9.87787 50.137C10.0361 49.9847 10.125 49.778 10.125 49.5625V48.6688L16.1646 48.0837C17.1137 47.9908 18.0726 48.0735 18.9894 48.3275L22.1957 49.2147C23.0214 49.443 23.8763 49.559 24.7354 49.5592L29.2958 49.5625ZM8.4375 48.75H3.375V38.1875H8.4375V48.75ZM19.456 46.7691C18.3331 46.459 17.1591 46.3572 15.9967 46.4693L10.1258 47.0381V39.7995H15.2727C17.0043 39.7989 18.7004 39.3271 20.1656 38.4386L23.4563 36.4455C24.2767 35.9471 25.19 35.6072 26.1453 35.4445L35.1861 33.9007C35.3428 33.8734 35.5043 33.8905 35.6511 33.9499C35.7979 34.0093 35.9236 34.1086 36.0129 34.2355C36.108 34.3654 36.1613 34.5194 36.1664 34.6782C36.1715 34.8371 36.1281 34.9939 36.0416 35.1292C35.7177 35.6597 35.2641 36.106 34.7203 36.4292L28.2656 39.0528C28.1386 39.1046 28.0266 39.1857 27.9397 39.2889C27.8527 39.392 27.7933 39.5141 27.7667 39.6445C27.7402 39.7749 27.7472 39.9096 27.7873 40.0368C27.8273 40.164 27.8992 40.2797 27.9965 40.3739L29.7321 42.0558C30.0804 42.3943 30.5248 42.6263 31.0094 42.7226C31.4941 42.8188 31.9975 42.7751 32.4565 42.5969L38.4674 40.2675C39.4577 39.884 40.3713 39.3377 41.1674 38.6531L49.0396 31.8906C49.1913 31.7605 49.3874 31.6887 49.5906 31.6887C49.7937 31.6887 49.9898 31.7605 50.1415 31.8906L50.339 32.0588C50.5027 32.1984 50.6044 32.3934 50.6228 32.6032C50.6411 32.8131 50.5749 33.0217 50.4377 33.1858L43.4616 41.5659C42.7218 42.4512 41.778 43.1584 40.705 43.6313L32.4177 47.2794C31.4385 47.7123 30.3734 47.9357 29.2958 47.9342H24.732C24.0305 47.9338 23.3324 47.8392 22.6581 47.6531L19.456 46.7691Z" fill="#00C0F3"/>
<path d="M5.0625 45.5H6.75V47.125H5.0625V45.5Z" fill="#00C0F3"/>
<path d="M12.6562 8.125V29.25C12.6562 29.4655 12.7451 29.6722 12.9034 29.8245C13.0616 29.9769 13.2762 30.0625 13.5 30.0625H40.5C40.7238 30.0625 40.9384 29.9769 41.0966 29.8245C41.2549 29.6722 41.3438 29.4655 41.3438 29.25V8.125C41.3438 7.90951 41.2549 7.70285 41.0966 7.55048C40.9384 7.3981 40.7238 7.3125 40.5 7.3125H13.5C13.2762 7.3125 13.0616 7.3981 12.9034 7.55048C12.7451 7.70285 12.6562 7.90951 12.6562 8.125ZM14.3438 10.9375C14.3438 9.83293 15.2392 8.9375 16.3438 8.9375H37.6562C38.7608 8.9375 39.6562 9.83293 39.6562 10.9375V26.4375C39.6562 27.5421 38.7608 28.4375 37.6562 28.4375H16.3437C15.2392 28.4375 14.3438 27.5421 14.3438 26.4375V10.9375Z" fill="#00C0F3"/>
<path d="M33.8768 16.3499L29.6581 15.7292L27.7639 11.8422C27.6957 11.7026 27.5877 11.5846 27.4525 11.5019C27.3173 11.4192 27.1604 11.3753 27.0003 11.3753C26.8401 11.3753 26.6832 11.4192 26.548 11.5019C26.4128 11.5846 26.3048 11.7026 26.2367 11.8422L24.3416 15.7292L20.1229 16.3499C19.9695 16.3725 19.8255 16.4353 19.7068 16.5314C19.5881 16.6276 19.4992 16.7535 19.4499 16.8951C19.4007 17.0368 19.3929 17.1888 19.4275 17.3344C19.4621 17.4801 19.5378 17.6137 19.6461 17.7206L22.7241 20.7578L21.9951 25.0567C21.9696 25.2072 21.9887 25.3616 22.05 25.5022C22.1114 25.6428 22.2126 25.7639 22.342 25.8518C22.4715 25.9396 22.6241 25.9905 22.7822 25.9988C22.9403 26.007 23.0977 25.9723 23.2363 25.8984L26.9994 23.8956L30.7634 25.8984C30.902 25.9723 31.0593 26.007 31.2175 25.9988C31.3756 25.9905 31.5282 25.9396 31.6576 25.8518C31.7871 25.7639 31.8883 25.6428 31.9497 25.5022C32.011 25.3616 32.03 25.2072 32.0045 25.0567L31.2755 20.7578L34.3535 17.7206C34.4619 17.6137 34.5375 17.4801 34.5722 17.3344C34.6068 17.1888 34.599 17.0368 34.5498 16.8951C34.5005 16.7535 34.4116 16.6276 34.2929 16.5314C34.1742 16.4353 34.0302 16.3725 33.8768 16.3499ZM29.7703 19.9168C29.6781 20.0078 29.6095 20.1184 29.5697 20.2396C29.53 20.3608 29.5204 20.4893 29.5416 20.6148L30.0589 23.6665L27.407 22.256C27.2822 22.1897 27.1419 22.1549 26.9994 22.1549C26.8569 22.1549 26.7167 22.1897 26.5919 22.256L23.94 23.6665L24.4572 20.6148C24.4784 20.4893 24.4688 20.3608 24.4291 20.2396C24.3894 20.1184 24.3207 20.0078 24.2285 19.9168L22.0002 17.7174L25.0419 17.2705C25.1789 17.2503 25.3086 17.1979 25.4195 17.118C25.5305 17.0381 25.6193 16.9331 25.6781 16.8123L26.9994 14.1001L28.3207 16.8123C28.3795 16.9331 28.4684 17.0381 28.5793 17.118C28.6903 17.1979 28.82 17.2503 28.9569 17.2705L31.9944 17.7174L29.7703 19.9168Z" fill="#00C0F3"/>
</svg>
