<svg width="35" height="34" viewBox="0 0 35 34" fill="none" xmlns="http://www.w3.org/2000/svg">
<path d="M31.3387 0.5625H6.85484C6.14928 0.563345 5.47286 0.844002 4.97396 1.34291C4.47505 1.84181 4.19439 2.51823 4.19355 3.22379V5.88508H3.66129C2.95573 5.88593 2.27931 6.16658 1.78041 6.66549C1.2815 7.16439 1.00085 7.84081 1 8.54637V30.9012C1.00085 31.6068 1.2815 32.2832 1.78041 32.7821C2.27931 33.281 2.95573 33.5617 3.66129 33.5625H28.1452C28.8507 33.5617 29.5271 33.281 30.026 32.7821C30.525 32.2832 30.8056 31.6068 30.8065 30.9012V28.2399H31.3387C32.0443 28.2391 32.7207 27.9584 33.2196 27.4595C33.7185 26.9606 33.9992 26.2842 34 25.5786V3.22379C33.9992 2.51823 33.7185 1.84181 33.2196 1.34291C32.7207 0.844002 32.0443 0.563345 31.3387 0.5625ZM5.25806 3.22379C5.25806 2.8003 5.4263 2.39415 5.72575 2.0947C6.0252 1.79525 6.43135 1.62702 6.85484 1.62702H31.3387C31.7622 1.62702 32.1683 1.79525 32.4678 2.0947C32.7673 2.39415 32.9355 2.8003 32.9355 3.22379V5.88508H5.25806V3.22379ZM3.66129 6.9496H28.1452C28.5687 6.9496 28.9748 7.11783 29.2743 7.41728C29.5737 7.71673 29.7419 8.12288 29.7419 8.54637V11.2077H2.06452V8.54637C2.06452 8.12288 2.23275 7.71673 2.5322 7.41728C2.83165 7.11783 3.2378 6.9496 3.66129 6.9496ZM28.1452 32.498H3.66129C3.2378 32.498 2.83165 32.3298 2.5322 32.0303C2.23275 31.7308 2.06452 31.3247 2.06452 30.9012V12.2722H29.7419V30.9012C29.7419 31.3247 29.5737 31.7308 29.2743 32.0303C28.9748 32.3298 28.5687 32.498 28.1452 32.498ZM31.3387 27.1754H30.8065V8.54637C30.8045 7.96862 30.6126 7.40755 30.2604 6.9496H32.9355V25.5786C32.9355 26.0021 32.7673 26.4083 32.4678 26.7077C32.1683 27.0072 31.7622 27.1754 31.3387 27.1754Z" fill="#00C0F3" stroke="#00C0F3" stroke-width="0.3"/>
<path d="M10.3125 13.5625H4.6875C4.23995 13.5625 3.81072 13.7403 3.49426 14.0568C3.17779 14.3732 3 14.8024 3 15.25V20.875C3 21.3226 3.17779 21.7518 3.49426 22.0682C3.81072 22.3847 4.23995 22.5625 4.6875 22.5625H10.3125C10.7601 22.5625 11.1893 22.3847 11.5057 22.0682C11.8222 21.7518 12 21.3226 12 20.875V15.25C12 14.8024 11.8222 14.3732 11.5057 14.0568C11.1893 13.7403 10.7601 13.5625 10.3125 13.5625ZM10.875 20.875C10.875 21.0242 10.8157 21.1673 10.7102 21.2727C10.6048 21.3782 10.4617 21.4375 10.3125 21.4375H4.6875C4.53832 21.4375 4.39524 21.3782 4.28975 21.2727C4.18426 21.1673 4.125 21.0242 4.125 20.875V15.25C4.125 15.1008 4.18426 14.9577 4.28975 14.8523C4.39524 14.7468 4.53832 14.6875 4.6875 14.6875H10.3125C10.4617 14.6875 10.6048 14.7468 10.7102 14.8523C10.8157 14.9577 10.875 15.1008 10.875 15.25V20.875Z" fill="#00C0F3" stroke="#00C0F3" stroke-width="0.3"/>
<path d="M10.3125 22.5625H4.6875C4.23995 22.5625 3.81072 22.7403 3.49426 23.0568C3.17779 23.3732 3 23.8024 3 24.25V29.875C3 30.3226 3.17779 30.7518 3.49426 31.0682C3.81072 31.3847 4.23995 31.5625 4.6875 31.5625H10.3125C10.7601 31.5625 11.1893 31.3847 11.5057 31.0682C11.8222 30.7518 12 30.3226 12 29.875V24.25C12 23.8024 11.8222 23.3732 11.5057 23.0568C11.1893 22.7403 10.7601 22.5625 10.3125 22.5625ZM10.875 29.875C10.875 30.0242 10.8157 30.1673 10.7102 30.2727C10.6048 30.3782 10.4617 30.4375 10.3125 30.4375H4.6875C4.53832 30.4375 4.39524 30.3782 4.28975 30.2727C4.18426 30.1673 4.125 30.0242 4.125 29.875V24.25C4.125 24.1008 4.18426 23.9577 4.28975 23.8523C4.39524 23.7468 4.53832 23.6875 4.6875 23.6875H10.3125C10.4617 23.6875 10.6048 23.7468 10.7102 23.8523C10.8157 23.9577 10.875 24.1008 10.875 24.25V29.875Z" fill="#00C0F3" stroke="#00C0F3" stroke-width="0.3"/>
<path d="M13 19.5625H29V20.5625H13V19.5625Z" fill="#00C0F3" stroke="#00C0F3" stroke-width="0.3"/>
<path d="M13 17.5625H29V18.5625H13V17.5625Z" fill="#00C0F3" stroke="#00C0F3" stroke-width="0.3"/>
<path d="M15 15.5625H26V16.5625H15V15.5625Z" fill="#00C0F3" stroke="#00C0F3" stroke-width="0.3"/>
<path d="M27 15.5625H29V16.5625H27V15.5625Z" fill="#00C0F3" stroke="#00C0F3" stroke-width="0.3"/>
<path d="M13 29.5625H29V30.5625H13V29.5625Z" fill="#00C0F3" stroke="#00C0F3" stroke-width="0.3"/>
<path d="M13 27.5625H29V28.5625H13V27.5625Z" fill="#00C0F3" stroke="#00C0F3" stroke-width="0.3"/>
<path d="M15 24.5625H26V25.5625H15V24.5625Z" fill="#00C0F3" stroke="#00C0F3" stroke-width="0.3"/>
<path d="M27 24.5625H29V25.5625H27V24.5625Z" fill="#00C0F3" stroke="#00C0F3" stroke-width="0.3"/>
<path d="M17 8.5625H28V9.5625H17V8.5625Z" fill="#00C0F3" stroke="#00C0F3" stroke-width="0.3"/>
<path d="M20 3.5625H31V4.5625H20V3.5625Z" fill="#00C0F3" stroke="#00C0F3" stroke-width="0.3"/>
<path d="M7 3.5625H8V4.5625H7V3.5625Z" fill="#00C0F3" stroke="#00C0F3" stroke-width="0.3"/>
<path d="M10 3.5625H11V4.5625H10V3.5625Z" fill="#00C0F3" stroke="#00C0F3" stroke-width="0.3"/>
<path d="M12 3.5625H13V4.5625H12V3.5625Z" fill="#00C0F3" stroke="#00C0F3" stroke-width="0.3"/>
<path d="M14 3.5625H15V4.5625H14V3.5625Z" fill="#00C0F3" stroke="#00C0F3" stroke-width="0.3"/>
<path d="M4 8.5625H5V9.5625H4V8.5625Z" fill="#00C0F3" stroke="#00C0F3" stroke-width="0.3"/>
<path d="M6 8.5625H7V9.5625H6V8.5625Z" fill="#00C0F3" stroke="#00C0F3" stroke-width="0.3"/>
<path d="M8 8.5625H9V9.5625H8V8.5625Z" fill="#00C0F3" stroke="#00C0F3" stroke-width="0.3"/>
<path d="M11 8.5625H12V9.5625H11V8.5625Z" fill="#00C0F3" stroke="#00C0F3" stroke-width="0.3"/>
</svg>
