<svg width="51" height="51" viewBox="0 0 51 51" fill="none" xmlns="http://www.w3.org/2000/svg">
<path d="M46.9593 45.7818H45.7685V22.4931C45.7678 21.8653 45.5159 21.2634 45.0679 20.8195C44.62 20.3755 44.0127 20.1258 43.3792 20.1251H40.7938C40.1603 20.1258 39.553 20.3755 39.105 20.8195C38.6571 21.2634 38.4052 21.8653 38.4045 22.4931V45.7818H35.3244V27.3811C35.3237 26.7532 35.0718 26.1513 34.6238 25.7074C34.1759 25.2634 33.5686 25.0137 32.9351 25.013H30.3497C29.7162 25.0137 29.1089 25.2634 28.6609 25.7074C28.213 26.1513 27.961 26.7532 27.9604 27.3811V45.7818H24.8803V32.3453C24.8796 31.7174 24.6277 31.1155 24.1797 30.6716C23.7318 30.2276 23.1244 29.9779 22.491 29.9772H19.9056C19.2721 29.9779 18.6648 30.2276 18.2168 30.6716C17.7689 31.1155 17.5169 31.7174 17.5162 32.3453V45.7818H14.4362V38.3C14.4355 37.6722 14.1836 37.0703 13.7356 36.6263C13.2877 36.1824 12.6804 35.9327 12.0469 35.932H9.4615C8.82802 35.9327 8.22068 36.1824 7.77274 36.6263C7.3248 37.0703 7.07284 37.6722 7.07215 38.3V45.7818H5.88135C5.67234 45.7852 5.47303 45.8698 5.32642 46.0175C5.17981 46.1651 5.09765 46.364 5.09766 46.5712C5.09766 46.7783 5.17984 46.9772 5.32646 47.1249C5.47307 47.2725 5.67239 47.3572 5.88139 47.3605C11.4575 47.3612 45.6722 47.3639 46.9593 47.3605C47.1685 47.3574 47.3681 47.2729 47.5149 47.1252C47.6617 46.9775 47.744 46.7785 47.744 46.5712C47.744 46.3638 47.6617 46.1648 47.5149 46.0171C47.3681 45.8694 47.1685 45.7849 46.9593 45.7818ZM8.66504 45.7818V38.3C8.66518 38.0907 8.74914 37.89 8.89847 37.742C9.0478 37.594 9.2503 37.5108 9.46149 37.5107H12.0469C12.2581 37.5108 12.4606 37.594 12.6099 37.742C12.7592 37.89 12.8432 38.0907 12.8433 38.3V45.7818H8.66504ZM19.1091 45.7818V32.3453C19.1093 32.136 19.1932 31.9353 19.3426 31.7873C19.4919 31.6393 19.6944 31.5561 19.9056 31.5559H22.491C22.7022 31.5561 22.9046 31.6393 23.054 31.7873C23.2033 31.9353 23.2873 32.136 23.2874 32.3453V45.7818H19.1091ZM29.5533 45.7818V27.3811C29.5534 27.1718 29.6374 26.9711 29.7867 26.8231C29.936 26.6751 30.1385 26.5919 30.3497 26.5917H32.9351C33.1463 26.5919 33.3488 26.6751 33.4981 26.8231C33.6474 26.9711 33.7314 27.1718 33.7315 27.3811V45.7818H29.5533ZM39.9974 45.7818V22.4931C39.9975 22.2838 40.0815 22.0832 40.2308 21.9352C40.3801 21.7872 40.5826 21.7039 40.7938 21.7038H43.3792C43.5904 21.7039 43.7929 21.7872 43.9422 21.9352C44.0915 22.0832 44.1755 22.2838 44.1756 22.4931V45.7818H39.9974Z" fill="#00C0F3"/>
<path d="M28.4259 15.4037L32.6418 15.4381L11.1621 32.3514C11.0006 32.4829 10.8977 32.6721 10.8756 32.8781C10.8535 33.0841 10.9139 33.2905 11.044 33.4527C11.174 33.6149 11.3631 33.72 11.5706 33.7453C11.7781 33.7706 11.9873 33.714 12.1531 33.5878L33.6322 16.6749L32.7138 20.7526C32.6712 20.9556 32.7109 21.167 32.8243 21.3412C32.9377 21.5154 33.1157 21.6384 33.3199 21.6835C33.524 21.7287 33.7379 21.6924 33.9153 21.5825C34.0927 21.4727 34.2193 21.298 34.2678 21.0964L35.6779 14.8395C35.6891 14.7186 35.6865 14.5968 35.6702 14.4764C35.625 14.3085 35.5264 14.1596 35.3889 14.0518C35.2513 13.944 35.0824 13.8831 34.9071 13.8783C34.9024 13.8768 28.4368 13.826 28.4321 13.825C28.2233 13.8279 28.024 13.9119 27.8771 14.059C27.7301 14.206 27.6474 14.4044 27.6465 14.6113C27.6457 14.8183 27.7269 15.0173 27.8727 15.1655C28.0185 15.3137 28.2171 15.3992 28.4259 15.4037Z" fill="#00C0F3"/>
<path d="M13.5505 23.6402C16.2902 23.6371 18.9168 22.5571 20.8541 20.6372C22.7914 18.7172 23.8811 16.114 23.8842 13.3988C23.3166 -0.187865 3.78228 -0.183918 3.2168 13.3988C3.2199 16.1141 4.30962 18.7172 6.2469 20.6372C8.18418 22.5572 10.8108 23.6371 13.5505 23.6402ZM13.5505 4.73605C15.8679 4.73855 18.0897 5.65203 19.7284 7.27606C21.367 8.9001 22.2887 11.102 22.2913 13.3988C21.8115 24.8911 5.28772 24.8878 4.8097 13.3987C4.81225 11.102 5.73398 8.90005 7.37265 7.27603C9.01132 5.65201 11.2331 4.73854 13.5505 4.73605Z" fill="#00C0F3"/>
<path d="M9.73963 18.0824C9.90404 18.2138 10.1144 18.2752 10.3244 18.2529C10.5345 18.2306 10.727 18.1266 10.8596 17.9637L17.4825 9.82514C17.5482 9.74446 17.5972 9.65175 17.6267 9.55231C17.6562 9.45286 17.6657 9.34863 17.6546 9.24555C17.6434 9.14248 17.6119 9.04258 17.5619 8.95157C17.5118 8.86056 17.4441 8.78022 17.3627 8.71513C17.2813 8.65004 17.1878 8.60148 17.0874 8.57222C16.9871 8.54296 16.8819 8.53357 16.7779 8.54459C16.6739 8.55562 16.5731 8.58684 16.4813 8.63646C16.3894 8.68609 16.3084 8.75316 16.2427 8.83384L9.61985 16.9724C9.48727 17.1354 9.42542 17.3438 9.44788 17.552C9.47034 17.7601 9.57528 17.9509 9.73963 18.0824Z" fill="#00C0F3"/>
<path d="M11.2101 11.8841C11.8656 11.8769 12.4917 11.6138 12.9526 11.1519C13.4136 10.69 13.6721 10.0666 13.6721 9.41693C13.6721 8.76729 13.4135 8.14387 12.9526 7.68199C12.4916 7.2201 11.8655 6.95703 11.21 6.94988C10.5546 6.95706 9.92842 7.22014 9.46749 7.68204C9.00655 8.14394 8.74804 8.76737 8.74805 9.41701C8.74806 10.0666 9.0066 10.6901 9.46754 11.152C9.92849 11.6138 10.5547 11.8769 11.2101 11.8841ZM11.2101 8.52857C11.4457 8.53183 11.6705 8.62687 11.8359 8.79312C12.0013 8.95937 12.0941 9.18348 12.0941 9.41697C12.0941 9.65046 12.0013 9.87457 11.8359 10.0408C11.6705 10.2071 11.4457 10.3021 11.2101 10.3054C10.9747 10.3019 10.7501 10.2068 10.5848 10.0405C10.4196 9.87431 10.327 9.65033 10.327 9.41698C10.327 9.18363 10.4196 8.95965 10.5848 8.79342C10.7501 8.62719 10.9747 8.53204 11.2101 8.52857Z" fill="#00C0F3"/>
<path d="M15.8917 14.9135C15.2362 14.9206 14.6101 15.1837 14.1491 15.6456C13.6882 16.1075 13.4297 16.7309 13.4297 17.3806C13.4297 18.0302 13.6882 18.6536 14.1492 19.1155C14.6101 19.5774 15.2363 19.8405 15.8917 19.8476C16.5472 19.8405 17.1733 19.5774 17.6343 19.1155C18.0952 18.6536 18.3537 18.0301 18.3537 17.3805C18.3537 16.7309 18.0952 16.1074 17.6342 15.6456C17.1733 15.1837 16.5471 14.9206 15.8917 14.9135ZM15.8917 18.2689C15.6561 18.2657 15.4313 18.1706 15.2659 18.0044C15.1004 17.8381 15.0077 17.614 15.0077 17.3805C15.0077 17.1471 15.1004 16.9229 15.2659 16.7567C15.4313 16.5904 15.6561 16.4954 15.8917 16.4921C16.1271 16.4956 16.3518 16.5906 16.5171 16.7569C16.6824 16.9231 16.7751 17.1471 16.7751 17.3805C16.7751 17.6139 16.6824 17.838 16.5171 18.0042C16.3518 18.1704 16.1271 18.2655 15.8917 18.2689Z" fill="#00C0F3"/>
</svg>
