<svg width="36" height="34" viewBox="0 0 36 34" fill="none" xmlns="http://www.w3.org/2000/svg">
<path fill-rule="evenodd" clip-rule="evenodd" d="M1 3.65227C1 1.9513 2.43489 0.570801 4.20288 0.570801H31.797C33.5649 0.570801 34.9998 1.9513 34.9998 3.65227V26.4077C34.9998 26.722 34.8701 27.0235 34.639 27.2458C34.408 27.468 34.0947 27.5929 33.768 27.5929C33.4412 27.5929 33.1279 27.468 32.8969 27.2458C32.6659 27.0235 32.5361 26.722 32.5361 26.4077V3.65227C32.5361 3.46367 32.4582 3.2828 32.3196 3.14944C32.181 3.01608 31.993 2.94116 31.797 2.94116H4.20288C4.00685 2.94116 3.81886 3.01608 3.68024 3.14944C3.54163 3.2828 3.46376 3.46367 3.46376 3.65227V30.2003C3.46376 30.5928 3.79489 30.9114 4.20288 30.9114H27.8549C28.1817 30.9114 28.495 31.0363 28.726 31.2585C28.957 31.4808 29.0868 31.7822 29.0868 32.0966C29.0868 32.4109 28.957 32.7124 28.726 32.9346C28.495 33.1569 28.1817 33.2818 27.8549 33.2818H4.20288C3.35343 33.2818 2.53876 32.9571 1.9381 32.3792C1.33745 31.8013 1 31.0175 1 30.2003V3.65227Z" fill="#00C0F3" stroke="white" stroke-width="0.5"/>
<path fill-rule="evenodd" clip-rule="evenodd" d="M22 14.1635C20.2582 14.1635 18.5877 14.8316 17.356 16.0206C16.1244 17.2097 15.4324 18.8225 15.4324 20.5041C15.4324 22.1857 16.1244 23.7984 17.356 24.9875C18.5877 26.1766 20.2582 26.8446 22 26.8446C23.7418 26.8446 25.4123 26.1766 26.644 24.9875C27.8756 23.7984 28.5676 22.1857 28.5676 20.5041C28.5676 18.8225 27.8756 17.2097 26.644 16.0206C25.4123 14.8316 23.7418 14.1635 22 14.1635ZM13 20.5041C13 18.1996 13.9482 15.9896 15.636 14.3601C17.3239 12.7306 19.6131 11.8152 22 11.8152C24.3869 11.8152 26.6761 12.7306 28.364 14.3601C30.0518 15.9896 31 18.1996 31 20.5041C31 22.8085 30.0518 25.0186 28.364 26.648C26.6761 28.2775 24.3869 29.193 22 29.193C19.6131 29.193 17.3239 28.2775 15.636 26.648C13.9482 25.0186 13 22.8085 13 20.5041Z" fill="#00C0F3" stroke="white" stroke-width="0.5"/>
<path fill-rule="evenodd" clip-rule="evenodd" d="M26.8661 25.4819C26.9821 25.3706 27.1199 25.2822 27.2716 25.222C27.4233 25.1617 27.5859 25.1307 27.75 25.1307C27.9142 25.1307 28.0768 25.1617 28.2284 25.222C28.3801 25.2822 28.5179 25.3706 28.634 25.4819L34.6338 31.2354C34.7499 31.3468 34.842 31.4789 34.9048 31.6244C34.9677 31.7698 35 31.9257 35 32.0831C35 32.2406 34.9677 32.3964 34.9048 32.5419C34.842 32.6873 34.7499 32.8195 34.6338 32.9308C34.5178 33.0421 34.3799 33.1304 34.2283 33.1907C34.0766 33.2509 33.914 33.2819 33.7499 33.2819C33.5857 33.2819 33.4231 33.2509 33.2715 33.1907C33.1198 33.1304 32.982 33.0421 32.8659 32.9308L26.8661 27.1773C26.75 27.066 26.6578 26.9338 26.595 26.7884C26.5322 26.6429 26.4998 26.487 26.4998 26.3296C26.4998 26.1722 26.5322 26.0163 26.595 25.8708C26.6578 25.7254 26.75 25.5932 26.8661 25.4819ZM25.0001 18.1883C25.2653 18.3791 25.4406 18.663 25.4875 18.9778C25.5344 19.2925 25.449 19.6121 25.2501 19.8665L22.6742 23.1594C22.5059 23.3737 22.2866 23.5481 22.0346 23.6645C21.7826 23.7808 21.5052 23.8376 21.2256 23.8301C20.946 23.8226 20.6723 23.751 20.4275 23.6213C20.1826 23.4916 19.9737 23.3076 19.8182 23.0846L19.8162 23.0808L18.2103 20.7717C18.1192 20.6407 18.0558 20.4938 18.0239 20.3394C17.9919 20.1849 17.992 20.026 18.0242 19.8716C18.0891 19.5597 18.2805 19.2854 18.5563 19.1089C18.8321 18.9324 19.1697 18.8682 19.4949 18.9304C19.8201 18.9927 20.1062 19.1762 20.2902 19.4407L21.3102 20.9078L23.2502 18.4281C23.4491 18.1738 23.7452 18.0056 24.0734 17.9607C24.4015 17.9157 24.7349 17.9976 25.0001 18.1883Z" fill="#00C0F3" stroke="white" stroke-width="0.5"/>
<path fill-rule="evenodd" clip-rule="evenodd" d="M5 10.4036C5 8.92378 6.20875 7.72632 7.69811 7.72632H28.3019C29.7932 7.72632 31 8.92573 31 10.4036V12.8374C31 13.1602 30.8708 13.4697 30.6408 13.6979C30.4108 13.9261 30.0989 14.0544 29.7736 14.0544C29.4483 14.0544 29.1364 13.9261 28.9064 13.6979C28.6764 13.4697 28.5472 13.1602 28.5472 12.8374V10.4036C28.5472 10.339 28.5213 10.2771 28.4753 10.2315C28.4293 10.1858 28.3669 10.1602 28.3019 10.1602H7.69811C7.63306 10.1602 7.57067 10.1858 7.52467 10.2315C7.47867 10.2771 7.45283 10.339 7.45283 10.4036V15.2713C7.45283 15.4056 7.56272 15.5147 7.69811 15.5147H11.1321C11.4573 15.5147 11.7693 15.6429 11.9993 15.8711C12.2293 16.0993 12.3585 16.4089 12.3585 16.7316C12.3585 17.0544 12.2293 17.3639 11.9993 17.5921C11.7693 17.8203 11.4573 17.9485 11.1321 17.9485H7.69811C6.20679 17.9485 5 16.7491 5 15.2713V10.4036Z" fill="#00C0F3" stroke="white" stroke-width="0.5"/>
<path fill-rule="evenodd" clip-rule="evenodd" d="M1 5.68189C1 5.11762 1.55188 4.65967 2.23188 4.65967H33.7681C34.0948 4.65967 34.4082 4.76737 34.6392 4.95907C34.8702 5.15077 35 5.41078 35 5.68189C35 5.953 34.8702 6.21301 34.6392 6.40471C34.4082 6.59641 34.0948 6.70411 33.7681 6.70411H2.23188C1.90517 6.70411 1.59183 6.59641 1.36081 6.40471C1.12979 6.21301 1 5.953 1 5.68189Z" fill="#00C0F3" stroke="white" stroke-width="0.5"/>
<path fill-rule="evenodd" clip-rule="evenodd" d="M5 22.6703C5 21.1905 6.17333 19.993 7.61905 19.993H10C10.3157 19.993 10.6185 20.1213 10.8418 20.3495C11.0651 20.5777 11.1905 20.8872 11.1905 21.21C11.1905 21.5327 11.0651 21.8423 10.8418 22.0705C10.6185 22.2987 10.3157 22.4269 10 22.4269H7.61905C7.5559 22.4269 7.49534 22.4525 7.45069 22.4982C7.40604 22.5438 7.38095 22.6057 7.38095 22.6703V27.538C7.38095 27.6724 7.48762 27.7814 7.61905 27.7814H13.8095C14.1253 27.7814 14.4281 27.9096 14.6513 28.1378C14.8746 28.3661 15 28.6756 15 28.9983C15 29.3211 14.8746 29.6306 14.6513 29.8588C14.4281 30.0871 14.1253 30.2153 13.8095 30.2153H7.61905C6.17143 30.2153 5 29.0159 5 27.538V22.6703Z" fill="#00C0F3" stroke="white" stroke-width="0.5"/>
</svg>
