<svg width="51" height="51" viewBox="0 0 51 51" fill="none" xmlns="http://www.w3.org/2000/svg">
<path d="M13.3216 18.2121H7.44636C7.24347 18.2121 7.04889 18.2927 6.90542 18.4362C6.76196 18.5796 6.68136 18.7742 6.68136 18.9771V24.8523C6.68136 25.0552 6.76196 25.2498 6.90542 25.3932C7.04889 25.5367 7.24347 25.6173 7.44636 25.6173H13.3216C13.5245 25.6173 13.719 25.5367 13.8625 25.3932C14.006 25.2498 14.0866 25.0552 14.0866 24.8523V18.9771C14.0866 18.7742 14.006 18.5796 13.8625 18.4362C13.719 18.2927 13.5245 18.2121 13.3216 18.2121ZM12.5566 24.0873H8.21136V19.7421H12.5566V24.0873ZM23.7052 18.2121H17.8504C17.6475 18.2121 17.4529 18.2927 17.3094 18.4362C17.166 18.5796 17.0854 18.7742 17.0854 18.9771V24.8523C17.0854 25.0552 17.166 25.2498 17.3094 25.3932C17.4529 25.5367 17.6475 25.6173 17.8504 25.6173H23.7052C23.9081 25.6173 24.1026 25.5367 24.2461 25.3932C24.3896 25.2498 24.4702 25.0552 24.4702 24.8523V18.9771C24.4702 18.7742 24.3896 18.5796 24.2461 18.4362C24.1026 18.2927 23.9081 18.2121 23.7052 18.2121ZM22.9504 24.0873H18.595V19.7421H22.9504V24.0873ZM34.864 24.8523V18.9771C34.864 18.7742 34.7834 18.5796 34.6399 18.4362C34.4964 18.2927 34.3019 18.2121 34.099 18.2121H28.2136C28.0107 18.2121 27.8161 18.2927 27.6726 18.4362C27.5292 18.5796 27.4486 18.7742 27.4486 18.9771V24.8523C27.4486 25.0552 27.5292 25.2498 27.6726 25.3932C27.8161 25.5367 28.0107 25.6173 28.2136 25.6173H34.0888C34.2917 25.6173 34.4862 25.5367 34.6297 25.3932C34.7732 25.2498 34.8538 25.0552 34.8538 24.8523H34.864ZM33.334 24.0873H28.9786V19.7421H33.3238L33.334 24.0873ZM13.3216 27.9786H7.44636C7.24347 27.9786 7.04889 28.0592 6.90542 28.2027C6.76196 28.3461 6.68136 28.5407 6.68136 28.7436V34.6188C6.68136 34.8217 6.76196 35.0163 6.90542 35.1597C7.04889 35.3032 7.24347 35.3838 7.44636 35.3838H13.3216C13.5245 35.3838 13.719 35.3032 13.8625 35.1597C14.006 35.0163 14.0866 34.8217 14.0866 34.6188V28.7436C14.0866 28.5407 14.006 28.3461 13.8625 28.2027C13.719 28.0592 13.5245 27.9786 13.3216 27.9786ZM12.5566 33.8538H8.21136V29.5086H12.5566V33.8538ZM23.7052 27.9786H17.8504C17.6475 27.9786 17.4529 28.0592 17.3094 28.2027C17.166 28.3461 17.0854 28.5407 17.0854 28.7436V34.6188C17.0854 34.8217 17.166 35.0163 17.3094 35.1597C17.4529 35.3032 17.6475 35.3838 17.8504 35.3838H23.7052C23.9081 35.3838 24.1026 35.3032 24.2461 35.1597C24.3896 35.0163 24.4702 34.8217 24.4702 34.6188V28.7436C24.4702 28.5407 24.3896 28.3461 24.2461 28.2027C24.1026 28.0592 23.9081 27.9786 23.7052 27.9786ZM22.9504 33.8538H18.595V29.5086H22.9504V33.8538ZM39.3265 26.9382V9.7359C39.3251 8.72051 38.9212 7.74709 38.2032 7.0291C37.4852 6.31111 36.5118 5.90715 35.4964 5.9058H34.4764V4.8348C34.4764 4.39612 34.39 3.96174 34.2221 3.55645C34.0542 3.15116 33.8081 2.7829 33.498 2.47271C33.1878 2.16252 32.8195 1.91646 32.4142 1.74858C32.0089 1.58071 31.5745 1.4943 31.1359 1.4943C30.6972 1.4943 30.2628 1.58071 29.8575 1.74858C29.4522 1.91646 29.084 2.16252 28.7738 2.47271C28.4636 2.7829 28.2175 3.15116 28.0496 3.55645C27.8818 3.96174 27.7954 4.39612 27.7954 4.8348V5.9058H24.1081V4.8348C24.1081 3.94885 23.7561 3.09918 23.1297 2.47271C22.5032 1.84625 21.6535 1.4943 20.7676 1.4943C19.8816 1.4943 19.0319 1.84625 18.4055 2.47271C17.779 3.09918 17.4271 3.94885 17.4271 4.8348V5.9058H13.7296V4.8348C13.6958 3.97076 13.3288 3.15335 12.7056 2.55397C12.0823 1.95459 11.2512 1.6198 10.3865 1.6198C9.52181 1.6198 8.6907 1.95459 8.06745 2.55397C7.44419 3.15335 7.07721 3.97076 7.04346 4.8348V5.9058H6.02346C5.00807 5.90715 4.03465 6.31111 3.31666 7.0291C2.59867 7.74709 2.19471 8.72051 2.19336 9.7359V35.7C2.19471 36.7154 2.59867 37.6888 3.31666 38.4068C4.03465 39.1248 5.00807 39.5288 6.02346 39.5301H26.143C26.4007 41.6209 27.2346 43.5989 28.5515 45.2432C29.8684 46.8875 31.6165 48.1333 33.6005 48.8415C35.5846 49.5497 37.7264 49.6924 39.7869 49.2537C41.8473 48.8149 43.7452 47.812 45.2686 46.357C46.7921 44.9019 47.881 43.052 48.4138 41.0139C48.9466 38.9757 48.9023 36.8296 48.2859 34.8151C47.6695 32.8007 46.5052 30.9973 44.923 29.6063C43.3409 28.2153 41.4033 27.2916 39.3265 26.9382ZM29.3407 4.8348C29.3407 4.35463 29.5314 3.89412 29.8709 3.55458C30.2105 3.21505 30.671 3.0243 31.1512 3.0243C31.6313 3.0243 32.0918 3.21505 32.4314 3.55458C32.7709 3.89412 32.9617 4.35463 32.9617 4.8348V8.5017C32.9617 8.98188 32.7709 9.44239 32.4314 9.78192C32.0918 10.1215 31.6313 10.3122 31.1512 10.3122C30.671 10.3122 30.2105 10.1215 29.8709 9.78192C29.5314 9.44239 29.3407 8.98188 29.3407 8.5017V4.8348ZM18.9571 4.8348C18.9571 4.35463 19.1478 3.89412 19.4873 3.55458C19.8269 3.21505 20.2874 3.0243 20.7676 3.0243C21.2477 3.0243 21.7082 3.21505 22.0478 3.55458C22.3873 3.89412 22.5781 4.35463 22.5781 4.8348V8.5017C22.5781 8.98188 22.3873 9.44239 22.0478 9.78192C21.7082 10.1215 21.2477 10.3122 20.7676 10.3122C20.2874 10.3122 19.8269 10.1215 19.4873 9.78192C19.1478 9.44239 18.9571 8.98188 18.9571 8.5017V4.8348ZM8.57346 4.8348C8.59809 4.37058 8.79985 3.93349 9.13716 3.6136C9.47447 3.29371 9.92164 3.11539 10.3865 3.11539C10.8514 3.11539 11.2986 3.29371 11.6359 3.6136C11.9732 3.93349 12.1749 4.37058 12.1996 4.8348V8.5017C12.1749 8.96592 11.9732 9.40301 11.6359 9.7229C11.2986 10.0428 10.8514 10.2211 10.3865 10.2211C9.92164 10.2211 9.47447 10.0428 9.13716 9.7229C8.79985 9.40301 8.59809 8.96592 8.57346 8.5017V4.8348ZM3.74376 9.7359C3.74376 9.12588 3.98609 8.54084 4.41744 8.10949C4.8488 7.67813 5.43384 7.4358 6.04386 7.4358H7.06386V8.5017C7.09761 9.36574 7.46459 10.1832 8.08785 10.7825C8.7111 11.3819 9.54221 11.7167 10.4069 11.7167C11.2716 11.7167 12.1027 11.3819 12.726 10.7825C13.3492 10.1832 13.7162 9.36574 13.75 8.5017V7.4358H17.4475V8.5017C17.4475 9.38766 17.7994 10.2373 18.4259 10.8638C19.0523 11.4903 19.902 11.8422 20.788 11.8422C21.6739 11.8422 22.5236 11.4903 23.1501 10.8638C23.7765 10.2373 24.1285 9.38766 24.1285 8.5017V7.4358H27.8311V8.5017C27.8311 8.94038 27.9175 9.37477 28.0853 9.78006C28.2532 10.1853 28.4993 10.5536 28.8095 10.8638C29.1197 11.174 29.4879 11.42 29.8932 11.5879C30.2985 11.7558 30.7329 11.8422 31.1716 11.8422C31.6102 11.8422 32.0446 11.7558 32.4499 11.5879C32.8552 11.42 33.2235 11.174 33.5337 10.8638C33.8438 10.5536 34.0899 10.1853 34.2578 9.78006C34.4257 9.37477 34.5121 8.94038 34.5121 8.5017V7.4358H35.5321C36.1421 7.4358 36.7271 7.67813 37.1585 8.10949C37.5898 8.54084 37.8322 9.12588 37.8322 9.7359V14.3259H3.74376V9.7359ZM26.0614 37.9797H6.04386C5.43735 37.9797 4.85538 37.7402 4.42461 37.3133C3.99384 36.8863 3.74914 36.3065 3.74376 35.7V15.8508H37.7965V26.7852H37.4242C34.4407 26.7888 31.578 27.9641 29.4527 30.058C27.3274 32.1518 26.1095 34.9966 26.0614 37.9797ZM37.4242 47.9757C35.4782 47.9767 33.5756 47.4006 31.9571 46.3202C30.3386 45.2398 29.0769 43.7037 28.3315 41.9061C27.5861 40.1086 27.3906 38.1304 27.7696 36.2217C28.1486 34.313 29.0852 32.5595 30.4608 31.1832C31.8365 29.8068 33.5894 28.8693 35.4979 28.4893C37.4064 28.1093 39.3847 28.3038 41.1827 29.0483C42.9806 29.7927 44.5174 31.0537 45.5986 32.6716C46.6799 34.2896 47.257 36.1918 47.257 38.1378C47.2543 40.7453 46.2176 43.2452 44.3743 45.0895C42.5311 46.9337 40.0316 47.9717 37.4242 47.9757Z" fill="#00C0F3"/>
<path d="M36.6464 37.9556H37.9679C38.5868 37.9556 39.0612 37.8043 39.391 37.5016C39.7117 37.2125 39.8721 36.8036 39.8721 36.275C39.8721 35.7555 39.7117 35.3489 39.391 35.0552C39.0612 34.7571 38.5891 34.608 37.9747 34.608H36.6464V37.9556ZM36.6464 41.5608V42.9568H34.8981V41.5608H33.6309V40.4223H34.8981V39.3109H33.6309V37.9692H34.8981V33.1781H38.4761C39.4203 33.1781 40.1883 33.4695 40.7802 34.0523C41.3584 34.6261 41.6476 35.3625 41.6476 36.2615C41.6476 37.156 41.3494 37.8901 40.7531 38.4639C40.1477 39.0421 39.3639 39.3313 38.4016 39.3313H36.6464V40.4223H39.3571V41.5608H36.6464Z" fill="#00C0F3"/>
</svg>
