<svg width="37" height="38" viewBox="0 0 37 38" fill="none" xmlns="http://www.w3.org/2000/svg">
<g clip-path="url(#clip0_949_3731)">
<path d="M36.4194 30.3125H32.9355V18.8124H34.0968C34.2116 18.8124 34.3238 18.7786 34.4193 18.7155C34.5148 18.6523 34.5892 18.5625 34.6331 18.4574C34.677 18.3524 34.6885 18.2368 34.6661 18.1253C34.6437 18.0137 34.5885 17.9113 34.5073 17.8309L29.8621 13.2309C29.7532 13.1231 29.6056 13.0625 29.4516 13.0625C29.2976 13.0625 29.15 13.1231 29.0411 13.2309L24.3959 17.8309C24.3148 17.9113 24.2595 18.0137 24.2371 18.1253C24.2147 18.2368 24.2262 18.3524 24.2701 18.4574C24.3141 18.5625 24.3885 18.6523 24.4839 18.7155C24.5794 18.7786 24.6916 18.8124 24.8065 18.8124H25.9677V30.3125H22.4839V22.2624H23.6452C23.76 22.2624 23.8722 22.2287 23.9677 22.1655C24.0631 22.1023 24.1376 22.0125 24.1815 21.9075C24.2254 21.8024 24.2369 21.6868 24.2145 21.5753C24.1921 21.4638 24.1369 21.3613 24.0557 21.2809L19.4105 16.6809C19.3016 16.5731 19.154 16.5125 19 16.5125C18.846 16.5125 18.6984 16.5731 18.5895 16.6809L13.9443 21.2809C13.8631 21.3613 13.8079 21.4638 13.7855 21.5753C13.7631 21.6868 13.7746 21.8024 13.8185 21.9075C13.8624 22.0125 13.9369 22.1023 14.0323 22.1655C14.1278 22.2287 14.24 22.2624 14.3548 22.2624H15.5161V30.3125H12.0323V26.8625H13.1935C13.3084 26.8624 13.4206 26.8287 13.5161 26.7655C13.6115 26.7023 13.6859 26.6125 13.7299 26.5075C13.7738 26.4024 13.7853 26.2868 13.7629 26.1753C13.7405 26.0638 13.6852 25.9613 13.6041 25.8809L8.9589 21.2809C8.85002 21.1731 8.70235 21.1125 8.54839 21.1125C8.39442 21.1125 8.24676 21.1731 8.13787 21.2809L3.49271 25.8809C3.41153 25.9613 3.35625 26.0638 3.33385 26.1753C3.31146 26.2868 3.32296 26.4024 3.3669 26.5075C3.41083 26.6125 3.48524 26.7023 3.5807 26.7655C3.67617 26.8287 3.7884 26.8624 3.90323 26.8625H5.06452V30.3125H1.58065C1.42665 30.3125 1.27896 30.3731 1.17007 30.4809C1.06117 30.5887 1 30.735 1 30.8875V35.4875C1 35.64 1.06117 35.7863 1.17007 35.8941C1.27896 36.0019 1.42665 36.0625 1.58065 36.0625H36.4194C36.5733 36.0625 36.721 36.0019 36.8299 35.8941C36.9388 35.7863 37 35.64 37 35.4875V30.8875C37 30.735 36.9388 30.5887 36.8299 30.4809C36.721 30.3731 36.5733 30.3125 36.4194 30.3125ZM26.5484 17.6624H26.2081L29.4516 14.4504L32.6951 17.6624H32.3548C32.2008 17.6624 32.0532 17.723 31.9443 17.8308C31.8354 17.9387 31.7742 18.0849 31.7742 18.2374V30.3125H27.129V18.2374C27.129 18.0849 27.0679 17.9387 26.959 17.8308C26.8501 17.723 26.7024 17.6624 26.5484 17.6624ZM16.0968 21.1124H15.7565L19 17.9005L22.2435 21.1124H21.9032C21.7492 21.1124 21.6015 21.173 21.4926 21.2808C21.3838 21.3887 21.3226 21.5349 21.3226 21.6874V30.3125H16.6774V21.6874C16.6774 21.5349 16.6162 21.3887 16.5074 21.2808C16.3985 21.173 16.2508 21.1124 16.0968 21.1124ZM5.64516 25.7124H5.3049L8.54839 22.5005L11.7919 25.7124H11.4516C11.2976 25.7124 11.1499 25.773 11.041 25.8809C10.9321 25.9887 10.871 26.1349 10.871 26.2874V30.3125H6.22581V26.2874C6.22581 26.1349 6.16463 25.9887 6.05574 25.8809C5.94685 25.773 5.79916 25.7124 5.64516 25.7124ZM35.8387 34.9125H2.16129V31.4625H35.8387V34.9125Z" fill="#00C0F3" stroke="#00C0F3" stroke-width="0.5"/>
<path d="M24.4339 6.58915C24.3311 6.61364 24.237 6.66863 24.1626 6.74771C24.0881 6.8268 24.0364 6.92672 24.0134 7.03582C23.9904 7.14493 23.9971 7.25873 24.0327 7.36395C24.0683 7.46918 24.1313 7.5615 24.2144 7.63015L26.2567 9.31993L25.6778 12.355C25.6566 12.4669 25.6664 12.5829 25.706 12.6889C25.7457 12.795 25.8134 12.8865 25.9011 12.9525C25.9888 13.0185 26.0926 13.0561 26.2 13.0607C26.3074 13.0653 26.4137 13.0367 26.5061 12.9785L29 11.4078L31.4939 12.9796C31.5864 13.038 31.6929 13.0666 31.8004 13.062C31.9079 13.0574 32.0118 13.0197 32.0995 12.9536C32.1873 12.8874 32.255 12.7956 32.2945 12.6894C32.3341 12.5831 32.3437 12.467 32.3222 12.355L31.7433 9.31875L33.7856 7.62897C33.8687 7.56032 33.9317 7.468 33.9673 7.36277C34.0029 7.25755 34.0096 7.14375 33.9866 7.03464C33.9636 6.92554 33.9119 6.82562 33.8374 6.74653C33.763 6.66745 33.6689 6.61246 33.5661 6.58797L30.695 5.90498L29.5 3.36235C29.4487 3.27094 29.3759 3.19526 29.2887 3.14269C29.2015 3.09013 29.103 3.0625 29.0028 3.0625C28.9025 3.0625 28.804 3.09013 28.7169 3.14269C28.6297 3.19526 28.5569 3.27094 28.5056 3.36235L27.3078 5.90616L24.4339 6.58915ZM28.1806 6.6847L29 4.94479L29.8194 6.6847C29.8563 6.76287 29.9091 6.83136 29.9739 6.88521C30.0388 6.93907 30.1141 6.97695 30.1944 6.99611L32.175 7.46795L30.7861 8.61453C30.7046 8.68189 30.6424 8.77206 30.6065 8.87489C30.5705 8.97773 30.5623 9.08915 30.5828 9.19666L30.9817 11.2875L29.2811 10.2158C29.1952 10.1616 29.0971 10.133 28.9972 10.133C28.8973 10.133 28.7992 10.1616 28.7133 10.2158L27.0128 11.2875L27.4117 9.19666C27.4321 9.08915 27.4239 8.97773 27.388 8.87489C27.3521 8.77206 27.2899 8.68189 27.2083 8.61453L25.8194 7.46795L27.8 6.99611C27.8813 6.97775 27.9578 6.94024 28.0236 6.88634C28.0895 6.83244 28.1431 6.76354 28.1806 6.6847Z" fill="#00C0F3" stroke="#00C0F3" stroke-width="0.5"/>
<path d="M22.9868 11.0356C22.9637 10.9265 22.912 10.8267 22.8375 10.7476C22.763 10.6686 22.6689 10.6136 22.5661 10.5892L19.6941 9.90616L18.4988 7.36235C18.4475 7.27094 18.3746 7.19526 18.2874 7.14269C18.2003 7.09013 18.1017 7.0625 18.0014 7.0625C17.9012 7.0625 17.8026 7.09013 17.7154 7.14269C17.6282 7.19526 17.5554 7.27094 17.5041 7.36235L16.3059 9.90616L13.434 10.5892C13.3312 10.6136 13.2371 10.6686 13.1626 10.7477C13.0882 10.8268 13.0364 10.9267 13.0134 11.0358C12.9904 11.1449 12.9971 11.2587 13.0327 11.364C13.0683 11.4692 13.1313 11.5615 13.2145 11.6301L15.2573 13.3199L14.6755 16.355C14.6543 16.4669 14.6641 16.5829 14.7037 16.6889C14.7434 16.795 14.8112 16.8865 14.8989 16.9525C14.9866 17.0185 15.0904 17.0561 15.1978 17.0607C15.3053 17.0653 15.4116 17.0367 15.504 16.9785L17.9987 15.4078L20.4933 16.9796C20.5858 17.038 20.6923 17.0666 20.7998 17.062C20.9074 17.0574 21.0113 17.0197 21.0991 16.9536C21.1868 16.8874 21.2546 16.7956 21.2942 16.6894C21.3337 16.5831 21.3433 16.467 21.3218 16.355L20.7428 13.3188L22.7856 11.629C22.8686 11.5604 22.9316 11.4683 22.9672 11.3632C23.0028 11.2582 23.0096 11.1446 22.9868 11.0356ZM19.7881 12.6139C19.7065 12.6813 19.6443 12.7715 19.6084 12.8743C19.5724 12.9771 19.5642 13.0886 19.5847 13.1961L19.9837 15.2869L18.2826 14.2152C18.1967 14.161 18.0986 14.1324 17.9987 14.1324C17.8987 14.1324 17.8006 14.161 17.7147 14.2152L16.0136 15.2869L16.4126 13.1961C16.4331 13.0886 16.4249 12.9771 16.389 12.8743C16.353 12.7715 16.2908 12.6813 16.2092 12.6139L14.82 11.4674L16.8011 10.9955C16.8814 10.9764 16.9568 10.9385 17.0217 10.8846C17.0865 10.8308 17.1393 10.7623 17.1762 10.6841L17.9987 8.94479L18.8183 10.6847C18.8552 10.7629 18.908 10.8314 18.9729 10.8852C19.0377 10.9391 19.1131 10.977 19.1935 10.9961L21.1746 11.468L19.7881 12.6139Z" fill="#00C0F3" stroke="#00C0F3" stroke-width="0.5"/>
<path d="M12.9868 16.0356C12.9637 15.9265 12.912 15.8267 12.8375 15.7476C12.7631 15.6686 12.669 15.6136 12.5662 15.5892L9.69507 14.9062L8.50005 12.3623C8.44872 12.2709 8.37591 12.1953 8.28875 12.1427C8.20159 12.0901 8.10307 12.0625 8.00283 12.0625C7.90259 12.0625 7.80406 12.0901 7.7169 12.1427C7.62974 12.1953 7.55693 12.2709 7.5056 12.3623L6.3078 14.9062L3.43388 15.5892C3.33112 15.6136 3.23704 15.6686 3.16259 15.7477C3.08815 15.8268 3.03641 15.9267 3.01341 16.0358C2.99041 16.1449 2.9971 16.2587 3.03269 16.364C3.06828 16.4692 3.13131 16.5615 3.21443 16.6302L5.25668 18.3199L4.67778 21.355C4.65659 21.4669 4.66641 21.5829 4.70605 21.6889C4.7457 21.795 4.81346 21.8865 4.90113 21.9525C4.98881 22.0185 5.09263 22.0561 5.20001 22.0607C5.30739 22.0653 5.41372 22.0367 5.50613 21.9785L8.00005 20.4078L10.494 21.9796C10.5865 22.038 10.6929 22.0666 10.8004 22.062C10.908 22.0574 11.0119 22.0197 11.0996 21.9536C11.1874 21.8874 11.2551 21.7956 11.2946 21.6894C11.3342 21.5831 11.3438 21.467 11.3223 21.355L10.7434 18.3188L12.7857 16.629C12.8686 16.5604 12.9316 16.4683 12.9672 16.3632C13.0028 16.2582 13.0096 16.1446 12.9868 16.0356ZM9.78896 17.6139C9.70744 17.6813 9.64522 17.7715 9.6093 17.8743C9.57338 17.9771 9.56518 18.0886 9.58562 18.1961L9.98452 20.2869L8.28394 19.2153C8.19805 19.161 8.09997 19.1324 8.00005 19.1324C7.90012 19.1324 7.80205 19.161 7.71616 19.2153L6.01558 20.2869L6.41447 18.1961C6.43491 18.0886 6.42671 17.9771 6.3908 17.8743C6.35488 17.7715 6.29266 17.6813 6.21114 17.6139L4.82501 16.4674L6.80559 15.9955C6.88593 15.9764 6.96125 15.9385 7.02611 15.8846C7.09096 15.8308 7.14373 15.7623 7.18059 15.6841L8.00005 13.9448L8.8195 15.6847C8.85637 15.7629 8.90913 15.8314 8.97399 15.8852C9.03885 15.9391 9.11417 15.977 9.19451 15.9961L11.1751 16.468L9.78896 17.6139Z" fill="#00C0F3" stroke="#00C0F3" stroke-width="0.5"/>
</g>
<defs>
<clipPath id="clip0_949_3731">
<rect width="37" height="37" fill="white" transform="translate(0 0.0625)"/>
</clipPath>
</defs>
</svg>
