<svg width="39" height="36" viewBox="0 0 39 36" fill="none" xmlns="http://www.w3.org/2000/svg">
<path fill-rule="evenodd" clip-rule="evenodd" d="M31.5179 15.4011C31.4369 15.4011 31.3559 15.3705 31.2942 15.3089L30.279 14.2935C30.1557 14.1701 30.1557 13.97 30.279 13.8467C30.4024 13.7233 30.6024 13.7233 30.7258 13.8467L31.741 14.8621C31.8643 14.9854 31.8643 15.1855 31.741 15.3089C31.6793 15.3705 31.5983 15.4011 31.5179 15.4011Z" fill="#00C0F3" stroke="#00C0F3" stroke-width="0.5"/>
<path fill-rule="evenodd" clip-rule="evenodd" d="M29.698 14.5776C29.2922 14.5776 28.9112 14.4201 28.6248 14.1331C28.0327 13.5417 28.0327 12.579 28.6242 11.987C28.9112 11.7 29.2922 11.5425 29.698 11.5425C30.1032 11.5425 30.4842 11.7 30.7712 11.987C31.0577 12.2734 31.2158 12.6549 31.2158 13.0601C31.2158 13.4658 31.0577 13.8467 30.7712 14.1331C30.4848 14.4201 30.1032 14.5776 29.698 14.5776ZM29.698 12.2053C29.4695 12.2053 29.2545 12.2942 29.093 12.4557C28.7598 12.7888 28.7598 13.3313 29.093 13.6644C29.2545 13.8259 29.4695 13.9153 29.698 13.9153C29.9265 13.9153 30.1409 13.8259 30.3024 13.6644C30.4639 13.5035 30.5529 13.2885 30.5529 13.0601C30.5529 12.8316 30.4639 12.6172 30.3024 12.4557C30.1409 12.2942 29.9265 12.2053 29.698 12.2053Z" fill="#00C0F3" stroke="#00C0F3" stroke-width="0.5"/>
<path fill-rule="evenodd" clip-rule="evenodd" d="M32.4531 17.5625H5.54695C4.41836 17.5625 3.5 16.6746 3.5 15.5835V11.5415C3.5 10.4504 4.41836 9.5625 5.54695 9.5625H32.4531C33.5816 9.5625 34.5 10.4504 34.5 11.5415V15.5835C34.5 16.6746 33.5816 17.5625 32.4531 17.5625ZM5.54695 10.4026C4.89709 10.4026 4.36894 10.9139 4.36894 11.5415V15.5835C4.36894 16.2111 4.89709 16.7224 5.54695 16.7224H32.4531C33.1029 16.7224 33.6311 16.2111 33.6311 15.5835V11.5415C33.6311 10.9139 33.1029 10.4026 32.4531 10.4026H5.54695Z" fill="#00C0F3" stroke="#00C0F3" stroke-width="0.5"/>
<path fill-rule="evenodd" clip-rule="evenodd" d="M26 17.5625C25.7241 17.5625 25.5 17.3742 25.5 17.1425V9.98254C25.5 9.75077 25.7241 9.5625 26 9.5625C26.2759 9.5625 26.5 9.75077 26.5 9.98254V17.1425C26.5 17.3742 26.2759 17.5625 26 17.5625Z" fill="#00C0F3" stroke="#00C0F3" stroke-width="0.5"/>
<path fill-rule="evenodd" clip-rule="evenodd" d="M36.2919 31.5625H18.7593C18.518 31.5625 18.3221 31.37 18.3221 31.133C18.3221 30.8953 18.518 30.7035 18.7593 30.7035H36.2912C37.0274 30.7035 37.6257 30.115 37.6257 29.3924V2.73262C37.6257 2.00997 37.0274 1.4215 36.2912 1.4215H2.70809C1.97256 1.4215 1.37433 2.00997 1.37433 2.73262V29.3924C1.37433 30.115 1.97256 30.7035 2.70809 30.7035H7.8331C8.07506 30.7035 8.27026 30.8953 8.27026 31.133C8.27026 31.37 8.07506 31.5625 7.8331 31.5625H2.70809C1.49086 31.5625 0.5 30.589 0.5 29.3924V2.73262C0.5 1.53599 1.49086 0.5625 2.70809 0.5625H36.2912C37.5091 0.5625 38.5 1.53599 38.5 2.73262V29.3924C38.5 30.589 37.5091 31.5625 36.2919 31.5625Z" fill="#00C0F3" stroke="#00C0F3" stroke-width="0.5"/>
<path fill-rule="evenodd" clip-rule="evenodd" d="M38.0628 7.5625H0.937166C0.695945 7.5625 0.5 7.33839 0.5 7.0625C0.5 6.78576 0.695945 6.5625 0.937166 6.5625H38.0628C38.3041 6.5625 38.5 6.78576 38.5 7.0625C38.5 7.33839 38.3041 7.5625 38.0628 7.5625Z" fill="#00C0F3" stroke="#00C0F3" stroke-width="0.5"/>
<path fill-rule="evenodd" clip-rule="evenodd" d="M5.07768 4.5625H2.92232C2.68929 4.5625 2.5 4.33839 2.5 4.0625C2.5 3.78661 2.68929 3.5625 2.92232 3.5625H5.07768C5.31142 3.5625 5.5 3.78661 5.5 4.0625C5.5 4.33839 5.31142 4.5625 5.07768 4.5625Z" fill="#00C0F3" stroke="#00C0F3" stroke-width="0.5"/>
<path fill-rule="evenodd" clip-rule="evenodd" d="M10.0778 4.5625H7.92222C7.68925 4.5625 7.5 4.33839 7.5 4.0625C7.5 3.78661 7.68925 3.5625 7.92222 3.5625H10.0778C10.3108 3.5625 10.5 3.78661 10.5 4.0625C10.5 4.33839 10.3108 4.5625 10.0778 4.5625Z" fill="#00C0F3" stroke="#00C0F3" stroke-width="0.5"/>
<path fill-rule="evenodd" clip-rule="evenodd" d="M16.0778 4.5625H13.9222C13.6892 4.5625 13.5 4.33839 13.5 4.0625C13.5 3.78661 13.6892 3.5625 13.9222 3.5625H16.0778C16.3108 3.5625 16.5 3.78661 16.5 4.0625C16.5 4.33839 16.3108 4.5625 16.0778 4.5625Z" fill="#00C0F3" stroke="#00C0F3" stroke-width="0.5"/>
<path fill-rule="evenodd" clip-rule="evenodd" d="M34.1355 5.5625H22.8653C22.1128 5.5625 21.5 4.8899 21.5 4.06291C21.5 3.2351 22.1128 2.5625 22.8653 2.5625H34.1347C34.888 2.5625 35.5 3.2351 35.5 4.06209C35.5 4.8899 34.888 5.5625 34.1355 5.5625ZM22.8653 3.52992C22.5977 3.52992 22.3803 3.76891 22.3803 4.06209C22.3803 4.35609 22.5977 4.59508 22.8653 4.59508H34.1347C34.4023 4.59508 34.6197 4.35609 34.6197 4.06291C34.6197 3.76891 34.4023 3.52992 34.1347 3.52992H22.8653Z" fill="#00C0F3" stroke="#00C0F3" stroke-width="0.5"/>
<path fill-rule="evenodd" clip-rule="evenodd" d="M20.0976 7.5625C19.9588 7.5625 19.8235 7.48248 19.7489 7.3398L16.5538 1.22959C16.443 1.01671 16.5087 0.744945 16.7014 0.621896C16.8942 0.499601 17.1403 0.572072 17.2511 0.784955L20.4462 6.89516C20.557 7.10805 20.4913 7.37981 20.2986 7.50286C20.235 7.54287 20.1659 7.5625 20.0976 7.5625Z" fill="#00C0F3" stroke="#00C0F3" stroke-width="0.5"/>
<path fill-rule="evenodd" clip-rule="evenodd" d="M14.0457 35.5625H12.9535C12.5317 35.5625 12.1866 35.2314 12.1512 34.7926L12.0383 33.3929C11.4646 33.2498 10.9189 33.0234 10.4108 32.7181L9.34071 33.6289C9.18437 33.7624 8.98746 33.8361 8.78761 33.8361C8.57596 33.8361 8.37758 33.7535 8.22935 33.6053L7.45723 32.8331C7.15856 32.5345 7.14823 32.0566 7.43363 31.7211L8.3444 30.651C8.03835 30.1429 7.81268 29.5979 7.66962 29.0242L6.26917 28.9113C5.83112 28.8759 5.5 28.5308 5.5 28.1082V27.016C5.5 26.5935 5.83112 26.2491 6.26917 26.2137L7.66888 26.1008C7.81195 25.5264 8.03835 24.9814 8.34366 24.4733L7.43363 23.4039C7.14823 23.0684 7.15782 22.5905 7.45723 22.2919L8.22935 21.5197C8.37758 21.3708 8.57596 21.2889 8.78761 21.2889C8.98746 21.2889 9.18437 21.3626 9.34071 21.4961L10.4108 22.4062C10.9189 22.1008 11.4646 21.8744 12.0383 21.7314L12.1512 20.3317C12.1866 19.8929 12.5317 19.5625 12.9535 19.5625H14.0457C14.4683 19.5625 14.8134 19.8929 14.8488 20.3317L14.9609 21.7314C15.5354 21.8752 16.0804 22.1008 16.5892 22.4069L17.6586 21.4961C17.8156 21.3626 18.0118 21.2889 18.2124 21.2889C18.4233 21.2889 18.6217 21.3708 18.7706 21.5197L19.5428 22.2919C19.8414 22.5905 19.8518 23.0684 19.5664 23.4032L18.6556 24.4733C18.9609 24.9821 19.1873 25.5271 19.3304 26.1008L20.7301 26.2137C21.1689 26.2483 21.5 26.5942 21.5 27.0168V28.1082C21.5 28.5308 21.1689 28.8759 20.7301 28.9113L19.3304 29.0242C19.1873 29.5979 18.9609 30.1436 18.6556 30.6517L19.5664 31.7211C19.8518 32.0566 19.8414 32.5345 19.5428 32.8331L18.7706 33.6053C18.6224 33.7535 18.424 33.8361 18.2124 33.8361C18.0125 33.8361 17.8156 33.7624 17.6586 33.6289L16.5885 32.7181C16.0804 33.0234 15.5354 33.2498 14.9617 33.3929L14.8488 34.7926C14.8134 35.2314 14.4683 35.5625 14.0457 35.5625ZM13.0147 34.6938H13.9853L14.1209 33.0028C14.1364 32.8081 14.2802 32.648 14.4727 32.6112C15.1586 32.4799 15.8009 32.2137 16.382 31.8199C16.5435 31.71 16.7581 31.7218 16.9071 31.8479L18.1991 32.9482L18.8857 32.2616L17.7861 30.9696C17.6593 30.8206 17.6475 30.606 17.7574 30.4445C18.1512 29.8641 18.4174 29.2218 18.5487 28.5345C18.5855 28.3427 18.7456 28.1989 18.941 28.1834L20.6313 28.0478V27.0773L18.9403 26.9408C18.7456 26.9253 18.5855 26.7815 18.5487 26.5898C18.4174 25.9032 18.1512 25.2609 17.7574 24.6805C17.6475 24.519 17.6593 24.3037 17.7861 24.1547L18.8857 22.8626L18.1991 22.1768L16.9071 23.2764C16.7588 23.4025 16.5435 23.4143 16.382 23.3044C15.8016 22.9106 15.1586 22.6444 14.4727 22.5131C14.2802 22.4762 14.1372 22.3162 14.1209 22.1215L13.9853 20.4312L13.0147 20.4305L12.8791 22.1208C12.8628 22.3154 12.719 22.4762 12.5273 22.5131C11.8407 22.6444 11.1984 22.9106 10.618 23.3044C10.4558 23.4143 10.2412 23.4025 10.0922 23.2756L8.80088 22.1761L8.11431 22.8626L9.21386 24.1547C9.34071 24.3029 9.35251 24.5183 9.24263 24.6798C8.84882 25.2601 8.58186 25.9032 8.45059 26.5898C8.41445 26.7815 8.25369 26.9253 8.059 26.9408L6.36873 27.0765V28.047L8.059 28.1834C8.25443 28.1989 8.41445 28.3427 8.45133 28.5345C8.5826 29.2211 8.84882 29.8634 9.24263 30.4445C9.35251 30.606 9.34071 30.8206 9.21386 30.9696L8.11431 32.2616L8.80015 32.9482L10.0922 31.8486C10.2412 31.7218 10.4558 31.71 10.618 31.8199C11.1984 32.2137 11.8407 32.4799 12.5273 32.6112C12.719 32.648 12.8628 32.8088 12.8783 33.0035L13.0147 34.6938Z" fill="#00C0F3" stroke="#00C0F3" stroke-width="0.5"/>
<path fill-rule="evenodd" clip-rule="evenodd" d="M13.4995 31.106C11.546 31.106 9.95605 29.5165 9.95605 27.5628C9.95605 25.6085 11.5454 24.019 13.4995 24.019C15.4531 24.019 17.043 25.6085 17.043 27.5628C17.043 29.5165 15.4531 31.106 13.4995 31.106ZM13.4995 24.7272C11.9361 24.7272 10.6641 25.9992 10.6641 27.5628C10.6641 29.1264 11.9361 30.3984 13.4995 30.3984C15.063 30.3984 16.3349 29.1264 16.3349 27.5628C16.3349 25.9992 15.063 24.7272 13.4995 24.7272Z" fill="#00C0F3" stroke="#00C0F3" stroke-width="0.5"/>
<path fill-rule="evenodd" clip-rule="evenodd" d="M35.0622 21.5625H24.9378C24.6962 21.5625 24.5 21.3384 24.5 21.0625C24.5 20.7858 24.6962 20.5625 24.9378 20.5625H35.0622C35.3038 20.5625 35.5 20.7858 35.5 21.0625C35.5 21.3384 35.3038 21.5625 35.0622 21.5625Z" fill="#00C0F3" stroke="#00C0F3" stroke-width="0.5"/>
<path fill-rule="evenodd" clip-rule="evenodd" d="M35.0622 25.019H24.9378C24.6962 25.019 24.5 24.7949 24.5 24.519C24.5 24.2432 24.6962 24.019 24.9378 24.019H35.0622C35.3038 24.019 35.5 24.2432 35.5 24.519C35.5 24.7949 35.3038 25.019 35.0622 25.019Z" fill="#00C0F3" stroke="#00C0F3" stroke-width="0.5"/>
<path fill-rule="evenodd" clip-rule="evenodd" d="M35.0622 28.5625H24.9378C24.6962 28.5625 24.5 28.3384 24.5 28.0625C24.5 27.7866 24.6962 27.5625 24.9378 27.5625H35.0622C35.3038 27.5625 35.5 27.7866 35.5 28.0625C35.5 28.3384 35.3038 28.5625 35.0622 28.5625Z" fill="#00C0F3" stroke="#00C0F3" stroke-width="0.5"/>
</svg>
