<svg width="42" height="42" viewBox="0 0 42 42" fill="none" xmlns="http://www.w3.org/2000/svg">
<g clip-path="url(#clip0_660_3110)">
<path d="M41.0768 20.0829C41.0746 8.98915 32.0793 -0.00224263 20.9853 4.19581e-07C9.89149 0.00224346 0.900101 8.9978 0.902344 20.0916C0.904267 28.8301 6.55513 36.5648 14.8797 39.2228C14.9592 39.2478 15.0418 39.2606 15.1248 39.2603C15.2831 39.2599 15.4382 39.2177 15.5744 39.1372C15.7516 39.0324 15.8839 38.8658 15.9461 38.6694L21.0189 22.5913C22.4057 22.5842 23.5241 21.454 23.5167 20.0675C23.5096 18.6807 22.3798 17.5624 20.9929 17.5694C20.62 17.571 20.2518 17.6569 19.9166 17.8206L13.215 11.1181C12.8824 10.797 12.3527 10.8063 12.0317 11.1386C11.7183 11.4632 11.7183 11.9772 12.0317 12.3018L18.7297 19.0075C18.2157 20.0566 18.5096 21.323 19.4337 22.0382L14.6003 37.3588C5.04812 33.8401 0.157014 23.2443 3.6757 13.6922C7.1944 4.14001 17.7902 -0.751098 27.3424 2.76759C36.8945 6.28628 41.7856 16.8824 38.2669 26.4342C36.5478 31.101 33.0156 34.8751 28.4728 36.8993L27.9505 34.4393C27.855 33.9872 27.4106 33.6982 26.9585 33.794C26.8159 33.8244 26.6835 33.8914 26.5746 33.9885L21.5386 38.4845C21.1932 38.7918 21.1625 39.3208 21.4701 39.6663C21.57 39.7784 21.6982 39.8617 21.8418 39.9075L28.2713 41.9596C28.7112 42.1009 29.1826 41.859 29.3239 41.4187C29.3688 41.2796 29.3762 41.1316 29.346 40.9887L28.8327 38.5749C36.2671 35.4407 41.0941 28.1508 41.0768 20.0829ZM20.9897 19.2459C21.4518 19.2459 21.8267 19.6208 21.8267 20.0829C21.8267 20.5453 21.4518 20.9199 20.9897 20.9199C20.5274 20.9199 20.1528 20.5453 20.1528 20.0829C20.1528 19.6208 20.5274 19.2459 20.9897 19.2459ZM23.7464 38.7549L26.613 36.1979L27.4042 39.9258L23.7464 38.7549Z" fill="#00C0F3"/>
<path d="M20.1523 4.18039V5.85434C20.1523 6.31673 20.5269 6.69131 20.9893 6.69131C21.4514 6.69131 21.8263 6.31673 21.8263 5.85434V4.18039C21.8263 3.71832 21.4514 3.34341 20.9893 3.34341C20.5269 3.34341 20.1523 3.71832 20.1523 4.18039Z" fill="#00C0F3"/>
<path d="M5.08893 19.2459C4.62654 19.2459 4.25195 19.6208 4.25195 20.0829C4.25195 20.5453 4.62654 20.9199 5.08893 20.9199H6.76288C7.22526 20.9199 7.59985 20.5453 7.59985 20.0829C7.59985 19.6208 7.22526 19.2459 6.76288 19.2459H5.08893Z" fill="#00C0F3"/>
<path d="M36.8918 20.9199C37.3542 20.9199 37.7288 20.5453 37.7288 20.0829C37.7288 19.6208 37.3542 19.2459 36.8918 19.2459H35.2178C34.7558 19.2459 34.3809 19.6208 34.3809 20.0829C34.3809 20.5453 34.7558 20.9199 35.2178 20.9199H36.8918Z" fill="#00C0F3"/>
</g>
<defs>
<clipPath id="clip0_660_3110">
<rect width="42" height="42" fill="white"/>
</clipPath>
</defs>
</svg>
