<svg width="44" height="43" viewBox="0 0 44 43" fill="none" xmlns="http://www.w3.org/2000/svg">
<path d="M32.684 6.30836C27.4844 6.30836 22.2215 7.77437 22.2215 10.5777V15.3766C22.0749 15.3259 21.9272 15.2764 21.7785 15.23V5.14082C21.7785 2.33852 16.5156 0.871445 11.316 0.871445C6.11641 0.871445 0.853516 2.33746 0.853516 5.14082V25.7874C0.853516 26.6016 1.31547 27.7491 3.44699 28.6973C3.5398 36.3005 9.83418 42.4588 17.5587 42.4588C22.8321 42.4588 27.438 39.589 29.8606 35.3492C30.7739 35.4452 31.7232 35.4937 32.684 35.4937C37.8836 35.4937 43.1465 34.0277 43.1465 31.2243V10.5777C43.1465 7.77543 37.8836 6.30836 32.684 6.30836ZM32.684 8.10133C38.2939 8.10133 41.3535 9.73715 41.3535 10.5777C41.3535 11.4183 38.2939 13.0541 32.684 13.0541C27.0741 13.0541 24.0145 11.4183 24.0145 10.5777C24.0145 9.73715 27.0741 8.10133 32.684 8.10133ZM24.0145 13.0763C25.9973 14.2449 29.3543 14.8471 32.684 14.8471C36.0147 14.8471 39.3707 14.2459 41.3535 13.0763V14.7068C41.3535 15.5474 38.2939 17.1832 32.684 17.1832C30.9321 17.1832 29.233 17.0103 27.7691 16.6833C27.2861 16.5757 26.8073 16.8795 26.6986 17.3625C26.648 17.5882 26.6881 17.8118 26.7936 17.9985C25.9488 17.275 25.0164 16.6496 24.0134 16.1391V13.0763H24.0145ZM17.5587 14.595C11.7295 14.595 6.71441 18.1019 4.56391 23.0895C4.51539 22.81 4.33609 22.5579 4.05977 22.4293C3.01668 21.943 2.64648 21.4684 2.64648 21.209V19.5774C3.29617 19.9623 4.11461 20.2988 5.0902 20.5741C5.17141 20.5973 5.25367 20.6078 5.33488 20.6078C5.72617 20.6078 6.08582 20.3505 6.19656 19.955C6.33156 19.4782 6.05418 18.9836 5.57746 18.8486C3.42695 18.24 2.64543 17.4575 2.64543 17.0788V15.4462C4.11988 16.3121 6.29992 16.8362 8.39875 17.0641C8.43145 17.0672 8.46414 17.0693 8.49684 17.0693C8.94824 17.0693 9.33742 16.7287 9.38699 16.2699C9.44078 15.7773 9.0843 15.3354 8.59281 15.2816C4.38988 14.825 2.64543 13.5372 2.64543 12.9487V11.3181C4.62824 12.4867 7.98426 13.0889 11.315 13.0889C12.9919 13.0889 14.6509 12.9381 16.1148 12.6523C16.6011 12.5574 16.9175 12.087 16.8225 11.6008C16.7276 11.1146 16.2562 10.7982 15.771 10.8931C14.4189 11.1568 12.878 11.297 11.315 11.297C5.70508 11.297 2.64543 9.66121 2.64543 8.82062V7.63832C4.62824 8.80691 7.98426 9.40914 11.315 9.40914C14.6457 9.40914 18.0017 8.80797 19.9845 7.63832V14.8007C19.1966 14.6657 18.3866 14.595 17.5587 14.595ZM11.316 2.66441C16.9259 2.66441 19.9855 4.30023 19.9855 5.14082C19.9855 5.98141 16.9259 7.61723 11.316 7.61723C5.70613 7.61723 2.64648 5.98141 2.64648 5.14082C2.64648 4.30023 5.70613 2.66441 11.316 2.66441ZM2.64648 25.7874V23.7107C2.84371 23.8267 3.06098 23.9417 3.3025 24.0545C3.42484 24.1115 3.55352 24.1389 3.68113 24.1389C3.87941 24.1389 4.07242 24.0714 4.22852 23.9501C3.91211 24.8445 3.68535 25.78 3.55984 26.7461C2.93652 26.378 2.64648 26.0247 2.64648 25.7874ZM17.5587 40.6659C10.7644 40.6659 5.23785 35.2205 5.23785 28.5264C5.23785 21.8334 10.7655 16.388 17.5587 16.388C24.353 16.388 29.8806 21.8334 29.8806 28.5264C29.8806 35.2195 24.353 40.6659 17.5587 40.6659ZM32.684 33.7007C32.0111 33.7007 31.3445 33.6754 30.6948 33.6248C31.3266 32.0448 31.6736 30.3246 31.6736 28.5264C31.6736 24.5323 29.9618 20.9263 27.2249 18.3835C27.2745 18.4046 27.3251 18.4214 27.3789 18.4341C28.9694 18.7895 30.8035 18.9762 32.684 18.9762C36.0147 18.9762 39.3707 18.375 41.3535 17.2054V18.8359C41.3535 19.6765 38.2939 21.3123 32.684 21.3123C32.1893 21.3123 31.7875 21.7142 31.7875 22.2088C31.7875 22.7035 32.1893 23.1053 32.684 23.1053C36.0147 23.1053 39.3707 22.5041 41.3535 21.3345V22.965C41.3535 23.5114 39.7451 24.7401 35.8702 25.2421C35.3787 25.3054 35.0328 25.7557 35.0961 26.2462C35.1551 26.6976 35.5401 27.0277 35.9841 27.0277C36.0221 27.0277 36.0611 27.0256 36.1001 27.0203C38.3529 26.7282 40.1417 26.1892 41.3535 25.4699V27.0931C41.3535 27.7818 39.0786 29.1761 34.5455 29.503C34.0519 29.5389 33.6807 29.9682 33.7155 30.4618C33.7492 30.9332 34.1426 31.2939 34.6088 31.2939C34.6309 31.2939 34.652 31.2928 34.6742 31.2918C37.0483 31.1209 39.665 30.5852 41.3525 29.5969V31.2222C41.3535 32.0649 38.2939 33.7007 32.684 33.7007Z" fill="#00C0F3" stroke="white" stroke-width="0.3"/>
<path d="M23.8993 20.5002C23.5101 20.1944 22.9459 20.2629 22.6411 20.6532L11.011 35.5C10.7062 35.8902 10.7737 36.4534 11.1639 36.7582C11.3274 36.8869 11.5225 36.9491 11.7166 36.9491C11.9824 36.9491 12.2461 36.831 12.4232 36.6053L24.0522 21.7585C24.357 21.3693 24.2885 20.8061 23.8993 20.5002Z" fill="#00C0F3" stroke="white" stroke-width="0.3"/>
<path d="M16.2362 23.8288C16.2362 21.8882 14.6574 20.3093 12.7168 20.3093C10.7761 20.3093 9.19727 21.8882 9.19727 23.8288C9.19727 25.7695 10.7761 27.3483 12.7168 27.3483C14.6574 27.3483 16.2362 25.7695 16.2362 23.8288ZM10.9902 23.8288C10.9902 22.8765 11.7644 22.1023 12.7168 22.1023C13.6691 22.1023 14.4433 22.8765 14.4433 23.8288C14.4433 24.7812 13.6691 25.5554 12.7168 25.5554C11.7644 25.5554 10.9902 24.7812 10.9902 23.8288Z" fill="#00C0F3" stroke="white" stroke-width="0.3"/>
<path d="M21.6308 30.5103C19.6902 30.5103 18.1113 32.0891 18.1113 34.0298C18.1113 35.9704 19.6902 37.5493 21.6308 37.5493C23.5714 37.5493 25.1503 35.9704 25.1503 34.0298C25.1503 32.0891 23.5714 30.5103 21.6308 30.5103ZM21.6308 35.7563C20.6784 35.7563 19.9043 34.9821 19.9043 34.0298C19.9043 33.0774 20.6784 32.3032 21.6308 32.3032C22.5832 32.3032 23.3573 33.0774 23.3573 34.0298C23.3573 34.9821 22.5832 35.7563 21.6308 35.7563Z" fill="#00C0F3" stroke="white" stroke-width="0.3"/>
</svg>
