<svg width="51" height="52" viewBox="0 0 51 52" fill="none" xmlns="http://www.w3.org/2000/svg">
<path d="M31.5825 37.8541H19.563C19.3802 37.8541 19.2049 37.7814 19.0757 37.6522C18.9464 37.523 18.8738 37.3477 18.8738 37.1649C18.8738 36.9821 18.9464 36.8068 19.0757 36.6775C19.2049 36.5483 19.3802 36.4757 19.563 36.4757H31.5825C31.8166 36.4889 32.0509 36.4543 32.2711 36.3738C32.4914 36.2934 32.6929 36.1688 32.8633 36.0078C33.0337 35.8467 33.1695 35.6526 33.2622 35.4373C33.355 35.2219 33.4029 34.9899 33.4029 34.7555C33.4029 34.521 33.355 34.289 33.2622 34.0737C33.1695 33.8583 33.0337 33.6642 32.8633 33.5032C32.6929 33.3421 32.4914 33.2176 32.2711 33.1371C32.0509 33.0566 31.8166 33.022 31.5825 33.0352H25.1496C24.9772 33.0355 24.8109 32.971 24.6837 32.8547C22.4388 30.7927 19.5009 29.6498 16.4527 29.6527H8.79856C8.61578 29.6527 8.44048 29.5801 8.31123 29.4508C8.18199 29.3216 8.10938 29.1463 8.10938 28.9635C8.10938 28.7807 8.18199 28.6054 8.31123 28.4762C8.44048 28.3469 8.61578 28.2743 8.79856 28.2743H16.4527C19.7518 28.2715 22.9381 29.4745 25.4122 31.6569H31.5811C31.999 31.6392 32.4162 31.7063 32.8075 31.8541C33.1988 32.0019 33.5562 32.2273 33.8581 32.5167C34.16 32.8062 34.4003 33.1538 34.5644 33.5385C34.7286 33.9232 34.8132 34.3372 34.8132 34.7555C34.8132 35.1737 34.7286 35.5877 34.5644 35.9724C34.4003 36.3572 34.16 36.7047 33.8581 36.9942C33.5562 37.2837 33.1988 37.5091 32.8075 37.6568C32.4162 37.8046 31.999 37.8717 31.5811 37.8541H31.5825Z" fill="#00C0F3" stroke="#00C0F3" stroke-width="0.5"/>
<path d="M25.9426 46.5578C24.3254 46.5582 22.7205 46.2784 21.1989 45.7308L8.55913 41.1622C8.47163 41.1333 8.39081 41.0872 8.32144 41.0265C8.25208 40.9658 8.19558 40.8919 8.15529 40.809C8.11501 40.7261 8.09175 40.636 8.08689 40.544C8.08204 40.452 8.09569 40.3599 8.12703 40.2733C8.15837 40.1866 8.20677 40.1071 8.26937 40.0395C8.33197 39.9719 8.40749 39.9175 8.49147 39.8796C8.57545 39.8417 8.66618 39.821 8.7583 39.8187C8.85042 39.8165 8.94205 39.8327 9.02778 39.8665L21.6668 44.4358C23.5508 45.1122 25.5686 45.3314 27.5539 45.0754C27.6437 45.0637 27.7349 44.9702 27.8223 44.9938C27.9097 45.0174 27.9916 45.0579 28.0634 45.1132C28.1351 45.1684 28.1953 45.2372 28.2404 45.3157C28.2855 45.3942 28.3148 45.4808 28.3265 45.5705C28.3381 45.6603 28.332 45.7515 28.3084 45.8389C28.2849 45.9264 28.2443 46.0083 28.1891 46.08C28.1339 46.1518 28.065 46.2119 27.9866 46.2571C27.9081 46.3022 27.8215 46.3315 27.7317 46.3431C27.1384 46.4197 26.5408 46.5577 25.9426 46.5578Z" fill="#00C0F3" stroke="#00C0F3" stroke-width="0.5"/>
<path d="M27.7329 46.3303C27.5783 46.3305 27.4281 46.2787 27.3065 46.1832C27.1849 46.0877 27.099 45.9541 27.0625 45.8039C27.026 45.6536 27.041 45.4955 27.1052 45.3548C27.1695 45.2142 27.2791 45.0992 27.4166 45.0285L47.7189 35.5191L47.326 35.1745C46.5644 34.5015 45.6381 34.0421 44.6414 33.843C43.6447 33.6438 42.6131 33.7121 41.6513 34.0408L33.8214 36.7217C33.7355 36.7521 33.6444 36.7652 33.5535 36.7602C33.4625 36.7552 33.3734 36.7322 33.2914 36.6926C33.2094 36.6529 33.136 36.5974 33.0756 36.5292C33.0151 36.4611 32.9688 36.3816 32.9393 36.2954C32.9098 36.2092 32.8976 36.118 32.9036 36.0271C32.9095 35.9362 32.9335 35.8473 32.9739 35.7657C33.0144 35.6841 33.0707 35.6113 33.1395 35.5516C33.2083 35.4919 33.2883 35.4464 33.3748 35.4178L41.204 32.7368C42.3962 32.3296 43.6748 32.245 44.9103 32.4916C46.1457 32.7381 47.294 33.3071 48.2385 34.1407L49.3881 35.1524C49.4723 35.2264 49.5372 35.3199 49.5771 35.4246C49.6171 35.5294 49.6308 35.6423 49.6173 35.7536C49.6037 35.8649 49.5632 35.9712 49.4992 36.0633C49.4353 36.1553 49.3498 36.2304 49.2503 36.282L28.0499 46.2545C27.9518 46.3048 27.8431 46.3308 27.7329 46.3303Z" fill="#00C0F3" stroke="#00C0F3" stroke-width="0.5"/>
<path d="M6.66775 44.1022H2.0681C1.88531 44.1022 1.71001 44.0296 1.58077 43.9004C1.45152 43.7711 1.37891 43.5958 1.37891 43.413V26C1.37891 25.8172 1.45152 25.6419 1.58077 25.5127C1.71001 25.3834 1.88531 25.3108 2.0681 25.3108H6.66775C7.41501 25.3124 8.13121 25.61 8.6596 26.1384C9.188 26.6668 9.48558 27.383 9.48722 28.1303V41.2821C9.48576 42.0295 9.18827 42.7458 8.65985 43.2744C8.13143 43.8029 7.41513 44.1006 6.66775 44.1022ZM2.75728 42.7239H6.66775C7.0499 42.7233 7.41623 42.5712 7.68639 42.3009C7.95655 42.0306 8.10848 41.6642 8.10884 41.2821V28.1303C8.10848 27.7482 7.95653 27.3819 7.68635 27.1117C7.41617 26.8415 7.04984 26.6895 6.66775 26.6892H2.75728V42.7239Z" fill="#00C0F3" stroke="#00C0F3" stroke-width="0.5"/>
<path d="M32.3912 28.0676C30.1421 28.0676 27.9435 27.4006 26.0734 26.1511C24.2034 24.9016 22.7458 23.1256 21.8851 21.0477C21.0245 18.9698 20.7993 16.6833 21.238 14.4775C21.6768 12.2716 22.7599 10.2454 24.3502 8.655C25.9406 7.06465 27.9668 5.98161 30.1727 5.54283C32.3785 5.10406 34.665 5.32925 36.7429 6.18994C38.8208 7.05064 40.5968 8.50816 41.8463 10.3782C43.0958 12.2483 43.7628 14.4469 43.7628 16.696C43.7593 19.7108 42.5601 22.6012 40.4283 24.7331C38.2964 26.8649 35.406 28.0641 32.3912 28.0676ZM32.3912 6.70271C30.4147 6.70271 28.4826 7.2888 26.8392 8.38687C25.1958 9.48495 23.915 11.0457 23.1586 12.8717C22.4022 14.6977 22.2043 16.707 22.5899 18.6455C22.9755 20.584 23.9273 22.3647 25.3249 23.7622C26.7224 25.1598 28.5031 26.1116 30.4416 26.4972C32.3801 26.8828 34.3894 26.6849 36.2154 25.9285C38.0414 25.1721 39.6022 23.8913 40.7002 22.2479C41.7983 20.6045 42.3844 18.6724 42.3844 16.696C42.3813 14.0465 41.3274 11.5065 39.454 9.63309C37.5806 7.75966 35.0406 6.70581 32.3912 6.70271Z" fill="#00C0F3" stroke="#00C0F3" stroke-width="0.5"/>
<path d="M31.5594 16.5806H32.9223C33.5606 16.5806 34.0499 16.4245 34.39 16.1123C34.7208 15.8141 34.8862 15.3925 34.8862 14.8473C34.8862 14.3115 34.7208 13.8921 34.39 13.5893C34.0499 13.2817 33.5629 13.128 32.9293 13.128H31.5594V16.5806ZM31.5594 20.2988V21.7386H29.7562V20.2988H28.4492V19.1247H29.7562V17.9785H28.4492V16.5946H29.7562V11.6533H33.4465C34.4203 11.6533 35.2124 11.9538 35.8228 12.5549C36.4192 13.1466 36.7174 13.9061 36.7174 14.8333C36.7174 15.7559 36.4099 16.5131 35.7948 17.1048C35.1704 17.7012 34.362 17.9994 33.3696 17.9994H31.5594V19.1247H34.355V20.2988H31.5594Z" fill="#00C0F3"/>
</svg>
