<svg width="48" height="49" viewBox="0 0 48 49" fill="none" xmlns="http://www.w3.org/2000/svg">
<path d="M3.12039 18.5897H27.1684C27.5524 18.5897 27.8884 18.2537 27.8884 17.8697V3.75772C27.8884 3.37372 27.5524 3.03772 27.1684 3.03772H3.12039C2.73639 3.03772 2.40039 3.37372 2.40039 3.75772V17.8697C2.40039 18.2537 2.73639 18.5897 3.12039 18.5897ZM3.84039 4.47772H26.4484V17.1497H3.84039V4.47772Z" fill="#00C0F3"/>
<path d="M8.11094 8.22174H10.1269C10.5109 8.22174 10.8469 7.88574 10.8469 7.50174C10.8469 7.11774 10.5109 6.78174 10.1269 6.78174H8.11094C6.81494 6.78174 5.71094 7.83774 5.71094 9.18174C5.71094 10.4777 6.76694 11.5817 8.11094 11.5817H8.44694C8.97494 11.5817 9.40694 12.0137 9.40694 12.5417C9.40694 13.0697 8.97494 13.5017 8.44694 13.5017H6.43094C6.04694 13.5017 5.71094 13.8377 5.71094 14.2217C5.71094 14.6057 6.04694 14.9417 6.43094 14.9417H8.44694C9.74294 14.9417 10.8469 13.8857 10.8469 12.5417C10.8469 11.2457 9.79094 10.1417 8.44694 10.1417H8.11094C7.58294 10.1417 7.15094 9.70974 7.15094 9.18174C7.15094 8.60574 7.58294 8.22174 8.11094 8.22174Z" fill="#00C0F3"/>
<path d="M16.9922 8.22174C17.3762 8.22174 17.7122 7.88574 17.7122 7.50174C17.7122 7.11774 17.3762 6.78174 16.9922 6.78174H13.2962C12.9122 6.78174 12.5762 7.11774 12.5762 7.50174V14.1737C12.5762 14.5577 12.9122 14.8937 13.2962 14.8937H16.9922C17.3762 14.8937 17.7122 14.5577 17.7122 14.1737C17.7122 13.7897 17.3762 13.4537 16.9922 13.4537H14.0162V11.5817H16.9922C17.3762 11.5817 17.7122 11.2457 17.7122 10.8617C17.7122 10.4777 17.3762 10.1417 16.9922 10.1417H14.0162V8.26974H16.9922V8.22174Z" fill="#00C0F3"/>
<path d="M21.9835 6.78174C20.5915 6.78174 19.4395 7.93374 19.4395 9.32574V12.3017C19.4395 13.6937 20.5915 14.8457 21.9835 14.8457C23.3755 14.8457 24.5275 13.6937 24.5275 12.3017V9.32574C24.5755 7.93374 23.4235 6.78174 21.9835 6.78174ZM23.1355 12.3017C23.1355 12.9257 22.6555 13.4057 22.0315 13.4057C21.4075 13.4057 20.9275 12.9257 20.9275 12.3017V9.32574C20.9275 8.70174 21.4555 8.22174 22.0315 8.22174C22.6555 8.22174 23.1355 8.74974 23.1355 9.32574V12.3017Z" fill="#00C0F3"/>
<path d="M44.8804 26.6057H38.9284C38.5444 26.6057 38.2084 26.9417 38.2084 27.3257V44.7977H33.6964V35.6777C33.6964 35.2937 33.3604 34.9577 32.9764 34.9577H26.9764C26.5924 34.9577 26.2564 35.2937 26.2564 35.6777V44.7977H21.7444V29.8697C21.7444 29.4857 21.4084 29.1497 21.0244 29.1497H15.0724C14.6884 29.1497 14.3524 29.4857 14.3524 29.8697V44.7977H9.84039V33.5177C9.84039 33.1337 9.50439 32.7977 9.12039 32.7977H3.12039C2.73639 32.7977 2.40039 33.1337 2.40039 33.5177V45.5177C2.40039 45.9017 2.73639 46.2377 3.12039 46.2377H44.8804C45.2644 46.2377 45.6004 45.9017 45.6004 45.5177V27.3257C45.6004 26.9417 45.2644 26.6057 44.8804 26.6057ZM39.6484 28.0457H44.1604V44.7977H39.6484V28.0457ZM27.6964 36.3977H32.2084V44.7977H27.6964V36.3977ZM15.7924 30.5897H20.3044V44.7977H15.7924V30.5897ZM3.84039 34.2377H8.35239V44.7977H3.84039V34.2377Z" fill="#00C0F3"/>
<path d="M20.8336 24.3017C20.8816 24.1097 20.9296 23.8697 20.9296 23.6297C20.9296 22.0457 19.6336 20.7497 18.0496 20.7497C16.4656 20.7497 15.1696 22.0457 15.1696 23.6297V23.8697L8.54562 26.1737C8.01762 25.4057 7.15362 24.8777 6.14562 24.8777C4.56162 24.8777 3.26562 26.1737 3.26562 27.7577C3.26562 29.3417 4.56162 30.6377 6.14562 30.6377C7.72962 30.6377 9.02562 29.3417 9.02562 27.7577C9.02562 27.6617 9.02562 27.6137 9.02562 27.5177L15.6496 25.2137C16.1776 25.9817 17.0416 26.5097 18.0496 26.5097C18.9136 26.5097 19.6816 26.1257 20.2096 25.5497L27.1696 29.1497C27.1216 29.3417 27.0736 29.5817 27.0736 29.8217C27.0736 31.4057 28.3696 32.7017 29.9536 32.7017C31.5376 32.7017 32.8336 31.4057 32.8336 29.8217C32.8336 29.3897 32.7376 28.9577 32.5456 28.5737L40.2256 22.0457C40.7056 22.3817 41.2816 22.5737 41.9056 22.5737C43.4896 22.5737 44.7856 21.2777 44.7856 19.6937C44.7856 18.1097 43.4896 16.8137 41.9056 16.8137C40.3216 16.8137 39.0256 18.1097 39.0256 19.6937C39.0256 20.1257 39.1216 20.5577 39.3136 20.9417L31.6336 27.4697C31.1536 27.1337 30.5776 26.9417 29.9536 26.9417C29.0896 26.9417 28.3216 27.3257 27.7936 27.9017L20.8336 24.3017ZM6.09762 29.2937C5.28162 29.2937 4.65762 28.6217 4.65762 27.8537C4.65762 27.0377 5.32962 26.4137 6.09762 26.4137C6.91362 26.4137 7.53762 27.0857 7.53762 27.8537C7.58562 28.6217 6.91362 29.2937 6.09762 29.2937ZM18.0496 25.1177C17.2336 25.1177 16.6096 24.4457 16.6096 23.6777C16.6096 22.8617 17.2816 22.2377 18.0496 22.2377C18.8656 22.2377 19.4896 22.9097 19.4896 23.6777C19.4896 24.4937 18.8176 25.1177 18.0496 25.1177ZM41.9056 18.2537C42.7216 18.2537 43.3456 18.9257 43.3456 19.6937C43.3456 20.4617 42.6736 21.1337 41.9056 21.1337C41.0896 21.1337 40.4656 20.4617 40.4656 19.6937C40.4656 18.9257 41.0896 18.2537 41.9056 18.2537ZM29.9536 28.3817C30.7696 28.3817 31.3936 29.0537 31.3936 29.8217C31.3936 30.6377 30.7216 31.2617 29.9536 31.2617C29.1376 31.2617 28.5136 30.5897 28.5136 29.8217C28.5136 29.0537 29.1856 28.3817 29.9536 28.3817Z" fill="#00C0F3"/>
</svg>
