<svg width="54" height="54" viewBox="0 0 54 54" fill="none" xmlns="http://www.w3.org/2000/svg">
<path d="M11.8225 11.9741L9.33817 14.4585C9.18292 14.6138 9.0957 14.8244 9.0957 15.044C9.0957 15.2636 9.18292 15.4742 9.33817 15.6295L11.8225 18.1138L12.9935 16.9429L11.0946 15.044L12.9935 13.1451L11.8225 11.9741Z" fill="#00C0F3"/>
<path d="M14.1113 18.0679L16.5948 11.4452L18.1451 12.0265L15.6616 18.6492L14.1113 18.0679Z" fill="#00C0F3"/>
<path d="M20.4464 18.1138L22.9307 15.6295C23.086 15.4742 23.1732 15.2636 23.1732 15.044C23.1732 14.8244 23.086 14.6138 22.9307 14.4585L20.4464 11.9741L19.2754 13.1451L21.1743 15.044L19.2754 16.9429L20.4464 18.1138Z" fill="#00C0F3"/>
<path d="M9.0957 21.6689H12.4082V23.3252H9.0957V21.6689Z" fill="#00C0F3"/>
<path d="M14.0645 21.6689H22.3457V23.3252H14.0645V21.6689Z" fill="#00C0F3"/>
<path d="M10.752 24.9814H14.0645V26.6377H10.752V24.9814Z" fill="#00C0F3"/>
<path d="M15.7207 24.9814H24.002V26.6377H15.7207V24.9814Z" fill="#00C0F3"/>
<path d="M25.6582 24.9814H27.3145V26.6377H25.6582V24.9814Z" fill="#00C0F3"/>
<path d="M10.752 28.2939H14.0645V29.9502H10.752V28.2939Z" fill="#00C0F3"/>
<path d="M15.7207 28.2939H24.002V29.9502H15.7207V28.2939Z" fill="#00C0F3"/>
<path d="M25.6582 28.2939H27.3145V29.9502H25.6582V28.2939Z" fill="#00C0F3"/>
<path d="M51.4477 10.9116L49.2266 10.5944C49.0765 10.1274 48.8885 9.67347 48.6643 9.23713L50.01 7.44341C50.1296 7.28394 50.1877 7.08668 50.1735 6.88786C50.1594 6.68904 50.074 6.50199 49.933 6.36105L47.5911 4.01912C47.4502 3.87839 47.2633 3.79314 47.0647 3.779C46.8661 3.76485 46.669 3.82276 46.5096 3.9421L44.715 5.28698C44.2786 5.06326 43.8247 4.87548 43.3577 4.72551L43.0405 2.50448C43.0123 2.30722 42.9138 2.12678 42.7632 1.99627C42.6126 1.86575 42.42 1.79392 42.2207 1.79395H38.9082C38.7089 1.79392 38.5163 1.86575 38.3657 1.99627C38.2151 2.12678 38.1167 2.30722 38.0884 2.50448L37.7712 4.72551C37.3042 4.87533 36.8502 5.06311 36.4139 5.28698L34.6193 3.9421C34.4599 3.82276 34.2629 3.76485 34.0642 3.779C33.8656 3.79314 33.6787 3.87839 33.5378 4.01912L31.1959 6.36105C31.0549 6.50199 30.9695 6.68904 30.9554 6.88786C30.9413 7.08668 30.9993 7.28394 31.1189 7.44341L32.4646 9.23713C32.2404 9.67347 32.0524 10.1274 31.9023 10.5944L29.6812 10.9116C29.484 10.9399 29.3035 11.0384 29.173 11.189C29.0425 11.3396 28.9707 11.5322 28.9707 11.7314V15.0439C28.9707 15.2432 29.0425 15.4358 29.173 15.5864C29.3035 15.737 29.484 15.8355 29.6812 15.8638L31.9023 16.181C32.0524 16.648 32.2404 17.1019 32.4646 17.5383L31.1189 19.332C30.9993 19.4915 30.9413 19.6887 30.9554 19.8875C30.9695 20.0863 31.0549 20.2734 31.1959 20.4143L33.5378 22.7563C33.6787 22.897 33.8656 22.9822 34.0642 22.9964C34.2629 23.0105 34.4599 22.9526 34.6193 22.8333L36.4139 21.4884C36.8502 21.7123 37.3042 21.9001 37.7712 22.0499L38.0884 24.2709C38.1167 24.4682 38.2151 24.6486 38.3657 24.7791C38.5163 24.9096 38.7089 24.9815 38.9082 24.9814H42.2207C42.42 24.9815 42.6126 24.9096 42.7632 24.7791C42.9138 24.6486 43.0123 24.4682 43.0405 24.2709L43.3577 22.0499C43.8247 21.8999 44.2786 21.7121 44.715 21.4884L46.5096 22.8333C46.669 22.9526 46.8661 23.0105 47.0647 22.9964C47.2633 22.9822 47.4502 22.897 47.5911 22.7563L49.933 20.4143C50.074 20.2734 50.1594 20.0863 50.1735 19.8875C50.1877 19.6887 50.1296 19.4915 50.01 19.332L48.6643 17.5383C48.8885 17.1019 49.0765 16.648 49.2266 16.181L51.4477 15.8638C51.6449 15.8355 51.8254 15.737 51.9559 15.5864C52.0864 15.4358 52.1582 15.2432 52.1582 15.0439V11.7314C52.1582 11.5322 52.0864 11.3396 51.9559 11.189C51.8254 11.0384 51.6449 10.9399 51.4477 10.9116ZM50.502 14.326L48.4623 14.6175C48.3002 14.6407 48.1486 14.7115 48.0267 14.8208C47.9048 14.9302 47.818 15.0733 47.7774 15.2319C47.6026 15.918 47.3301 16.5753 46.9683 17.1838C46.8847 17.3249 46.8448 17.4877 46.8538 17.6515C46.8628 17.8153 46.9203 17.9728 47.0189 18.1039L48.2544 19.7518L46.9294 21.0768L45.2806 19.8413C45.1495 19.743 44.9922 19.6858 44.8286 19.6769C44.6649 19.6681 44.5023 19.708 44.3614 19.7916C43.7534 20.1534 43.0962 20.4254 42.4103 20.599C42.2513 20.6394 42.1078 20.7261 41.9981 20.8482C41.8884 20.9703 41.8174 21.1222 41.7942 21.2847L41.5027 23.3252H39.6262L39.3355 21.2855C39.3123 21.123 39.2414 20.9711 39.1317 20.849C39.022 20.7269 38.8785 20.6402 38.7194 20.5998C38.0335 20.4262 37.3763 20.1542 36.7683 19.7924C36.6274 19.7088 36.4648 19.6689 36.3012 19.6778C36.1375 19.6866 35.9802 19.7438 35.8491 19.8421L34.2003 21.0777L32.8753 19.7527L34.1109 18.1047C34.2095 17.9736 34.2669 17.8161 34.2759 17.6523C34.2849 17.4885 34.245 17.3258 34.1614 17.1846C33.7996 16.5761 33.5271 15.9188 33.3523 15.2328C33.3117 15.0741 33.225 14.931 33.1031 14.8217C32.9812 14.7123 32.8296 14.6415 32.6675 14.6183L30.627 14.326V12.4494L32.6666 12.1579C32.8287 12.1347 32.9803 12.0639 33.1022 11.9546C33.2241 11.8452 33.3109 11.7021 33.3515 11.5435C33.5263 10.8574 33.7988 10.2001 34.1606 9.59157C34.2442 9.45046 34.2841 9.28767 34.2751 9.12387C34.2661 8.96007 34.2086 8.80263 34.11 8.67152L32.8745 7.02355L34.1995 5.69855L35.8483 6.93412C35.9794 7.03242 36.1367 7.08961 36.3004 7.09845C36.464 7.1073 36.6266 7.0674 36.7675 6.9838C37.3755 6.62199 38.0327 6.35003 38.7186 6.17638C38.8777 6.13601 39.0212 6.04928 39.1309 5.92719C39.2406 5.80511 39.3115 5.65318 39.3347 5.4907L39.6262 3.4502H41.5027L41.7934 5.48987C41.8166 5.65235 41.8875 5.80428 41.9972 5.92636C42.1069 6.04845 42.2504 6.13518 42.4095 6.17555C43.0954 6.34921 43.7526 6.62116 44.3606 6.98298C44.5015 7.06657 44.6641 7.10647 44.8277 7.09763C44.9914 7.08878 45.1487 7.03159 45.2798 6.93329L46.9286 5.69773L48.2536 7.02273L47.018 8.6707C46.9194 8.8018 46.862 8.95924 46.853 9.12304C46.844 9.28684 46.8839 9.44963 46.9675 9.59074C47.3293 10.1993 47.6018 10.8566 47.7766 11.5426C47.8172 11.7013 47.9039 11.8444 48.0258 11.9537C48.1477 12.0631 48.2993 12.1339 48.4615 12.1571L50.502 12.4494V14.326Z" fill="#00C0F3"/>
<path d="M40.5645 8.41895C39.5817 8.41895 38.6211 8.71036 37.804 9.25633C36.9869 9.8023 36.35 10.5783 35.9739 11.4862C35.5979 12.3942 35.4995 13.3932 35.6912 14.357C35.8829 15.3209 36.3561 16.2062 37.051 16.9011C37.7459 17.596 38.6313 18.0693 39.5951 18.261C40.5589 18.4527 41.558 18.3543 42.4659 17.9782C43.3738 17.6021 44.1498 16.9653 44.6958 16.1482C45.2418 15.3311 45.5332 14.3704 45.5332 13.3877C45.5319 12.0703 45.008 10.8072 44.0764 9.87571C43.1449 8.94417 41.8818 8.42026 40.5645 8.41895ZM40.5645 16.7002C39.9093 16.7002 39.2689 16.5059 38.7241 16.1419C38.1794 15.778 37.7548 15.2606 37.5041 14.6553C37.2534 14.0501 37.1878 13.384 37.3156 12.7415C37.4434 12.0989 37.7589 11.5087 38.2222 11.0454C38.6854 10.5821 39.2757 10.2667 39.9182 10.1388C40.5608 10.011 41.2268 10.0766 41.8321 10.3273C42.4374 10.5781 42.9547 11.0026 43.3187 11.5474C43.6827 12.0921 43.877 12.7325 43.877 13.3877C43.877 14.2662 43.528 15.1088 42.9067 15.73C42.2855 16.3512 41.443 16.7002 40.5645 16.7002Z" fill="#00C0F3"/>
<path d="M43.877 33.2627H4.12695V12.5596C4.12695 11.9007 4.3887 11.2688 4.85461 10.8029C5.32052 10.3369 5.95243 10.0752 6.61133 10.0752H29.7988V8.41895H6.61133C5.51357 8.42026 4.46115 8.85693 3.68492 9.63316C2.90868 10.4094 2.47202 11.4618 2.4707 12.5596V37.4033C2.47202 38.5011 2.90868 39.5535 3.68492 40.3297C4.46115 41.106 5.51357 41.5426 6.61133 41.5439H17.2668L16.6457 46.5127H14.8926C14.4533 46.5127 14.032 46.6872 13.7214 46.9978C13.4108 47.3084 13.2363 47.7297 13.2363 48.1689V49.8252C13.2363 50.2645 13.4108 50.6857 13.7214 50.9963C14.032 51.3069 14.4533 51.4814 14.8926 51.4814H33.1113C33.5506 51.4814 33.9719 51.3069 34.2825 50.9963C34.5931 50.6857 34.7676 50.2645 34.7676 49.8252V48.1689C34.7676 47.7297 34.5931 47.3084 34.2825 46.9978C33.9719 46.6872 33.5506 46.5127 33.1113 46.5127H31.3582L30.7371 41.5439H41.3926C42.4903 41.5426 43.5428 41.106 44.319 40.3297C45.0952 39.5535 45.5319 38.5011 45.5332 37.4033V24.1533H43.877V33.2627ZM33.1113 49.8252H14.8926V48.1689H33.1113V49.8252ZM29.6887 46.5127H18.3152L18.9363 41.5439H29.0676L29.6887 46.5127ZM41.3926 39.8877H6.61133C5.95243 39.8877 5.32052 39.6259 4.85461 39.16C4.3887 38.6941 4.12695 38.0622 4.12695 37.4033V34.9189H43.877V37.4033C43.877 38.0622 43.6152 38.6941 43.1493 39.16C42.6834 39.6259 42.0515 39.8877 41.3926 39.8877Z" fill="#00C0F3"/>
<path d="M38.9082 36.5752H40.5645V38.2314H38.9082V36.5752Z" fill="#00C0F3"/>
</svg>
