<svg width="50" height="51" viewBox="0 0 50 51" fill="none" xmlns="http://www.w3.org/2000/svg">
<path d="M46.7405 11.5752H2.29943C1.87647 11.5752 1.5332 11.2252 1.5332 10.7939V6.10645C1.5332 4.81426 2.56454 3.7627 3.83188 3.7627H45.2081C46.4754 3.7627 47.5068 4.81426 47.5068 6.10645V10.7939C47.5068 11.2252 47.1635 11.5752 46.7405 11.5752ZM3.06565 10.0127H45.9743V6.10645C45.9743 5.67676 45.6295 5.3252 45.2081 5.3252H3.83188C3.41046 5.3252 3.06565 5.67676 3.06565 6.10645V10.0127Z" fill="#00C0F3"/>
<path d="M11.4947 8.4502C11.9179 8.4502 12.261 8.10042 12.261 7.66895C12.261 7.23747 11.9179 6.8877 11.4947 6.8877C11.0716 6.8877 10.7285 7.23747 10.7285 7.66895C10.7285 8.10042 11.0716 8.4502 11.4947 8.4502Z" fill="#00C0F3"/>
<path d="M8.42834 8.4502C8.85151 8.4502 9.19456 8.10042 9.19456 7.66895C9.19456 7.23747 8.85151 6.8877 8.42834 6.8877C8.00516 6.8877 7.66211 7.23747 7.66211 7.66895C7.66211 8.10042 8.00516 8.4502 8.42834 8.4502Z" fill="#00C0F3"/>
<path d="M5.36388 8.4502C5.78706 8.4502 6.13011 8.10042 6.13011 7.66895C6.13011 7.23747 5.78706 6.8877 5.36388 6.8877C4.94071 6.8877 4.59766 7.23747 4.59766 7.66895C4.59766 8.10042 4.94071 8.4502 5.36388 8.4502Z" fill="#00C0F3"/>
<path d="M9.96124 19.3877H5.36388C4.94093 19.3877 4.59766 19.0377 4.59766 18.6064C4.59766 18.1752 4.94093 17.8252 5.36388 17.8252H9.96124C10.3842 17.8252 10.7275 18.1752 10.7275 18.6064C10.7275 19.0377 10.3842 19.3877 9.96124 19.3877Z" fill="#00C0F3"/>
<path d="M14.5586 16.2627H5.36388C4.94093 16.2627 4.59766 15.9127 4.59766 15.4814C4.59766 15.0502 4.94093 14.7002 5.36388 14.7002H14.5586C14.9816 14.7002 15.3248 15.0502 15.3248 15.4814C15.3248 15.9127 14.9816 16.2627 14.5586 16.2627Z" fill="#00C0F3"/>
<path d="M9.96169 44.3877H3.83188C2.56454 44.3877 1.5332 43.3361 1.5332 42.0439V6.10645C1.5332 4.81426 2.56454 3.7627 3.83188 3.7627H45.2081C46.4754 3.7627 47.5068 4.81426 47.5068 6.10645V19.3877C47.5068 19.8189 47.1635 20.1689 46.7405 20.1689C46.3176 20.1689 45.9743 19.8189 45.9743 19.3877V6.10645C45.9743 5.6752 45.6295 5.3252 45.2081 5.3252H3.83188C3.41046 5.3252 3.06565 5.6752 3.06565 6.10645V42.0439C3.06565 42.4752 3.41046 42.8252 3.83188 42.8252H9.96169C10.3846 42.8252 10.7279 43.1752 10.7279 43.6064C10.7279 44.0377 10.3846 44.3877 9.96169 44.3877Z" fill="#00C0F3"/>
<path d="M45.1884 35.9206C45.1102 35.9206 45.029 35.9081 44.9524 35.8831L30.4125 31.069C30.1811 30.9924 29.9987 30.8081 29.9221 30.5737C29.8454 30.3393 29.8822 30.0815 30.0217 29.8784L38.6095 17.3721C38.844 17.0284 39.3037 16.9377 39.6501 17.1612C44.0896 20.0534 46.7392 24.9752 46.7392 30.3252C46.7392 32.0627 46.4603 33.769 45.9132 35.394C45.8044 35.7174 45.5071 35.9206 45.1884 35.9206ZM31.8698 29.9081L44.6888 34.1518C45.0336 32.9143 45.2067 31.6299 45.2067 30.3252C45.2067 25.7612 43.0613 21.5424 39.4309 18.8971L31.8698 29.9081Z" fill="#00C0F3"/>
<path d="M24.5198 47.5127C16.0699 47.5127 9.19531 40.5034 9.19531 31.8877C9.19531 23.5565 15.5718 16.694 23.7153 16.2627C23.8946 16.2518 24.1291 16.3284 24.2823 16.4768C24.4325 16.6252 24.5198 16.8299 24.5198 17.044V31.3206L38.5188 35.9549C38.7149 36.0206 38.8758 36.1612 38.9678 36.3487C39.0597 36.5362 39.0735 36.7534 39.0061 36.9518C36.8821 43.269 31.0603 47.5127 24.5198 47.5127ZM22.9874 17.8909C16.0515 18.6706 10.7278 24.6659 10.7278 31.8877C10.7278 39.6409 16.9143 45.9502 24.5198 45.9502C30.1455 45.9502 35.1796 42.4612 37.2836 37.1877L23.5176 32.6299C23.2019 32.5268 22.9874 32.2268 22.9874 31.8877V17.8909Z" fill="#00C0F3"/>
<path d="M26.819 30.3252C26.7469 30.3252 26.6749 30.3158 26.6044 30.2939C26.2765 30.1971 26.0527 29.8908 26.0527 29.5439V17.8908C26.0527 17.4596 26.396 17.1096 26.819 17.1096C27.2419 17.1096 27.5852 17.4596 27.5852 17.8908V26.8674L33.5786 17.2846C31.5205 16.1018 29.2004 15.4814 26.819 15.4814C26.396 15.4814 26.0527 15.1314 26.0527 14.7002C26.0527 14.2689 26.396 13.9189 26.819 13.9189C29.7505 13.9189 32.5994 14.7658 35.0605 16.3689C35.416 16.6002 35.5218 17.0846 35.2934 17.4471L27.4657 29.9643C27.3216 30.1939 27.0764 30.3252 26.819 30.3252Z" fill="#00C0F3"/>
</svg>
