<svg width="51" height="51" viewBox="0 0 51 51" fill="none" xmlns="http://www.w3.org/2000/svg">
<path d="M24.8049 49.2247C23.6638 49.2247 22.5673 48.721 21.8023 47.7935L18.6929 44.0115C18.5558 43.8442 18.3502 43.7469 18.1335 43.7469H12.1473C8.03547 43.7469 4.62485 40.6614 4.21685 36.5719L2.30435 17.4469C1.9585 13.9821 3.8471 10.8137 6.86725 9.42234C7.7725 9.00478 8.83394 9.51478 9.02519 10.4933L9.06344 10.6878C9.19891 11.3811 8.80366 12.0329 8.16456 12.3357C6.37956 13.182 5.27031 15.0674 5.47591 17.1281L7.39 36.2531C7.63385 38.7075 9.68181 40.5578 12.1473 40.5578H18.1335C19.3017 40.5578 20.4093 41.0806 21.152 41.9843L24.263 45.7662C24.5451 46.1057 24.8846 46.0531 25.0631 45.9878C25.2416 45.924 25.5428 45.7535 25.546 45.3104L25.5524 44.4402C25.5683 42.3046 27.3262 40.5578 29.4618 40.5578H38.8554C41.3114 40.5578 43.3673 38.6979 43.6112 36.2531L45.5252 17.1265C45.7261 15.1136 44.6471 13.241 42.9131 12.374C42.2931 12.0648 41.9218 11.4177 42.07 10.7404L42.1178 10.5236C42.3314 9.55144 43.404 9.06056 44.2965 9.50044C47.2146 10.938 49.0347 14.0713 48.6984 17.4437L46.7843 36.5687C46.3763 40.6583 42.9673 43.7438 38.8554 43.7438H29.4618C29.0666 43.7438 28.7431 44.0657 28.7399 44.4609L28.7351 45.1415C28.7239 46.6922 27.8984 48.1903 26.4911 48.8422C25.9413 49.0972 25.3659 49.2199 24.8033 49.2199L24.8049 49.2247Z" fill="#00C0F3" stroke="white"/>
<path d="M21.498 5.56714H24.6855V15.2269H21.498V5.56714Z" fill="#00C0F3" stroke="white"/>
<path d="M21.0703 22.0672C20.1906 22.0672 19.4766 21.4251 19.4766 20.6339V15.8464H22.6641V20.6339C22.6641 21.4251 21.9501 22.0672 21.0703 22.0672Z" fill="#00C0F3" stroke="white"/>
<path d="M34.2708 19.1472C33.9233 19.1472 33.5727 19.1105 33.2253 19.0324L23.1034 16.782C22.9886 16.7565 22.8723 16.7438 22.7575 16.7438H16.7363C14.1003 16.7438 11.9551 14.5986 11.9551 11.9625V8.77821C11.9551 6.14215 14.1003 3.99696 16.7363 3.99696H22.7575C22.8739 3.99696 22.9902 3.98421 23.1034 3.96031L33.2253 1.70834C34.6485 1.38959 36.1179 1.73384 37.2543 2.64546C38.3922 3.55709 39.044 4.91656 39.044 6.37484V14.3643C39.044 15.8226 38.3922 17.1821 37.2543 18.0937C36.3952 18.7838 35.3465 19.1472 34.2708 19.1472ZM33.9154 15.9214C34.3903 16.025 34.8796 15.915 35.2605 15.609C35.6382 15.3062 35.8565 14.852 35.8565 14.3659V6.37643C35.8565 5.89034 35.6382 5.43612 35.2605 5.13331C34.8812 4.8289 34.3887 4.71415 33.9154 4.82093L23.7935 7.0729C23.4556 7.14781 23.1065 7.18606 22.7575 7.18606H16.7363C15.8566 7.18606 15.1426 7.90165 15.1426 8.77981V11.9641C15.1426 12.8423 15.8566 13.5579 16.7363 13.5579H22.7575C23.105 13.5579 23.4556 13.5961 23.795 13.6726L33.9154 15.923V15.9214Z" fill="#00C0F3" stroke="white"/>
<path d="M29.7461 26.9998H13.8086C12.9284 26.9998 12.2148 27.7133 12.2148 28.5935C12.2148 29.4737 12.9284 30.1873 13.8086 30.1873H29.7461C30.6263 30.1873 31.3398 29.4737 31.3398 28.5935C31.3398 27.7133 30.6263 26.9998 29.7461 26.9998Z" fill="#00C0F3" stroke="white"/>
<path d="M21.8875 33.1038H15.6543C14.7741 33.1038 14.0605 33.8173 14.0605 34.6975C14.0605 35.5777 14.7741 36.2913 15.6543 36.2913H21.8875C22.7677 36.2913 23.4812 35.5777 23.4812 34.6975C23.4812 33.8173 22.7677 33.1038 21.8875 33.1038Z" fill="#00C0F3" stroke="white"/>
<path d="M35.3445 33.1038H29.1113C28.2311 33.1038 27.5176 33.8173 27.5176 34.6975C27.5176 35.5777 28.2311 36.2913 29.1113 36.2913H35.3445C36.2247 36.2913 36.9382 35.5777 36.9382 34.6975C36.9382 33.8173 36.2247 33.1038 35.3445 33.1038Z" fill="#00C0F3" stroke="white"/>
<path d="M36.6895 30.1873C37.5697 30.1873 38.2832 29.4737 38.2832 28.5935C38.2832 27.7133 37.5697 26.9998 36.6895 26.9998C35.8092 26.9998 35.0957 27.7133 35.0957 28.5935C35.0957 29.4737 35.8092 30.1873 36.6895 30.1873Z" fill="#00C0F3" stroke="white"/>
</svg>
