<svg width="51" height="48" viewBox="0 0 51 48" fill="none" xmlns="http://www.w3.org/2000/svg">
<g clip-path="url(#clip0_683_4035)">
<path d="M47.0178 11.3259H41.9435V5.82297C41.9435 4.11293 40.5525 2.72168 38.8426 2.72168H3.86221C1.7326 2.72168 0 4.45418 0 6.58389V29.5197C0 31.6494 1.7326 33.3819 3.86221 33.3819H8.73983V38.5606C8.73983 38.989 9.01431 39.3691 9.42095 39.5038C9.5237 39.5379 9.62924 39.5544 9.73348 39.5544C10.0415 39.5544 10.3395 39.4109 10.5306 39.1543L14.8307 33.3819H17.8731V38.1239C17.8731 40.2535 19.6057 41.986 21.7352 41.986H36.0492L40.3493 47.7584C40.5405 48.0151 40.8385 48.1586 41.1464 48.1586C41.2507 48.1586 41.3561 48.1421 41.459 48.108C41.8656 47.9733 42.1401 47.5931 42.1401 47.1648V41.986H47.0177C49.1474 41.986 50.8799 40.2534 50.8799 38.1239V15.188C50.88 13.0584 49.1474 11.3259 47.0178 11.3259ZM14.3319 31.3944C14.0179 31.3944 13.7225 31.5427 13.5349 31.7944L10.7273 35.5632V32.3882C10.7273 31.8395 10.2823 31.3944 9.73358 31.3944H3.86221C2.82851 31.3944 1.9875 30.5534 1.9875 29.5197V6.58389C1.9875 5.55019 2.82851 4.70918 3.86221 4.70918H38.8426C39.4565 4.70918 39.956 5.20884 39.956 5.82297V29.5197C39.956 30.5534 39.115 31.3944 38.0813 31.3944H14.3319ZM48.8925 38.1239C48.8925 39.1575 48.0515 39.9985 47.0178 39.9985H41.1464C40.5977 39.9985 40.1527 40.4435 40.1527 40.9923V44.1673L37.3451 40.3986C37.1575 40.1468 36.8622 39.9985 36.5481 39.9985H21.7353C20.7017 39.9985 19.8607 39.1575 19.8607 38.1239V33.3819H38.0814C40.2111 33.3819 41.9436 31.6493 41.9436 29.5197V13.3134H47.0179C48.0516 13.3134 48.8926 14.1544 48.8926 15.188V38.1239H48.8925ZM28.4353 17.1912L15.4999 9.72305C15.1925 9.54546 14.8136 9.54546 14.5062 9.72305C14.1987 9.90053 14.0093 10.2287 14.0093 10.5836V25.5201C14.0093 25.8751 14.1987 26.2032 14.5062 26.3807C14.6599 26.4695 14.8314 26.5138 15.003 26.5138C15.1747 26.5138 15.3462 26.4695 15.4999 26.3807L28.4353 18.9125C28.7427 18.735 28.9321 18.4068 28.9321 18.0519C28.9321 17.6969 28.7426 17.3687 28.4353 17.1912ZM15.9968 23.7988V12.3048L25.9509 18.0518L15.9968 23.7988Z" fill="#00C0F3"/>
</g>
<defs>
<clipPath id="clip0_683_4035">
<rect width="50.88" height="48" fill="white"/>
</clipPath>
</defs>
</svg>
