<svg width="47" height="48" viewBox="0 0 47 48" fill="none" xmlns="http://www.w3.org/2000/svg">
<g clip-path="url(#clip0_804_6095)">
<path d="M45.8537 42.432H41.8057V16.5818C41.8057 15.9495 41.2914 15.4351 40.6594 15.4351H35.2901C34.9103 15.4351 34.6024 15.7431 34.6024 16.1231C34.6024 16.5031 34.9103 16.8111 35.2901 16.8111H40.4302V42.432H33.8973V16.8111H34.81C35.1899 16.8111 35.4978 16.5031 35.4978 16.1231C35.4978 15.7431 35.1899 15.4351 34.81 15.4351H33.6681C33.036 15.4351 32.5218 15.9495 32.5218 16.5818V42.4321H28.1421V25.2929C28.1421 24.6606 27.6278 24.1461 26.9958 24.1461H20.0044C19.3724 24.1461 18.8581 24.6606 18.8581 25.2929V42.432H14.4783V32.8183C14.4783 32.186 13.964 31.6715 13.332 31.6715H6.34069C5.70866 31.6715 5.19442 32.186 5.19442 32.8183V39.5687C5.19442 39.9488 5.5023 40.2568 5.88216 40.2568C6.26202 40.2568 6.5699 39.9488 6.5699 39.5687V33.0477H13.1027V42.4321H6.5699V39.095C6.5699 38.7149 6.26202 38.4069 5.88216 38.4069C5.5023 38.4069 5.19442 38.7149 5.19442 39.095V42.4321H1.14627C0.514246 42.432 0 42.9465 0 43.5789V46.7525C0 47.3848 0.514246 47.8993 1.14627 47.8993H45.8537C46.4858 47.8993 47 47.3848 47 46.7525V43.5789C47 42.9465 46.4858 42.432 45.8537 42.432ZM20.2336 25.5223H26.7665V42.4321H20.2336V25.5223ZM45.6244 46.5232H1.37558V43.8083H5.88225H13.7906H19.5459H27.4543H33.2095H41.1179H45.6245L45.6244 46.5232Z" fill="#00C0F3" stroke="#00C0F3" stroke-width="0.3"/>
<path d="M5.71404 25.2966L5.3206 27.5915C5.2109 28.2314 5.46894 28.8659 5.99393 29.2475C6.29061 29.4632 6.6377 29.5728 6.98708 29.5728C7.25604 29.5728 7.52638 29.5078 7.77625 29.3765L9.83627 28.293L11.8963 29.3765C12.4706 29.6785 13.1534 29.6291 13.6786 29.2476C14.2036 28.8659 14.4616 28.2314 14.3519 27.5915L13.9585 25.2966L15.6251 23.6714C16.0897 23.2183 16.2539 22.5532 16.0534 21.9358C15.8528 21.3182 15.3294 20.8767 14.6872 20.7833L12.384 20.4485L11.354 18.3606C11.0668 17.7783 10.4853 17.4167 9.83627 17.4167C9.18736 17.4167 8.60582 17.7784 8.31868 18.3606L7.28872 20.4485L4.98545 20.7833C4.34324 20.8767 3.81981 21.3182 3.61923 21.9358C3.41875 22.5533 3.58279 23.2183 4.04747 23.6713L5.71404 25.2966ZM4.92743 22.361C4.94579 22.3046 5.00729 22.1708 5.18327 22.1451L7.59165 21.795C7.9738 21.7396 8.30399 21.4995 8.47501 21.153L9.55216 18.9696C9.63083 18.8101 9.77706 18.7928 9.83627 18.7928C9.89548 18.7928 10.0417 18.81 10.1205 18.9696L11.1976 21.1529C11.3685 21.4994 11.6987 21.7395 12.0808 21.795L14.4894 22.1451C14.6653 22.1708 14.7268 22.3046 14.7452 22.361C14.7636 22.4173 14.7924 22.5618 14.665 22.6859L12.9223 24.3854C12.6456 24.655 12.5195 25.0434 12.5849 25.4242L12.9963 27.8241C13.0263 27.9994 12.9181 28.0994 12.8702 28.1342C12.8221 28.169 12.6936 28.2412 12.5365 28.1582L10.3822 27.0252C10.2113 26.9353 10.0237 26.8904 9.83627 26.8904C9.64882 26.8904 9.46128 26.9353 9.29035 27.0252L7.13606 28.1582C6.97863 28.2411 6.8503 28.169 6.80238 28.1342C6.75446 28.0993 6.64623 27.9994 6.67625 27.8241L7.08769 25.4243C7.15305 25.0434 7.02683 24.655 6.75042 24.3855L5.00757 22.686C4.88025 22.5618 4.90907 22.4173 4.92743 22.361Z" fill="#00C0F3" stroke="#00C0F3" stroke-width="0.3"/>
<path d="M19.3782 16.925L18.9848 19.22C18.8751 19.8599 19.1331 20.4944 19.658 20.8759C19.9547 21.0916 20.3018 21.2011 20.6513 21.2011C20.9203 21.2011 21.1906 21.1362 21.4405 21.0049L23.5005 19.9214L25.5605 21.0049C26.1349 21.3071 26.8178 21.2576 27.343 20.8759C27.868 20.4944 28.1259 19.8598 28.0162 19.22L27.6227 16.925L29.2894 15.2998C29.754 14.8467 29.9181 14.1816 29.7176 13.5642C29.5171 12.9467 28.9936 12.5052 28.3513 12.4118L26.0482 12.077L25.0182 9.98897C24.7309 9.40682 24.1494 9.04517 23.5005 9.04517C22.8516 9.04517 22.27 9.40682 21.9828 9.98897L20.9528 12.077L18.6496 12.4118C18.0074 12.5052 17.4839 12.9467 17.2834 13.5642C17.0828 14.1815 17.2468 14.8467 17.7116 15.2999L19.3782 16.925ZM18.5915 13.9894C18.6099 13.933 18.6714 13.7993 18.8474 13.7737L21.2561 13.4235C21.6382 13.3678 21.9682 13.128 22.1391 12.7815L23.2163 10.598C23.2949 10.4385 23.4412 10.4213 23.5004 10.4213C23.5596 10.4213 23.7058 10.4385 23.7845 10.598L24.8618 12.7818C25.0327 13.128 25.3628 13.3678 25.7449 13.4235L28.1535 13.7737C28.3295 13.7993 28.391 13.9332 28.4093 13.9895C28.4276 14.0459 28.4564 14.1902 28.3291 14.3144L26.5862 16.014C26.3098 16.2836 26.1838 16.6718 26.249 17.0527L26.6604 19.4526C26.6904 19.6279 26.5822 19.7278 26.5343 19.7626C26.4864 19.7973 26.3578 19.8697 26.2005 19.7867L24.0463 18.6537C23.8755 18.5638 23.6879 18.5188 23.5004 18.5188C23.3129 18.5188 23.1254 18.5638 22.9545 18.6536L20.8002 19.7867C20.6427 19.8696 20.5143 19.7973 20.4665 19.7626C20.4186 19.7278 20.3104 19.6279 20.3405 19.4526L20.7519 17.0527C20.8172 16.672 20.6911 16.2837 20.4145 16.0139L18.6717 14.3145C18.5445 14.1902 18.5733 14.0459 18.5915 13.9894Z" fill="#00C0F3" stroke="#00C0F3" stroke-width="0.3"/>
<path d="M33.0423 7.98045L32.6488 10.2754C32.539 10.9152 32.7971 11.5498 33.3221 11.9314C33.8471 12.3129 34.5299 12.3623 35.1045 12.0603L37.1645 10.9768L39.2245 12.0603C39.4744 12.1916 39.7447 12.2566 40.0138 12.2566C40.3632 12.2566 40.7103 12.147 41.0069 11.9314C41.532 11.5498 41.7899 10.9152 41.6802 10.2754L41.2867 7.98045L42.9533 6.35522C43.4181 5.9021 43.5821 5.23701 43.3816 4.61969C43.1811 4.00218 42.6576 3.56063 42.0154 3.46723L39.7122 3.1323L38.6822 1.04439C38.3949 0.462239 37.8134 0.100586 37.1645 0.100586C36.5156 0.100586 35.934 0.462239 35.6468 1.04439L34.6168 3.1323L32.3137 3.46723C31.6715 3.56053 31.1479 4.00209 30.9474 4.6196C30.7469 5.23692 30.9109 5.9021 31.3756 6.35522L33.0423 7.98045ZM32.2556 5.04489C32.2739 4.9885 32.3354 4.8547 32.5115 4.82908L34.9198 4.4789C35.3022 4.42343 35.6325 4.18346 35.8032 3.83696L36.8804 1.65355C36.9591 1.49402 37.1054 1.47685 37.1645 1.47685C37.2236 1.47685 37.37 1.49402 37.4486 1.65355L38.5258 3.83706C38.6968 4.18346 39.027 4.42352 39.4089 4.4789L41.8176 4.82908C41.9936 4.8547 42.0551 4.9886 42.0734 5.04489C42.0917 5.10128 42.1205 5.24565 41.9932 5.36981L40.2502 7.06953C39.9739 7.33916 39.8478 7.72735 39.913 8.1082L40.3244 10.508C40.3544 10.6834 40.2462 10.7833 40.1983 10.8181C40.1505 10.853 40.0219 10.9251 39.8645 10.8422L37.7103 9.70919C37.5394 9.61928 37.3518 9.57428 37.1644 9.57428C36.9769 9.57428 36.7894 9.61928 36.6186 9.7091L34.4643 10.8422C34.3069 10.9251 34.1784 10.8528 34.1305 10.8181C34.0826 10.7832 33.9745 10.6834 34.0044 10.508L34.4158 8.10838C34.4812 7.72763 34.3551 7.33934 34.0786 7.06943L32.3357 5.36981C32.2084 5.24565 32.2373 5.10119 32.2556 5.04489Z" fill="#00C0F3" stroke="#00C0F3" stroke-width="0.3"/>
</g>
<defs>
<clipPath id="clip0_804_6095">
<rect width="47" height="48" fill="white"/>
</clipPath>
</defs>
</svg>
