<svg width="23" height="23" viewBox="0 0 23 23" fill="none" xmlns="http://www.w3.org/2000/svg">
<path d="M11.5 22.8174C17.8403 22.8174 23 17.882 23 11.8174C23 5.75273 17.8404 0.817383 11.5 0.817383C5.15961 0.817383 0 5.75273 0 11.8174C0 17.882 5.15968 22.8174 11.5 22.8174ZM11.5 2.28402C16.997 2.28402 21.4667 6.55934 21.4667 11.8174C21.4667 17.0754 16.997 21.3507 11.5 21.3507C6.00296 21.3507 1.53331 17.0754 1.53331 11.8174C1.53331 6.55934 6.00302 2.28402 11.5 2.28402Z" fill="#00C0F3"/>
<path d="M14.4782 14.4161C14.6302 14.5192 14.8109 14.5674 14.9916 14.5674C15.234 14.5674 15.4722 14.478 15.6324 14.3096C15.9158 14.0139 15.8583 13.5808 15.5051 13.3436L11.7055 10.7999V5.62987C11.7055 5.25174 11.3359 4.94238 10.884 4.94238C10.4322 4.94238 10.0625 5.25174 10.0625 5.62987V11.1299C10.0625 11.3396 10.1775 11.5355 10.3706 11.6661L14.4782 14.4161Z" fill="#00C0F3"/>
</svg>
