<svg width="24" height="24" viewBox="0 0 24 24" fill="none" xmlns="http://www.w3.org/2000/svg">
<g clip-path="url(#clip0_1028_1104)">
<path d="M21.4785 4.23145H2.52148C1.40459 4.23145 0.5 5.14165 0.5 6.25293V18.3818C0.5 19.4997 1.41124 20.4033 2.52148 20.4033H21.4785C22.5861 20.4033 23.5 19.5035 23.5 18.3818V6.25293C23.5 5.14363 22.599 4.23145 21.4785 4.23145ZM21.1954 5.5791C20.7824 5.98991 13.6748 13.0601 13.4294 13.3042C13.0476 13.686 12.54 13.8963 12 13.8963C11.46 13.8963 10.9524 13.686 10.5693 13.3029C10.4043 13.1387 3.37513 6.14664 2.80458 5.5791H21.1954ZM1.84766 18.1075V6.52808L7.67124 12.321L1.84766 18.1075ZM2.80544 19.0557L8.62673 13.2714L9.61766 14.2571C10.254 14.8935 11.1001 15.2439 12 15.2439C12.8999 15.2439 13.746 14.8935 14.3811 14.2584L15.3733 13.2714L21.1946 19.0557H2.80544ZM22.1523 18.1075L16.3288 12.321L22.1523 6.52808V18.1075Z" fill="#00C0F3"/>
</g>
<defs>
<clipPath id="clip0_1028_1104">
<rect width="23" height="23" fill="white" transform="translate(0.5 0.817383)"/>
</clipPath>
</defs>
</svg>
