<svg width="29" height="29" viewBox="0 0 29 29" fill="none" xmlns="http://www.w3.org/2000/svg">
<path d="M14.5 7.81738C13.6038 7.81738 12.7277 8.07397 11.9826 8.5547C11.2374 9.03544 10.6566 9.71872 10.3137 10.5181C9.97071 11.3176 9.88098 12.1972 10.0558 13.0459C10.2307 13.8946 10.6622 14.6741 11.2959 15.286C11.9296 15.8978 12.737 16.3145 13.616 16.4833C14.495 16.6521 15.4061 16.5655 16.234 16.2344C17.062 15.9032 17.7697 15.3425 18.2676 14.623C18.7655 13.9035 19.0312 13.0577 19.0312 12.1924C19.0312 11.0321 18.5539 9.91926 17.7041 9.09879C16.8543 8.27832 15.7018 7.81738 14.5 7.81738ZM14.5 14.8174C13.9623 14.8174 13.4366 14.6634 12.9895 14.375C12.5424 14.0866 12.194 13.6766 11.9882 13.1969C11.7824 12.7173 11.7286 12.1895 11.8335 11.6803C11.9384 11.1711 12.1973 10.7033 12.5776 10.3362C12.9578 9.96911 13.4422 9.71911 13.9696 9.61782C14.497 9.51654 15.0436 9.56852 15.5404 9.7672C16.0372 9.96588 16.4618 10.3023 16.7606 10.734C17.0593 11.1657 17.2188 11.6732 17.2188 12.1924C17.2188 12.8886 16.9323 13.5563 16.4224 14.0485C15.9126 14.5408 15.2211 14.8174 14.5 14.8174ZM14.5 2.56738C11.857 2.57028 9.32319 3.58527 7.45434 5.38968C5.58549 7.19409 4.53425 9.64056 4.53125 12.1924C4.53125 15.6268 6.17496 19.2668 9.28906 22.7197C10.6883 24.28 12.2632 25.685 13.9846 26.9088C14.1369 27.0119 14.3185 27.0671 14.5045 27.0671C14.6906 27.0671 14.8721 27.0119 15.0245 26.9088C16.7427 25.6845 18.3145 24.2795 19.7109 22.7197C22.8205 19.2668 24.4688 15.6268 24.4688 12.1924C24.4658 9.64056 23.4145 7.19409 21.5457 5.38968C19.6768 3.58527 17.143 2.57028 14.5 2.56738ZM14.5 25.0986C12.6275 23.6768 6.34375 18.4541 6.34375 12.1924C6.34375 10.1038 7.20307 8.10077 8.73266 6.62392C10.2623 5.14707 12.3368 4.31738 14.5 4.31738C16.6632 4.31738 18.7377 5.14707 20.2673 6.62392C21.7969 8.10077 22.6562 10.1038 22.6562 12.1924C22.6562 18.4519 16.3725 23.6768 14.5 25.0986Z" fill="#00C0F3"/>
</svg>
