<svg width="26" height="26" viewBox="0 0 26 26" fill="none" xmlns="http://www.w3.org/2000/svg">
<g clip-path="url(#clip0_1028_1083)">
<path d="M25.4756 7.48483C25.417 6.15649 25.2022 5.24326 24.8945 4.45194C24.577 3.61197 24.0887 2.85995 23.4488 2.23479C22.8237 1.5999 22.0667 1.10656 21.2364 0.794074C20.4405 0.486359 19.5321 0.271549 18.2037 0.212982C16.8655 0.149455 16.4406 0.134766 13.0464 0.134766C9.65217 0.134766 9.22732 0.149455 7.89401 0.208022C6.56567 0.266589 5.65244 0.481589 4.86131 0.789114C4.02115 1.10656 3.26913 1.59494 2.64397 2.23479C2.00908 2.85995 1.51593 3.61693 1.20325 4.44717C0.895538 5.24326 0.680729 6.15153 0.622162 7.47987C0.558635 8.81814 0.543945 9.24299 0.543945 12.6372C0.543945 16.0314 0.558635 16.4563 0.617202 17.7896C0.675769 19.1179 0.890769 20.0312 1.19848 20.8225C1.51593 21.6624 2.00908 22.4145 2.64397 23.0396C3.26913 23.6745 4.02611 24.1679 4.85635 24.4803C5.65244 24.7881 6.56071 25.0029 7.88924 25.0614C9.22236 25.1202 9.6474 25.1347 13.0416 25.1347C16.4358 25.1347 16.8607 25.1202 18.194 25.0614C19.5223 25.0029 20.4356 24.7881 21.2267 24.4803C22.9068 23.8308 24.2352 22.5024 24.8848 20.8225C25.1923 20.0264 25.4073 19.1179 25.4658 17.7896C25.5244 16.4563 25.5391 16.0314 25.5391 12.6372C25.5391 9.24299 25.5341 8.81814 25.4756 7.48483ZM23.2243 17.6919C23.1705 18.9128 22.9654 19.5722 22.7945 20.0117C22.3744 21.1008 21.51 21.9652 20.4209 22.3853C19.9813 22.5562 19.3173 22.7613 18.1011 22.8149C16.7825 22.8737 16.387 22.8882 13.0513 22.8882C9.7157 22.8882 9.31527 22.8737 8.00142 22.8149C6.78048 22.7613 6.12117 22.5562 5.68163 22.3853C5.13965 22.185 4.64631 21.8675 4.24588 21.4524C3.83076 21.047 3.51331 20.5586 3.313 20.0167C3.14207 19.5771 2.93699 18.9128 2.88338 17.6969C2.82463 16.3783 2.81013 15.9826 2.81013 12.6469C2.81013 9.31129 2.82463 8.91086 2.88338 7.5972C2.93699 6.37626 3.14207 5.71695 3.313 5.27741C3.51331 4.73524 3.83076 4.24209 4.25084 3.84147C4.65604 3.42635 5.14442 3.1089 5.68659 2.90878C6.12613 2.73785 6.7904 2.53277 8.00638 2.47897C9.325 2.42041 9.72066 2.40572 13.0561 2.40572C16.3967 2.40572 16.7922 2.42041 18.106 2.47897C19.327 2.53277 19.9863 2.73785 20.4258 2.90878C20.9678 3.1089 21.4612 3.42635 21.8616 3.84147C22.2767 4.24686 22.5942 4.73524 22.7945 5.27741C22.9654 5.71695 23.1705 6.38103 23.2243 7.5972C23.2828 8.91582 23.2975 9.31129 23.2975 12.6469C23.2975 15.9826 23.2828 16.3733 23.2243 17.6919Z" fill="#00C0F3" stroke="#3D4147" stroke-width="0.4"/>
<path d="M13.0462 6.21484C9.50068 6.21484 6.62402 9.09131 6.62402 12.637C6.62402 16.1827 9.50068 19.0591 13.0462 19.0591C16.5919 19.0591 19.4683 16.1827 19.4683 12.637C19.4683 9.09131 16.5919 6.21484 13.0462 6.21484ZM13.0462 16.8029C10.746 16.8029 8.88029 14.9373 8.88029 12.637C8.88029 10.3367 10.746 8.47111 13.0462 8.47111C15.3465 8.47111 17.2121 10.3367 17.2121 12.637C17.2121 14.9373 15.3465 16.8029 13.0462 16.8029Z" fill="#00C0F3" stroke="#3D4147" stroke-width="0.4"/>
<path d="M21.2224 5.96119C21.2224 6.78914 20.5511 7.46047 19.7229 7.46047C18.895 7.46047 18.2236 6.78914 18.2236 5.96119C18.2236 5.13305 18.895 4.46191 19.7229 4.46191C20.5511 4.46191 21.2224 5.13305 21.2224 5.96119Z" fill="#00C0F3" stroke="#3D4147" stroke-width="0.4"/>
</g>
<defs>
<clipPath id="clip0_1028_1083">
<rect width="25" height="25" fill="white" transform="translate(0.5 0.134766)"/>
</clipPath>
</defs>
</svg>
