<svg width="252" height="55" viewBox="0 0 252 55" fill="none" xmlns="http://www.w3.org/2000/svg">
<path d="M132.559 41.588C133.796 41.588 134.743 41.9383 135.423 42.6594C136.124 43.3805 136.453 44.3901 136.453 45.6881C136.453 46.9861 136.124 47.9956 135.423 48.7168C134.764 49.4379 133.796 49.8087 132.559 49.8087H129.86V41.588H132.559ZM130.643 49.1082H132.518C133.528 49.1082 134.311 48.7992 134.846 48.2223C135.403 47.6248 135.67 46.7801 135.67 45.7087C135.67 44.5961 135.403 43.772 134.846 43.1745C134.311 42.577 133.528 42.2886 132.518 42.2886H130.643V49.1082ZM137.69 43.669H138.431V49.8087H137.69V43.669ZM138.06 42.4534C137.916 42.4534 137.793 42.4122 137.71 42.3092C137.611 42.2188 137.552 42.0929 137.545 41.9589C137.545 41.8147 137.607 41.6911 137.71 41.588C137.793 41.485 137.916 41.4438 138.06 41.4438C138.205 41.4438 138.328 41.485 138.411 41.588C138.514 41.6911 138.576 41.8147 138.576 41.9589C138.576 42.0825 138.514 42.2062 138.411 42.3092C138.328 42.4122 138.205 42.4534 138.06 42.4534ZM142.263 49.1494C142.861 49.1494 143.335 48.9228 143.706 48.4695C144.077 48.0369 144.262 47.4394 144.262 46.7183C144.262 45.9971 144.077 45.3997 143.706 44.9464C143.535 44.728 143.316 44.5527 143.066 44.4346C142.815 44.3165 142.54 44.2589 142.263 44.2665C141.687 44.2665 141.213 44.4931 140.842 44.9464C140.492 45.3997 140.306 45.9971 140.306 46.7183C140.306 47.46 140.492 48.0369 140.842 48.4901C141.192 48.9434 141.666 49.1494 142.263 49.1494ZM142.305 51.9515C141.645 51.9515 141.069 51.8073 140.636 51.4982C140.425 51.3817 140.244 51.2193 140.105 51.0232C139.966 50.827 139.873 50.6021 139.832 50.365H140.636C140.698 50.6535 140.904 50.8595 141.213 51.0243C141.522 51.1891 141.913 51.2716 142.367 51.2716C142.923 51.2716 143.397 51.1479 143.747 50.8801C143.912 50.7417 144.044 50.568 144.133 50.3719C144.222 50.1758 144.266 49.9623 144.262 49.7469V48.5107H144.241C144.056 48.9022 143.788 49.2318 143.417 49.4585C143.038 49.7071 142.593 49.8363 142.14 49.8293C141.357 49.8293 140.739 49.5409 140.265 48.964C139.771 48.4077 139.544 47.6454 139.544 46.7183C139.544 45.7911 139.771 45.0288 140.265 44.4725C140.739 43.8956 141.357 43.6072 142.14 43.6072C142.634 43.6072 143.067 43.7308 143.438 43.978C143.829 44.2047 144.097 44.5343 144.283 44.9464V43.669H145.004V49.6851C145.004 50.3856 144.756 50.9419 144.283 51.3334C143.788 51.7454 143.129 51.9515 142.305 51.9515ZM146.425 43.669H147.167V49.8087H146.425V43.669ZM146.796 42.4534C146.652 42.4534 146.528 42.4122 146.446 42.3092C146.347 42.2188 146.288 42.0929 146.281 41.9589C146.281 41.8147 146.343 41.6911 146.446 41.588C146.528 41.485 146.652 41.4438 146.796 41.4438C146.94 41.4438 147.064 41.485 147.146 41.588C147.249 41.6911 147.311 41.8147 147.311 41.9589C147.311 42.0825 147.249 42.2062 147.146 42.3092C147.064 42.4122 146.94 42.4534 146.796 42.4534ZM149.66 42.2061V43.669H150.896V44.3077H149.66V48.2635C149.66 48.5932 149.742 48.8198 149.866 48.964C149.99 49.1082 150.196 49.17 150.484 49.17C150.649 49.17 150.814 49.17 150.917 49.1494V49.8087C150.834 49.8293 150.628 49.8499 150.34 49.8499C149.825 49.8499 149.475 49.7263 149.248 49.4791C149.021 49.2318 148.918 48.8404 148.918 48.3047V44.3077H148.032V43.669H148.918V42.2061H149.66ZM153.863 49.2112C154.419 49.2112 154.873 49.0464 155.244 48.7168C155.614 48.3871 155.8 47.975 155.8 47.5012V46.8213L154.007 46.9449C152.957 47.0067 152.421 47.3982 152.421 48.0987C152.421 48.4283 152.565 48.6962 152.812 48.9022C153.08 49.1082 153.43 49.2112 153.863 49.2112ZM153.719 49.8705C153.101 49.8705 152.606 49.7057 152.215 49.3761C152.032 49.2183 151.888 49.0217 151.791 48.8006C151.695 48.5795 151.65 48.3396 151.659 48.0987C151.659 47.0273 152.4 46.4504 153.904 46.3268L155.8 46.2032V45.6881C155.8 45.2348 155.656 44.8846 155.388 44.6373C155.12 44.3901 154.728 44.2665 154.234 44.2665C153.801 44.2665 153.451 44.3695 153.183 44.5755C152.895 44.7816 152.73 45.07 152.648 45.4409H151.926C151.968 44.9052 152.194 44.4725 152.627 44.1222C153.06 43.772 153.595 43.6072 154.255 43.6072C154.955 43.6072 155.511 43.7926 155.923 44.1429C156.335 44.5137 156.542 45.0082 156.542 45.6263V49.8087H155.82V48.6344C155.656 49.0052 155.367 49.3143 154.996 49.5409C154.605 49.7675 154.172 49.8705 153.719 49.8705ZM157.922 41.2378H158.684V49.8087H157.922V41.2378ZM170.675 49.8087H169.954V43.0715H169.913L167.07 49.7675H166.39L163.526 43.0715H163.505V49.8087H162.764V41.588H163.67L166.699 48.7786H166.74L169.789 41.588H170.675V49.8087ZM174.095 49.2112C174.631 49.2112 175.105 49.0464 175.476 48.7168C175.847 48.3871 176.032 47.975 176.032 47.5012V46.8213L174.24 46.9449C173.189 47.0067 172.653 47.3982 172.653 48.0987C172.653 48.4283 172.777 48.6962 173.045 48.9022C173.313 49.1082 173.663 49.2112 174.095 49.2112ZM173.931 49.8705C173.333 49.8705 172.839 49.7057 172.447 49.3761C172.265 49.2183 172.12 49.0217 172.024 48.8006C171.928 48.5795 171.882 48.3396 171.891 48.0987C171.891 47.0273 172.633 46.4504 174.137 46.3268L176.032 46.2032V45.6881C176.032 45.2348 175.888 44.8846 175.62 44.6373C175.352 44.3901 174.961 44.2665 174.466 44.2665C174.034 44.2665 173.683 44.3695 173.416 44.5755C173.127 44.7816 172.942 45.07 172.88 45.4409H172.159C172.179 44.9052 172.427 44.4725 172.859 44.1222C173.292 43.772 173.828 43.6072 174.466 43.6072C175.187 43.6072 175.744 43.7926 176.156 44.1429C176.568 44.5137 176.774 45.0082 176.774 45.6263V49.8087H176.053V48.6344C175.867 49.0052 175.599 49.3143 175.229 49.5409C174.837 49.7675 174.405 49.8705 173.931 49.8705ZM178.092 43.669H178.814V44.7609H178.834C178.937 44.3901 179.123 44.1016 179.39 43.8956C179.602 43.759 179.839 43.6682 180.088 43.6292C180.336 43.5901 180.59 43.6037 180.833 43.669V44.4107C180.655 44.3434 180.466 44.3153 180.276 44.3283C179.844 44.3283 179.494 44.4725 179.246 44.8022C178.978 45.1112 178.855 45.5027 178.855 45.9971V49.8087H178.092V43.669ZM185.592 43.669H186.519L183.758 46.3268L186.581 49.8087H185.695L183.223 46.7801L182.522 47.4188V49.8087H181.76V41.2378H182.522V46.5946L185.592 43.669ZM189.486 44.2665C189.231 44.2563 188.977 44.3028 188.742 44.4025C188.506 44.5023 188.296 44.6528 188.126 44.8434C187.776 45.2142 187.57 45.6881 187.529 46.3062H191.361C191.34 45.6881 191.176 45.2142 190.825 44.8434C190.659 44.6533 190.453 44.5028 190.221 44.403C189.989 44.3032 189.738 44.2565 189.486 44.2665ZM192.061 48.0781C191.958 48.5931 191.691 49.0258 191.217 49.3555C190.763 49.7057 190.187 49.8705 189.527 49.8705C188.683 49.8705 188.003 49.6027 187.508 49.0464C187.014 48.4695 186.746 47.7072 186.746 46.7595C186.746 45.7911 187.014 45.0288 187.508 44.4725C188.003 43.8956 188.662 43.6072 189.486 43.6072C190.29 43.6072 190.928 43.875 191.423 44.4107C191.897 44.9464 192.144 45.6881 192.144 46.5946V46.9243H187.529V46.9655C187.529 47.6454 187.714 48.2017 188.085 48.6138C188.456 49.0052 188.95 49.2112 189.548 49.2112C190.001 49.2112 190.393 49.1082 190.702 48.8816C191.011 48.6756 191.217 48.4077 191.32 48.0781H192.061ZM194.266 42.2061V43.669H195.502V44.3077H194.266V48.2635C194.266 48.5932 194.348 48.8198 194.472 48.964C194.596 49.1082 194.802 49.17 195.09 49.17C195.255 49.17 195.42 49.17 195.523 49.1494V49.8087C195.44 49.8293 195.255 49.8499 194.946 49.8499C194.431 49.8499 194.081 49.7263 193.854 49.4791C193.627 49.2318 193.524 48.8404 193.524 48.3047V44.3077H192.638V43.669H193.524V42.2061H194.266ZM196.656 43.669H197.398V49.8087H196.656V43.669ZM197.027 42.4534C196.962 42.456 196.896 42.4445 196.836 42.4196C196.775 42.3947 196.721 42.357 196.677 42.3092C196.577 42.2188 196.518 42.0929 196.512 41.9589C196.512 41.8147 196.574 41.6911 196.677 41.588C196.78 41.485 196.883 41.4438 197.027 41.4438C197.171 41.4438 197.295 41.485 197.398 41.588C197.48 41.6911 197.542 41.8147 197.542 41.9589C197.542 42.0825 197.48 42.2062 197.398 42.3092C197.295 42.4122 197.171 42.4534 197.027 42.4534ZM198.819 43.669H199.52V44.8227H199.54C199.911 43.9986 200.591 43.6072 201.601 43.6072C202.281 43.6072 202.816 43.8132 203.228 44.2047C203.62 44.6167 203.826 45.173 203.826 45.8529V49.8087H203.064V45.9765C203.064 45.4409 202.919 45.0288 202.631 44.7197C202.342 44.4313 201.93 44.2665 201.395 44.2665C200.859 44.2665 200.406 44.4519 200.076 44.8022C199.732 45.1862 199.547 45.6875 199.561 46.2032V49.8087H198.819V43.669ZM207.576 49.1494C208.153 49.1494 208.647 48.9228 209.018 48.4695C209.368 48.0369 209.554 47.4394 209.554 46.7183C209.554 45.9971 209.368 45.3997 209.018 44.9464C208.846 44.7296 208.627 44.5554 208.376 44.4374C208.126 44.3195 207.852 44.261 207.576 44.2665C206.978 44.2665 206.504 44.4931 206.154 44.9464C205.783 45.3997 205.618 45.9971 205.618 46.7183C205.618 47.46 205.783 48.0369 206.154 48.4901C206.504 48.9434 206.978 49.1494 207.576 49.1494ZM207.617 51.9515C206.937 51.9515 206.381 51.8073 205.927 51.4982C205.722 51.3776 205.546 51.2137 205.411 51.018C205.276 50.8223 205.185 50.5995 205.145 50.365H205.927C206.01 50.6535 206.195 50.8595 206.504 51.0243C206.813 51.1891 207.205 51.2716 207.658 51.2716C208.235 51.2716 208.688 51.1479 209.039 50.8801C209.207 50.7448 209.342 50.5717 209.431 50.3749C209.521 50.178 209.562 49.9629 209.554 49.7469V48.5107C209.368 48.9022 209.1 49.2318 208.729 49.4585C208.359 49.7057 207.926 49.8293 207.431 49.8293C206.669 49.8293 206.03 49.5409 205.557 48.964C205.083 48.4077 204.835 47.6454 204.835 46.7183C204.835 45.7911 205.083 45.0288 205.557 44.4725C206.03 43.8956 206.669 43.6072 207.452 43.6072C207.926 43.6072 208.359 43.7308 208.75 43.978C209.121 44.2047 209.409 44.5343 209.574 44.9464H209.595V43.669H210.316V49.6851C210.316 50.3856 210.069 50.9419 209.574 51.3334C209.1 51.7454 208.441 51.9515 207.617 51.9515ZM218.887 47.2951H215.446L214.54 49.8087H213.715L216.785 41.588H217.548L220.618 49.8087H219.814L218.887 47.2951ZM215.673 46.6152H218.66L217.177 42.5564H217.156L215.673 46.6152ZM223.708 49.1494C224.306 49.1494 224.779 48.9228 225.15 48.4695C225.521 48.0369 225.707 47.4394 225.707 46.7183C225.707 45.9971 225.521 45.3997 225.15 44.9464C224.98 44.728 224.761 44.5527 224.51 44.4346C224.26 44.3165 223.985 44.2589 223.708 44.2665C223.131 44.2665 222.657 44.4931 222.286 44.9464C221.936 45.3997 221.751 45.9971 221.751 46.7183C221.751 47.46 221.936 48.0369 222.286 48.4901C222.657 48.9434 223.111 49.1494 223.708 49.1494ZM223.77 51.9515C223.09 51.9515 222.513 51.8073 222.08 51.4982C221.87 51.3843 221.689 51.2223 221.553 51.0253C221.417 50.8284 221.33 50.6022 221.297 50.365H222.08C222.142 50.6535 222.348 50.8595 222.657 51.0243C222.966 51.1891 223.358 51.2716 223.811 51.2716C224.388 51.2716 224.841 51.1479 225.191 50.8801C225.356 50.7417 225.488 50.568 225.578 50.3719C225.667 50.1758 225.711 49.9623 225.707 49.7469V48.5107H225.686C225.501 48.9022 225.233 49.2318 224.862 49.4585C224.483 49.7071 224.038 49.8363 223.584 49.8293C222.801 49.8293 222.183 49.5409 221.71 48.964C221.215 48.4077 220.988 47.6454 220.988 46.7183C220.988 45.7911 221.215 45.0288 221.71 44.4725C222.183 43.8956 222.822 43.6072 223.605 43.6072C224.079 43.6072 224.512 43.7308 224.903 43.978C225.274 44.2047 225.542 44.5343 225.727 44.9464V43.669H226.448V49.6851C226.448 50.3856 226.201 50.9419 225.727 51.3334C225.233 51.7454 224.573 51.9515 223.77 51.9515ZM230.219 44.2665C229.964 44.2605 229.711 44.3089 229.477 44.4083C229.242 44.5078 229.031 44.6561 228.859 44.8434C228.509 45.2142 228.323 45.6881 228.282 46.3062H232.094C232.094 45.6881 231.908 45.2142 231.578 44.8434C231.408 44.6528 231.198 44.5023 230.963 44.4025C230.728 44.3028 230.474 44.2563 230.219 44.2665ZM232.794 48.0781C232.712 48.5931 232.444 49.0258 231.97 49.3555C231.496 49.7057 230.94 49.8705 230.28 49.8705C229.436 49.8705 228.756 49.6027 228.261 49.0464C227.746 48.4695 227.499 47.7072 227.499 46.7595C227.499 45.7911 227.746 45.0288 228.241 44.4725C228.756 43.8956 229.415 43.6072 230.239 43.6072C231.043 43.6072 231.681 43.875 232.176 44.4107C232.65 44.9464 232.876 45.6881 232.876 46.5946V46.9243H228.282V46.9655C228.282 47.6454 228.467 48.2017 228.838 48.6138C229.188 49.0052 229.683 49.2112 230.301 49.2112C230.754 49.2112 231.125 49.1082 231.455 48.8816C231.764 48.6756 231.97 48.4077 232.052 48.0781H232.794ZM233.927 43.669H234.648V44.8227H234.669C235.019 43.9986 235.72 43.6072 236.729 43.6072C237.409 43.6072 237.945 43.8132 238.336 44.2047C238.748 44.6167 238.934 45.173 238.934 45.8529V49.8087H238.192V45.9765C238.192 45.4409 238.048 45.0288 237.739 44.7197C237.45 44.4313 237.038 44.2665 236.523 44.2665C235.967 44.2665 235.534 44.4519 235.205 44.8022C234.854 45.173 234.69 45.6263 234.69 46.2032V49.8087H233.927V43.669ZM244.497 45.6057C244.425 45.2304 244.22 44.8936 243.92 44.6579C243.576 44.3979 243.156 44.2601 242.725 44.2665C242.127 44.2665 241.633 44.4931 241.283 44.9464C240.912 45.3997 240.726 45.9971 240.726 46.7388C240.726 47.5012 240.912 48.0987 241.283 48.5313C241.633 48.9846 242.127 49.1906 242.725 49.1906C243.199 49.1906 243.59 49.0876 243.899 48.861C244.208 48.6343 244.414 48.3253 244.497 47.9132H245.259C245.156 48.4901 244.888 48.964 244.435 49.3349C243.961 49.6851 243.405 49.8705 242.725 49.8705C241.901 49.8705 241.221 49.6027 240.726 49.0258C240.211 48.4695 239.964 47.7072 239.964 46.7388C239.964 45.7911 240.211 45.0288 240.726 44.4519C241.221 43.8956 241.88 43.6072 242.725 43.6072C243.405 43.6072 243.982 43.7926 244.455 44.2047C244.909 44.5755 245.177 45.0288 245.238 45.6057H244.497ZM246.681 51.9515C246.557 51.9515 246.433 51.9309 246.31 51.8897V51.251C246.413 51.2716 246.536 51.2922 246.681 51.2922C246.948 51.2922 247.175 51.2098 247.361 51.0449C247.525 50.8801 247.69 50.6123 247.814 50.2208L247.958 49.8499L245.65 43.669H246.454L248.329 49.0464H248.349L250.245 43.669H251.028L248.638 50.0972C248.37 50.8183 248.102 51.3128 247.834 51.56C247.567 51.8073 247.175 51.9515 246.681 51.9515Z" fill="white"/>
<path d="M76.9925 25.719H69.3487L67.6799 30.9934H63.0029L70.5643 9.21578H75.9212L83.5031 30.9934H78.6614L76.9925 25.719ZM70.3171 22.2988H76.0242L73.2221 13.3776H73.1191L70.3171 22.2988ZM95.7621 14.3666H100.789L94.3816 21.5159L101.078 30.9934H96.0093L91.1469 24.1737L89.9519 25.4511V30.9934H85.5429V8.16501H89.9519V21.1039H90.0138L95.7621 14.3666ZM117.972 30.9934H113.707V27.9853H113.625C112.739 30.1693 111.008 31.2406 108.392 31.2406C106.579 31.2406 105.116 30.6844 104.024 29.5718C102.911 28.4592 102.355 26.9552 102.355 25.0391V14.3666H106.764V24.1119C106.764 25.2245 107.053 26.0692 107.65 26.6873C108.227 27.2848 109.031 27.5733 110.061 27.5733C111.111 27.5733 111.936 27.223 112.595 26.5431C113.234 25.8632 113.563 24.9566 113.563 23.8441V14.3666H117.972V30.9934ZM127.161 31.1994C125.08 31.1994 123.432 30.4371 122.217 28.8919C120.98 27.3672 120.342 25.2863 120.342 22.6697C120.342 20.0737 120.98 18.0134 122.217 16.4681C123.453 14.9435 125.101 14.1812 127.182 14.1812C128.356 14.1812 129.407 14.449 130.314 15.0053C131.2 15.541 131.838 16.2827 132.271 17.2098H132.353V8.16501H136.762V30.9934H132.415V28.1708H132.333C131.921 29.0773 131.261 29.819 130.355 30.3753C129.428 30.911 128.377 31.1994 127.161 31.1994ZM128.624 17.7455C127.47 17.7455 126.564 18.1782 125.884 19.0641C125.204 19.9707 124.874 21.1657 124.874 22.6903C124.874 24.1943 125.204 25.4099 125.884 26.2959C126.564 27.1818 127.47 27.6351 128.624 27.6351C129.757 27.6351 130.664 27.1818 131.364 26.2959C132.044 25.3893 132.395 24.1943 132.395 22.6903C132.395 21.1863 132.044 19.9913 131.364 19.0847C130.664 18.1988 129.757 17.7455 128.624 17.7455ZM139.915 14.3666H144.324V30.9934H139.915V14.3666ZM142.119 12.5535C141.46 12.5535 140.904 12.3475 140.45 11.8942C139.977 11.4615 139.75 10.9052 139.75 10.2459C139.75 9.60724 139.977 9.05097 140.45 8.5977C140.904 8.16503 141.46 7.95898 142.119 7.95898C142.779 7.95898 143.355 8.16503 143.809 8.5977C144.283 9.05097 144.509 9.60724 144.509 10.2459C144.509 10.9052 144.283 11.4615 143.809 11.8942C143.355 12.3475 142.779 12.5535 142.119 12.5535ZM147.394 14.3666H151.659V17.3541H151.741C152.709 15.2113 154.502 14.14 157.098 14.14C158.932 14.14 160.374 14.6756 161.445 15.7882C162.475 16.8802 163.011 18.4048 163.011 20.3415V30.9934H158.602V21.2687C158.602 20.1561 158.313 19.3114 157.757 18.7139C157.18 18.0958 156.377 17.8073 155.326 17.8073C154.275 17.8073 153.43 18.137 152.792 18.8375C152.132 19.5174 151.803 20.4033 151.803 21.5159V30.9934H147.394V14.3666ZM173.519 31.2818C170.984 31.2818 168.986 30.5195 167.523 28.9949C166.06 27.4702 165.319 25.3481 165.319 22.6903C165.319 20.0325 166.06 17.931 167.544 16.3857C169.007 14.8611 171.005 14.0781 173.519 14.0781C176.032 14.0781 178.031 14.8611 179.494 16.3857C180.977 17.931 181.719 20.0325 181.719 22.6903C181.719 25.3687 180.977 27.4702 179.514 29.0155C178.051 30.5195 176.053 31.2818 173.519 31.2818ZM173.519 27.8823C174.693 27.8823 175.6 27.429 176.259 26.5225C176.898 25.616 177.227 24.3386 177.227 22.6903C177.227 21.042 176.898 19.7646 176.238 18.8375C175.579 17.9309 174.672 17.4777 173.519 17.4777C172.344 17.4777 171.438 17.9309 170.778 18.8375C170.119 19.7646 169.789 21.042 169.789 22.6903C169.789 24.3386 170.119 25.616 170.778 26.5225C171.438 27.429 172.344 27.8823 173.519 27.8823ZM193.05 30.9934H188.106L182.337 14.3666H187.055L190.578 27.0582H190.661L194.184 14.3666H198.799L193.05 30.9934Z" fill="#00C0F3"/>
<path d="M211.078 10.6787V14.3667H214.168V17.7044H211.078V25.7809C211.078 27.0583 211.737 27.697 213.056 27.697C213.488 27.697 213.859 27.6764 214.168 27.6146V30.8699C213.55 30.9935 212.85 31.0553 212.026 31.0553C210.109 31.0553 208.729 30.7051 207.905 30.0045C207.081 29.304 206.669 28.1296 206.669 26.5226V17.7044H204.423V14.3667H206.669V10.6787H211.078ZM224.037 31.2819C221.503 31.2819 219.504 30.5196 218.042 28.995C216.579 27.4703 215.837 25.3482 215.837 22.6698C215.837 20.0326 216.579 17.9311 218.062 16.3858C219.546 14.8612 221.524 14.0782 224.037 14.0782C226.551 14.0782 228.549 14.8612 230.012 16.3858C231.496 17.9311 232.237 20.0326 232.237 22.6698C232.237 25.3688 231.496 27.4703 230.033 29.0156C228.57 30.5196 226.571 31.2819 224.037 31.2819ZM224.037 27.8824C225.212 27.8824 226.118 27.4291 226.777 26.5226C227.416 25.6161 227.746 24.3386 227.746 22.6698C227.746 21.0421 227.416 19.7647 226.757 18.8376C226.098 17.931 225.191 17.4778 224.037 17.4778C222.863 17.4778 221.956 17.931 221.297 18.8376C220.638 19.7647 220.308 21.0421 220.308 22.6698C220.308 24.3386 220.638 25.6161 221.297 26.5226C221.956 27.4291 222.863 27.8824 224.037 27.8824ZM244.208 14.1813C246.33 14.1813 247.999 14.9436 249.214 16.4476C250.43 17.9723 251.027 20.0326 251.027 22.6698C251.027 25.3276 250.43 27.3879 249.214 28.9126C247.999 30.4372 246.35 31.1995 244.27 31.1995C241.777 31.1995 240.067 30.19 239.098 28.2121H239.016V36.2267H234.607V14.3667H238.954V17.2099H239.036C239.49 16.2828 240.169 15.5411 241.076 14.9848C242.003 14.4491 243.033 14.1813 244.208 14.1813ZM242.745 27.6352C243.899 27.6352 244.805 27.1819 245.485 26.296C246.186 25.3894 246.515 24.1944 246.515 22.6698C246.515 21.1864 246.186 19.9914 245.485 19.0848C244.805 18.1989 243.878 17.7456 242.745 17.7456C241.612 17.7456 240.705 18.1989 240.025 19.1054C239.345 20.012 238.995 21.207 238.995 22.6904C238.995 24.1944 239.345 25.3894 240.025 26.296C240.705 27.1819 241.612 27.6352 242.745 27.6352ZM201.147 31.1789C200.467 31.1789 199.89 30.9523 199.416 30.4784C198.942 30.0045 198.716 29.4277 198.716 28.7477C198.716 28.0678 198.942 27.4909 199.416 27.0377C199.89 26.5638 200.467 26.3166 201.147 26.3166C201.827 26.3166 202.404 26.5638 202.878 27.0377C203.331 27.4909 203.578 28.0678 203.578 28.7477C203.578 29.4277 203.331 30.0045 202.878 30.4784C202.404 30.9523 201.827 31.1789 201.147 31.1789Z" fill="white"/>
<path fill-rule="evenodd" clip-rule="evenodd" d="M53.806 32.3763L38.5788 32.3549L41.5777 38.3668L37.565 38.3882L34.6505 32.3549H19.6134L16.6566 38.5165L12.665 38.5379L15.7696 32.3763L0.584642 32.3549C0.901436 35.4571 2.37981 38.6877 3.62586 40.9769C16.0442 63.5908 51.2083 56.9157 53.806 32.3763ZM21.493 28.4398H32.792C32.3062 27.0277 28.0401 18.8337 27.1531 16.8226L21.493 28.4398ZM3.52026 14.1483C2.50652 15.9882 0.479044 20.7592 0.500164 23.3265H20.437L27.0475 9.74106L30.49 16.4589L33.9113 23.3265H53.9116C53.8904 20.9945 51.9686 16.0524 51.0182 14.405C39.9938 -4.25089 14.5024 -5.25643 3.52026 14.1483Z" fill="#00C0F3"/>
</svg>
