<svg width="27" height="29" viewBox="0 0 27 29" fill="none" xmlns="http://www.w3.org/2000/svg">
<path d="M14.5452 1.30814C14.4769 1.30886 14.4093 1.32409 14.3464 1.35297C14.2835 1.38184 14.2265 1.4238 14.1787 1.47642C14.1308 1.52904 14.0931 1.59131 14.0677 1.65965C14.0422 1.72799 14.0295 1.80107 14.0303 1.8747C14.0755 5.99359 14.299 8.894 15.8645 10.8358C17.43 12.7776 20.173 13.5114 24.8843 13.5669C24.957 13.5678 25.0291 13.5523 25.096 13.5213C25.1628 13.4904 25.2228 13.4446 25.2722 13.3871C25.3216 13.3296 25.3592 13.2616 25.3827 13.1874C25.4061 13.1132 25.4149 13.0346 25.4083 12.9566C24.8882 6.78736 20.3256 1.87222 14.597 1.31032C14.5798 1.30867 14.5625 1.30794 14.5452 1.30814ZM12.4084 1.31142C12.3951 1.31161 12.3819 1.31233 12.3687 1.31361C6.65636 1.89191 2.11045 6.7996 1.59195 12.9566C1.58541 13.0346 1.59415 13.1132 1.6176 13.1874C1.64105 13.2616 1.67868 13.3296 1.72807 13.3871C1.77746 13.4446 1.83751 13.4904 1.90433 13.5213C1.97115 13.5523 2.04327 13.5678 2.11601 13.5669C6.81345 13.5086 9.54923 12.7733 11.1094 10.8314C12.6695 8.88955 12.891 5.99171 12.9365 1.87798C12.9373 1.80315 12.9242 1.7289 12.8979 1.65962C12.8716 1.59034 12.8327 1.52744 12.7835 1.47462C12.7343 1.42181 12.6757 1.38016 12.6113 1.35212C12.5468 1.32409 12.4778 1.31025 12.4084 1.31142ZM15.116 2.54626C19.8499 3.30838 23.5636 7.31156 24.2637 12.4119C20.1039 12.293 17.8359 11.5733 16.6496 10.1019C15.4833 8.65524 15.191 6.16348 15.116 2.54626ZM11.8518 2.55064C11.7767 6.16254 11.4842 8.65231 10.3223 10.0986C9.14047 11.5696 6.8814 12.2892 2.73655 12.4108C3.43542 7.32269 7.13365 3.32565 11.8518 2.55064ZM2.11601 14.7022C2.04327 14.7013 1.97115 14.7168 1.90433 14.7478C1.83751 14.7787 1.77746 14.8245 1.72807 14.882C1.67868 14.9395 1.64105 15.0075 1.6176 15.0817C1.59415 15.1559 1.58541 15.2345 1.59195 15.3125C2.11099 21.47 6.65633 26.3778 12.3687 26.9555C12.4413 26.9627 12.5144 26.9534 12.5834 26.9282C12.6524 26.903 12.7157 26.8625 12.7692 26.8093C12.8227 26.7561 12.8653 26.6914 12.8941 26.6193C12.9229 26.5473 12.9373 26.4695 12.9365 26.3911C12.891 22.2774 12.6695 19.3796 11.1094 17.4377C9.54923 15.4957 6.81347 14.7602 2.11601 14.7022ZM24.8843 14.7022C20.173 14.7577 17.4299 15.4915 15.8645 17.4333C14.2991 19.3751 14.0758 22.2755 14.0303 26.3944C14.0294 26.4727 14.0439 26.5504 14.0726 26.6223C14.1014 26.6943 14.1438 26.759 14.1972 26.8122C14.2506 26.8654 14.3138 26.9059 14.3827 26.9311C14.4516 26.9564 14.5246 26.9658 14.597 26.9588C20.3251 26.3969 24.8877 21.4828 25.4083 15.3136C25.415 15.2355 25.4064 15.1567 25.383 15.0824C25.3596 15.0082 25.322 14.94 25.2726 14.8823C25.2232 14.8247 25.1631 14.7789 25.0962 14.7478C25.0293 14.7168 24.9571 14.7013 24.8843 14.7022ZM24.2637 15.8572C23.5631 20.9576 19.8495 24.9607 15.116 25.7228C15.1912 22.1056 15.4834 19.6138 16.6496 18.1672C17.8358 16.6958 20.1039 15.9761 24.2637 15.8572ZM2.73655 15.8583C6.88139 15.9797 9.14047 16.6995 10.3223 18.1705C11.4842 19.6168 11.7767 22.1065 11.8518 25.7185C7.13369 24.9439 3.43579 20.947 2.73655 15.8583Z" fill="#00C0F3" stroke="#00C0F3" stroke-width="0.3"/>
</svg>
