<svg width="28" height="28" viewBox="0 0 28 28" fill="none" xmlns="http://www.w3.org/2000/svg">
<g clip-path="url(#clip0_1028_1079)">
<path d="M26.9713 2.34692C26.5369 1.94893 25.9196 1.8163 25.36 2.00071L1.61962 9.82655C0.972617 10.0398 0.533867 10.6174 0.501858 11.2978C0.469901 11.9783 0.852489 12.5945 1.47655 12.8676L7.34773 15.4364C7.37636 15.5693 9.06181 23.3864 9.11913 23.6521C9.19269 23.9934 9.36593 24.2974 9.7329 24.3909C10.1041 24.4855 10.3664 24.2826 10.6433 24.0753C10.7975 23.9599 15.0002 20.8129 15.0002 20.8129L20.0938 24.9809C20.3905 25.2238 20.7531 25.3505 21.1228 25.3505C21.2988 25.3504 21.4765 25.3218 21.6494 25.2631C22.1855 25.0813 22.5829 24.6438 22.7125 24.0928L27.4568 3.92178C27.5916 3.34829 27.4057 2.7449 26.9713 2.34692ZM11.0228 16.9084C11.0199 16.9152 11.0171 16.923 11.0144 16.9322L10.0323 20.3636L8.93625 15.2802L16.4729 11.0929L11.2036 16.6024C11.1206 16.6892 11.0595 16.7942 11.0228 16.9084ZM11.3346 21.5767L11.7806 20.0181L12.2073 18.5274L13.7361 19.7784L11.3346 21.5767ZM25.9131 3.55865L21.1689 23.7297C21.1665 23.7397 21.1633 23.7535 21.1401 23.7613C21.1171 23.7691 21.106 23.7602 21.0981 23.7537L15.5245 19.1928C15.5244 19.1927 15.5242 19.1925 15.5241 19.1924L12.9417 17.0793L21.2381 8.40457C21.509 8.12122 21.5322 7.68242 21.2926 7.37208C21.053 7.06169 20.6226 6.97304 20.2799 7.16352L7.99541 13.9889L2.11221 11.4147C2.09428 11.4069 2.08442 11.4026 2.08584 11.3722C2.08726 11.342 2.09749 11.3386 2.11606 11.3325L25.8564 3.5067C25.8679 3.50296 25.8809 3.49863 25.9 3.51604C25.9191 3.53354 25.9159 3.54683 25.9131 3.55865Z" fill="#00C0F3"/>
</g>
<defs>
<clipPath id="clip0_1028_1079">
<rect width="27" height="27" fill="white" transform="translate(0.5 0.134766)"/>
</clipPath>
</defs>
</svg>
