<svg width="26" height="26" viewBox="0 0 26 26" fill="none" xmlns="http://www.w3.org/2000/svg">
<g clip-path="url(#clip0_1028_1087)">
<path d="M10.0306 25.1348C8.21073 25.1348 6.49442 24.5542 5.06717 23.4556C4.80057 23.2505 4.54422 23.0264 4.30496 22.79C2.63895 21.1436 1.80057 18.9507 1.94461 16.6152C2.0535 14.8501 2.76444 13.1484 3.94754 11.8237C5.51444 10.0693 7.67459 9.10303 10.031 9.10303C10.4358 9.10303 10.8445 9.1333 11.2469 9.19287L11.8719 9.28564V14.832L10.9095 14.5142C10.6292 14.4214 10.3377 14.3745 10.0428 14.3745C9.29764 14.3745 8.59989 14.6665 8.07791 15.1963C7.55838 15.7236 7.2786 16.4209 7.28934 17.1606C7.3035 18.1143 7.80594 18.9785 8.63309 19.4736C9.01395 19.7012 9.44754 19.8345 9.88797 19.8589C10.2356 19.8779 10.5789 19.8325 10.909 19.7236C12.0374 19.3511 12.7957 18.3042 12.7957 17.1191L12.8006 11.3672V0.134766H18.1014L18.1077 0.860352C18.1106 1.18896 18.1443 1.51758 18.2078 1.83594C18.4568 3.08789 19.159 4.20361 20.1848 4.97705C21.0955 5.66406 22.1824 6.02686 23.3269 6.02686C23.3538 6.02686 23.3538 6.02686 23.5984 6.04395L24.2796 6.0918V10.584V11.3164L24.0354 11.3159H23.5486C23.5447 11.3159 23.5408 11.3159 23.5364 11.3159H23.3025C23.3015 11.3159 23.3001 11.3159 23.2986 11.3159C21.887 11.3159 20.5642 11.0469 19.2532 10.4937C18.8626 10.3286 18.4822 10.1401 18.115 9.92969L18.1316 17.147C18.1228 19.2817 17.2791 21.2842 15.7561 22.7896C14.5203 24.0107 12.9607 24.791 11.2459 25.0449C10.846 25.1045 10.4373 25.1348 10.0306 25.1348ZM10.0306 10.5679C8.09744 10.5679 6.32498 11.3604 5.03983 12.7993C4.07498 13.8799 3.49491 15.2671 3.40604 16.7051C3.28885 18.6118 3.97342 20.4028 5.33426 21.7476C5.53104 21.9419 5.74149 22.126 5.96024 22.2944C7.12918 23.1943 8.5369 23.6699 10.0306 23.6699C10.3655 23.6699 10.7019 23.645 11.0315 23.5962C12.4363 23.3882 13.7141 22.749 14.7268 21.748C15.971 20.5186 16.6599 18.8843 16.6673 17.146L16.6443 7.06836L17.8274 7.98096C18.4383 8.45215 19.1101 8.84375 19.8235 9.14502C20.7986 9.55664 21.7815 9.78516 22.8142 9.83936V7.47363C21.5379 7.37793 20.3323 6.92432 19.3025 6.14746C17.989 5.15723 17.0901 3.72754 16.7708 2.12256C16.7366 1.9502 16.7088 1.77588 16.6883 1.6001H14.2649V11.3677L14.26 17.1196C14.26 18.9375 13.0979 20.543 11.368 21.1143C10.8636 21.2808 10.3387 21.3501 9.80741 21.3213C9.13065 21.2842 8.46463 21.0796 7.88065 20.7305C6.61453 19.9731 5.84549 18.6465 5.82401 17.1821C5.80741 16.0474 6.2366 14.9771 7.03348 14.168C7.8328 13.3564 8.90116 12.9097 10.0418 12.9097C10.1639 12.9097 10.2849 12.915 10.406 12.9253V10.5781C10.281 10.5713 10.1556 10.5679 10.0306 10.5679Z" fill="#00C0F3"/>
</g>
<defs>
<clipPath id="clip0_1028_1087">
<rect width="25" height="25" fill="white" transform="translate(0.5 0.134766)"/>
</clipPath>
</defs>
</svg>
