<svg width="31" height="30" viewBox="0 0 31 30" fill="none" xmlns="http://www.w3.org/2000/svg">
<g clip-path="url(#clip0_1028_1072)">
<path d="M15.6813 23.6973C20.0212 23.6973 18.4738 21.0413 18.8088 20.2777C18.8038 19.7073 18.7987 19.1588 18.8188 18.8253C19.0938 18.9002 19.7425 19.218 21.0825 20.4771C23.1512 22.495 23.68 23.6973 25.3512 23.6973H28.4275C29.4025 23.6973 29.91 23.307 30.1638 22.9795C30.4088 22.6629 30.6488 22.1071 30.3862 21.2419C29.7 19.1588 25.6975 15.5616 25.4487 15.1821C25.4862 15.1121 25.5462 15.019 25.5775 14.9707H25.575C26.365 13.9617 29.38 9.59481 29.8237 7.84756C29.825 7.84514 29.8263 7.84152 29.8263 7.83789C30.0662 7.04039 29.8463 6.52322 29.6187 6.23081C29.2763 5.79339 28.7313 5.57227 27.995 5.57227H24.9188C23.8888 5.57227 23.1075 6.07372 22.7125 6.98843C22.0513 8.61364 20.1938 11.9559 18.8013 13.1388C18.7587 11.4629 18.7875 10.1833 18.81 9.23231C18.855 7.37752 19 5.57227 17.0087 5.57227H12.1737C10.9262 5.57227 9.7325 6.88935 11.025 8.45293C12.155 9.82318 11.4312 10.5868 11.675 14.3883C10.725 13.4035 9.035 10.7439 7.84 7.34489C7.505 6.42535 6.9975 5.57347 5.56875 5.57347H2.4925C1.245 5.57347 0.5 6.23081 0.5 7.3316C0.5 9.80385 6.16125 23.6973 15.6813 23.6973ZM5.56875 7.38597C5.84 7.38597 5.8675 7.38597 6.06875 7.93818C7.2925 11.4218 10.0375 16.5766 12.0425 16.5766C13.5487 16.5766 13.5487 15.0843 13.5487 14.5224L13.5475 10.0491C13.465 8.56893 12.9075 7.83185 12.5413 7.38477L16.9263 7.3896C16.9287 7.41014 16.9013 12.3377 16.9387 13.5316C16.9387 15.2268 18.3312 16.1983 20.505 14.0717C22.7987 11.5692 24.385 7.82822 24.4487 7.67597C24.5425 7.45847 24.6238 7.38477 24.9188 7.38477H27.995H28.0075C28.0063 7.38839 28.0063 7.39202 28.005 7.39564C27.7237 8.66439 24.9475 12.7075 24.0188 13.9629C24.0037 13.9823 23.99 14.0028 23.9762 14.0233C23.5675 14.6686 23.235 15.3815 24.0325 16.3844C24.105 16.469 24.295 16.6672 24.57 16.9427C25.425 17.7958 28.3575 20.7127 28.6175 21.8727C28.445 21.8993 28.2575 21.8799 25.3512 21.886C24.7325 21.886 24.2487 20.9918 22.4025 19.1914C20.7425 17.6302 19.665 16.9922 18.6838 16.9922C16.7787 16.9922 16.9175 18.4869 16.935 20.2946C16.9412 22.2545 16.9288 21.6346 16.9425 21.7579C16.8313 21.8002 16.5125 21.8848 15.6813 21.8848C7.75 21.8848 2.585 9.71564 2.38625 7.3896C2.455 7.38356 3.40125 7.38718 5.56875 7.38597Z" fill="#00C0F3"/>
</g>
<defs>
<clipPath id="clip0_1028_1072">
<rect width="30" height="29" fill="white" transform="translate(0.5 0.134766)"/>
</clipPath>
</defs>
</svg>
