<svg width="29" height="30" viewBox="0 0 29 30" fill="none" xmlns="http://www.w3.org/2000/svg">
<g clip-path="url(#clip0_1028_1074)">
<path d="M18.8099 13.3317L12.624 9.82621C12.2683 9.62465 11.8479 9.63217 11.4993 9.84612C11.1505 10.0603 10.9424 10.4386 10.9424 10.8586V17.8094C10.9424 18.2274 11.1492 18.6051 11.4957 18.8195C11.6766 18.9314 11.8772 18.9876 12.0782 18.9876C12.2624 18.9876 12.4469 18.9405 12.6168 18.8458L18.8028 15.4007C19.17 15.196 19.3993 14.8006 19.401 14.3685C19.4025 13.9364 19.176 13.5393 18.8099 13.3317ZM12.5832 16.935V11.74L17.2064 14.3601L12.5832 16.935Z" fill="#00C0F3"/>
<path d="M28.294 8.83065L28.2927 8.81738C28.269 8.58395 28.0329 6.50772 27.0584 5.45168C25.9319 4.20957 24.6549 4.05868 24.0407 3.98633C23.9899 3.98035 23.9433 3.97482 23.9017 3.96907L23.8528 3.96376C20.1511 3.68498 14.5608 3.64693 14.5049 3.64671L14.4999 3.64648L14.495 3.64671C14.4391 3.64693 8.84878 3.68498 5.11381 3.96376L5.06447 3.96907C5.02473 3.9746 4.98094 3.97969 4.9333 3.98544C4.32619 4.05801 3.06283 4.20913 1.93319 5.49615C1.005 6.54091 0.736693 8.57267 0.709136 8.801L0.705932 8.83065C0.697601 8.92778 0.5 11.2401 0.5 13.5615V15.7315C0.5 18.0529 0.697601 20.3652 0.705932 20.4626L0.707427 20.4772C0.731139 20.7068 0.966978 22.745 1.93704 23.8015C2.99618 25.002 4.33537 25.1609 5.05571 25.2463C5.16957 25.2598 5.26762 25.2713 5.33448 25.2834L5.39921 25.2927C7.5365 25.5033 14.2376 25.6071 14.5217 25.6113L14.5303 25.6115L14.5388 25.6113C14.5948 25.6111 20.1849 25.573 23.8865 25.2943L23.9354 25.289C23.9822 25.2825 24.0348 25.2768 24.0924 25.2706C24.6961 25.2042 25.9527 25.0664 27.0667 23.7968C27.9949 22.7519 28.2634 20.7201 28.2908 20.492L28.294 20.4623C28.3023 20.365 28.5001 18.0529 28.5001 15.7315V13.5615C28.4999 11.2401 28.3023 8.928 28.294 8.83065ZM26.8591 15.7315C26.8591 17.8801 26.6779 20.0928 26.6608 20.296C26.5912 20.8555 26.3081 22.141 25.8559 22.6501C25.1586 23.4446 24.4424 23.5234 23.9194 23.5807C23.8562 23.5875 23.7976 23.5942 23.7447 23.601C20.1644 23.8692 14.7851 23.9103 14.5373 23.9119C14.2594 23.9077 7.65634 23.803 5.58421 23.6037C5.47804 23.5858 5.36332 23.572 5.24241 23.5579C4.6291 23.4851 3.78957 23.3855 3.144 22.6501L3.12883 22.6333C2.6845 22.1538 2.40957 20.9517 2.33971 20.3026C2.32668 20.149 2.14083 17.9102 2.14083 15.7315V13.5615C2.14083 11.4153 2.32156 9.20501 2.33907 8.9977C2.42217 8.33858 2.71056 7.13099 3.144 6.64291C3.86263 5.82427 4.62035 5.73356 5.1215 5.6736C5.16935 5.66785 5.214 5.66254 5.25523 5.65701C8.88766 5.38752 14.3055 5.34747 14.4999 5.34592C14.6943 5.34725 20.1103 5.38752 23.7105 5.65701C23.7547 5.66276 23.803 5.66851 23.8549 5.67471C24.3704 5.73555 25.1494 5.82759 25.8644 6.61746L25.8711 6.62476C26.3154 7.10422 26.5903 8.3273 26.6602 8.98951C26.6726 9.13443 26.8591 11.3782 26.8591 13.5615V15.7315Z" fill="#00C0F3"/>
</g>
<defs>
<clipPath id="clip0_1028_1074">
<rect width="28" height="29" fill="white" transform="translate(0.5 0.134766)"/>
</clipPath>
</defs>
</svg>
