<svg width="46" height="46" viewBox="0 0 46 46" fill="none" xmlns="http://www.w3.org/2000/svg">
<path d="M42.2657 42.4136V42.9136H42.7657H45.5V45.5001H0.5V42.9136H3.23438H3.73438V42.4136V10.6356H13.5156V42.4136V42.9136H14.0156H17.6094H18.1094V42.4136V21.395H27.8907V42.4136V42.9136H28.3907H31.9844H32.4844V42.4136V32.1543H42.2657V42.4136ZM35.5782 34.7407H35.0782V35.2407V42.4136V42.9136H35.5782H39.1719H39.6719V42.4136V35.2407V34.7407H39.1719H35.5782ZM21.2031 23.9814H20.7031V24.4814V42.4136V42.9136H21.2031H24.7969H25.2969V42.4136V24.4814V23.9814H24.7969H21.2031ZM6.82813 13.2221H6.32813V13.7221V42.4136V42.9136H6.82813H10.4219H10.9219V42.4136V13.7221V13.2221H10.4219H6.82813Z" fill="#00C0F3" fill-opacity="0.6" stroke="#EAF1F8"/>
<path d="M10.6789 0.697714L37.8906 18.9132L38.8997 19.5887L38.6588 18.3985L38.1017 15.6459L40.6108 15.1217L42.2927 23.4309L34.1283 25.1365L33.6094 22.5729L36.3118 22.0083L37.4761 21.765L36.4877 21.1034L9.2638 2.87975L10.6789 0.697714Z" fill="#00C0F3" fill-opacity="0.6" stroke="#EAF1F8"/>
</svg>
