<svg width="60" height="44" viewBox="0 0 60 44" fill="none" xmlns="http://www.w3.org/2000/svg">
<path d="M58.7378 41.2667H44.901V24.9435L51.7342 30.563H48.0941C47.8118 30.563 47.5411 30.6757 47.3415 30.8765C47.1419 31.0772 47.0297 31.3494 47.0297 31.6333C47.0297 31.9172 47.1419 32.1895 47.3415 32.3902C47.5411 32.5909 47.8118 32.7037 48.0941 32.7037H54.4803C54.7626 32.7037 55.0333 32.5909 55.233 32.3902C55.4326 32.1895 55.5447 31.9172 55.5447 31.6333V25.2111C55.5447 24.9272 55.4326 24.655 55.233 24.4542C55.0333 24.2535 54.7626 24.1407 54.4803 24.1407C54.198 24.1407 53.9273 24.2535 53.7277 24.4542C53.5281 24.655 53.416 24.9272 53.416 25.2111V29.1822L30.6703 10.4721C30.4669 10.3032 30.2084 10.2162 29.9449 10.2281C29.6813 10.2399 29.4316 10.3498 29.244 10.5363L21.4847 18.35L8.40359 5.18448C8.30435 5.08468 8.18653 5.00551 8.05687 4.9515C7.9272 4.89749 7.78823 4.86969 7.64788 4.86969C7.50753 4.86969 7.36856 4.89749 7.2389 4.9515C7.10923 5.00551 6.99142 5.08468 6.89218 5.18448C6.79294 5.28428 6.71421 5.40276 6.66051 5.53315C6.6068 5.66355 6.57915 5.8033 6.57915 5.94444C6.57915 6.08558 6.6068 6.22534 6.66051 6.35573C6.71421 6.48612 6.79294 6.6046 6.89218 6.7044L15.0985 14.9463V41.2667H2.32601V1.66296C2.32601 1.37908 2.21387 1.10683 2.01427 0.906095C1.81466 0.705361 1.54393 0.59259 1.26164 0.59259C0.97935 0.59259 0.708623 0.705361 0.509014 0.906095C0.309405 1.10683 0.197266 1.37908 0.197266 1.66296V42.337C0.197266 42.6209 0.309405 42.8932 0.509014 43.0939C0.708623 43.2946 0.97935 43.4074 1.26164 43.4074H58.7378C59.0201 43.4074 59.2908 43.2946 59.4905 43.0939C59.6901 42.8932 59.8022 42.6209 59.8022 42.337C59.8022 42.0532 59.6901 41.7809 59.4905 41.5802C59.2908 41.3794 59.0201 41.2667 58.7378 41.2667ZM42.7722 41.2667H38.387L37.908 37.3919C37.7746 36.3477 37.3379 35.3663 36.6525 34.5705C35.9672 33.7746 35.0636 33.1998 34.055 32.9178C34.6442 32.2088 35.0409 31.3586 35.2064 30.4497C35.3719 29.5409 35.3006 28.6045 34.9995 27.7316C34.6984 26.8586 34.1776 26.079 33.488 25.4685C32.7984 24.858 31.9633 24.4375 31.0641 24.2478V13.5441L42.7722 23.1774V41.2667ZM26.8066 29.4926C26.8066 28.8575 26.9939 28.2367 27.3447 27.7086C27.6956 27.1805 28.1943 26.769 28.7778 26.5259C29.3612 26.2829 30.0033 26.2193 30.6227 26.3432C31.2421 26.4671 31.811 26.7729 32.2576 27.222C32.7042 27.6711 33.0083 28.2432 33.1315 28.8661C33.2547 29.489 33.1915 30.1347 32.9498 30.7214C32.7081 31.3082 32.2988 31.8097 31.7737 32.1625C31.2486 32.5154 30.6313 32.7037 29.9997 32.7037C29.1529 32.7037 28.3407 32.3654 27.7419 31.7632C27.143 31.161 26.8066 30.3442 26.8066 29.4926ZM17.2272 17.087L20.729 20.6192C20.828 20.7195 20.9457 20.7992 21.0754 20.8535C21.2051 20.9079 21.3442 20.9358 21.4847 20.9358C21.6253 20.9358 21.7644 20.9079 21.8941 20.8535C22.0238 20.7992 22.1415 20.7195 22.2404 20.6192L28.9354 13.8759V24.2478C28.0362 24.4375 27.2011 24.858 26.5115 25.4685C25.8218 26.079 25.3011 26.8586 25 27.7316C24.6989 28.6045 24.6276 29.5409 24.7931 30.4497C24.9586 31.3586 25.3553 32.2088 25.9445 32.9178C24.9358 33.1998 24.0323 33.7746 23.3469 34.5705C22.6616 35.3663 22.2249 36.3477 22.0914 37.3919L21.6125 41.2667H17.2272V17.087ZM34.2572 41.2667V38.0555C34.2572 37.7717 34.1451 37.4994 33.9455 37.2987C33.7459 37.0979 33.4751 36.9852 33.1929 36.9852C32.9106 36.9852 32.6398 37.0979 32.4402 37.2987C32.2406 37.4994 32.1285 37.7717 32.1285 38.0555V41.2667H27.871V38.0555C27.871 37.7717 27.7588 37.4994 27.5592 37.2987C27.3596 37.0979 27.0889 36.9852 26.8066 36.9852C26.5243 36.9852 26.2536 37.0979 26.054 37.2987C25.8544 37.4994 25.7422 37.7717 25.7422 38.0555V41.2667H23.7519L24.1989 37.6595C24.2954 36.8782 24.674 36.1598 25.2627 35.6408C25.8514 35.1219 26.6092 34.8384 27.392 34.8444H32.65C33.4329 34.8384 34.1907 35.1219 34.7793 35.6408C35.368 36.1598 35.7466 36.8782 35.8431 37.6595L36.2476 41.2667H34.2572Z" fill="#00C0F3" fill-opacity="0.6"/>
</svg>
