<svg width="116" height="108" viewBox="0 0 116 108" fill="none" xmlns="http://www.w3.org/2000/svg">
<path d="M53.9535 74.7464V32.3544C53.9535 29.0786 51.4486 26.5736 48.1728 26.5736H5.78074C2.50491 26.5736 0 29.0786 0 32.3544V74.7464C0 78.0222 2.50491 80.5271 5.78074 80.5271H48.1728C51.4486 80.5271 53.9535 78.0222 53.9535 74.7464ZM3.8539 74.7464V32.3544C3.8539 31.1982 4.62459 30.4275 5.78074 30.4275H48.1728C49.3289 30.4275 50.0996 31.1982 50.0996 32.3544V74.7464C50.0996 75.9025 49.3289 76.6732 48.1728 76.6732H5.78074C4.62459 76.6735 3.8539 75.9025 3.8539 74.7464Z" fill="#00C0F3" fill-opacity="0.6" stroke="white"/>
<path d="M10.041 40.062H29.5244C30.6934 40.062 31.4726 39.3427 31.4726 38.2636C31.4726 37.1845 30.6934 36.4651 29.5244 36.4651H10.041C8.87203 36.4651 8.09277 37.1845 8.09277 38.2636C8.09277 39.3427 8.87203 40.062 10.041 40.062Z" fill="#00C0F3" fill-opacity="0.6" stroke="white"/>
<path d="M36.7296 44.5581H15.425C14.2629 44.5581 13.4883 45.2775 13.4883 46.3566C13.4883 47.4357 14.2629 48.155 15.425 48.155H36.7299C37.8919 48.155 38.6666 47.4357 38.6666 46.3566C38.6666 45.2775 37.8917 44.5581 36.7296 44.5581Z" fill="#00C0F3" fill-opacity="0.6" stroke="white"/>
<path d="M29.5244 51.7519H10.041C8.87203 51.7519 8.09277 52.4713 8.09277 53.5504C8.09277 54.6295 8.87203 55.3488 10.041 55.3488H29.5244C30.6934 55.3488 31.4726 54.6295 31.4726 53.5504C31.4726 52.4713 30.6934 51.7519 29.5244 51.7519Z" fill="#00C0F3" fill-opacity="0.6" stroke="white"/>
<path d="M19.7827 61.6434C19.7827 60.5643 19.0034 59.845 17.8344 59.845H10.0411C8.87204 59.845 8.09277 60.5643 8.09277 61.6434C8.09277 62.7225 8.87204 63.4419 10.0411 63.4419H17.8344C19.0034 63.4419 19.7827 62.7225 19.7827 61.6434Z" fill="#00C0F3" fill-opacity="0.6" stroke="white"/>
<path d="M28.6849 67.938H13.5778C12.4447 67.938 11.6895 68.6573 11.6895 69.7364C11.6895 70.8155 12.4447 71.5349 13.5778 71.5349H28.6849C29.8179 71.5349 30.5732 70.8155 30.5732 69.7364C30.5732 68.6573 29.8179 67.938 28.6849 67.938Z" fill="#00C0F3" fill-opacity="0.6" stroke="white"/>
<path d="M110.22 26.5736H67.8276C64.5518 26.5736 62.0469 29.0786 62.0469 32.3544V74.7464C62.0469 78.0222 64.5518 80.5271 67.8276 80.5271H110.22C113.495 80.5271 116 78.0222 116 74.7464V32.3544C116 29.0786 113.495 26.5736 110.22 26.5736ZM112.146 74.7464C112.146 75.9025 111.376 76.6732 110.22 76.6732H67.8276C66.6715 76.6732 65.9008 75.9025 65.9008 74.7464V32.3544C65.9008 31.1982 66.6715 30.4275 67.8276 30.4275H110.22C111.376 30.4275 112.146 31.1982 112.146 32.3544V74.7464Z" fill="#00C0F3" fill-opacity="0.6" stroke="white"/>
<path d="M71.1885 40.062H90.6718C91.8408 40.062 92.6201 39.3427 92.6201 38.2636C92.6201 37.1845 91.8408 36.4651 90.6718 36.4651H71.1885C70.0195 36.4651 69.2402 37.1845 69.2402 38.2636C69.2402 39.3427 70.0195 40.062 71.1885 40.062Z" fill="#00C0F3" fill-opacity="0.6" stroke="white"/>
<path d="M98.7767 44.5581H77.4719C76.3098 44.5581 75.5352 45.2775 75.5352 46.3566C75.5352 47.4357 76.3098 48.155 77.4719 48.155H98.7767C99.9388 48.155 100.713 47.4357 100.713 46.3566C100.713 45.2775 99.9388 44.5581 98.7767 44.5581Z" fill="#00C0F3" fill-opacity="0.6" stroke="white"/>
<path d="M90.6718 51.7519H71.1885C70.0195 51.7519 69.2402 52.4713 69.2402 53.5504C69.2402 54.6295 70.0195 55.3488 71.1885 55.3488H90.6718C91.8408 55.3488 92.6201 54.6295 92.6201 53.5504C92.6201 52.4713 91.8408 51.7519 90.6718 51.7519Z" fill="#00C0F3" fill-opacity="0.6" stroke="white"/>
<path d="M80.9302 61.6434C80.9302 60.5643 80.1509 59.845 78.9819 59.845H71.1885C70.0195 59.845 69.2402 60.5643 69.2402 61.6434C69.2402 62.7225 70.0195 63.4419 71.1885 63.4419H78.9819C80.1509 63.4419 80.9302 62.7225 80.9302 61.6434Z" fill="#00C0F3" fill-opacity="0.6" stroke="white"/>
<path d="M90.7317 67.938H75.6246C74.4916 67.938 73.7363 68.6573 73.7363 69.7364C73.7363 70.8155 74.4916 71.5349 75.6246 71.5349H90.7317C91.8648 71.5349 92.6201 70.8155 92.6201 69.7364C92.6201 68.6573 91.8648 67.938 90.7317 67.938Z" fill="#00C0F3" fill-opacity="0.6" stroke="white"/>
<path d="M27.0671 17.0113C27.2604 17.0113 27.6471 17.0113 27.8404 16.8219C38.8608 11.5184 47.5611 9.43477 58.0014 9.43477C67.0457 9.43477 74.7851 11.0001 83.8572 14.8661L75.402 17.5795C74.4352 17.9584 73.8552 18.9053 74.242 19.8525C74.4352 20.6101 75.2087 21.1783 75.982 21.1783C76.1753 21.1783 76.3688 21.1783 76.5621 20.989L89.0825 16.9613C89.7704 16.9129 90.4084 16.5303 90.6758 15.8748C90.7737 15.683 90.8215 15.4428 90.8203 15.2031C90.8373 14.7984 90.7315 14.3993 90.5154 14.0702L86.4224 1.85829C86.0356 0.911146 85.0691 0.342904 84.1023 0.532466C83.1355 0.911368 82.5555 2.04785 82.9423 2.99477L85.8317 11.6363C76.1334 7.42595 67.7473 5.64642 58.0014 5.64642C46.981 5.64642 37.7007 7.91939 26.2936 13.4125C25.3268 13.7914 24.9403 14.9279 25.3268 15.8748C25.7136 16.6326 26.2936 17.0113 27.0671 17.0113Z" fill="#00C0F3" fill-opacity="0.6" stroke="white"/>
<path d="M88.1605 90.5738C77.1403 96.086 68.4402 98.2516 58.0001 98.2516C49.0115 98.2516 41.3117 96.644 32.3118 92.6799L40.9866 89.7862C41.9533 89.3924 42.5333 88.2112 42.1466 87.227C41.7598 86.2428 40.5998 85.652 39.6333 86.0458L26.6799 90.3768C26.4646 90.4499 26.2763 90.55 26.1143 90.6672C25.7679 90.859 25.4831 91.1591 25.3264 91.558C25.0785 92.1892 25.1499 92.9002 25.4868 93.4336L29.5797 106.126C29.7729 106.913 30.5464 107.504 31.3197 107.504C31.7064 107.504 31.8997 107.504 32.2865 107.504C33.2532 107.11 33.8332 105.929 33.4465 104.945L30.6223 96.1663C40.1302 100.397 48.4059 102.189 58.0001 102.189C69.0202 102.189 78.3003 99.8261 89.7073 94.1169C90.674 93.7231 91.0605 92.5419 90.674 91.5578C90.2873 90.5738 89.1272 90.1802 88.1605 90.5738Z" fill="#00C0F3" fill-opacity="0.6" stroke="white"/>
</svg>
