<svg width="46" height="46" viewBox="0 0 46 46" fill="none" xmlns="http://www.w3.org/2000/svg">
<path d="M45.6053 39.8718L36.6608 30.9273L39.2072 28.3808C39.5487 28.0392 39.6813 27.5411 39.5549 27.075C39.4284 26.6089 39.0622 26.2461 38.5948 26.124L29.7382 23.8107C29.7398 23.753 29.7426 23.6956 29.7426 23.6375V6.10497C29.7425 2.73862 27.0039 0 23.6376 0H6.10497C2.73862 0 0 2.73862 0 6.10497V23.6376C0 27.004 2.73862 29.7426 6.10497 29.7426H23.6376C23.6957 29.7426 23.7531 29.7398 23.8107 29.7382L26.1241 38.5947C26.2462 39.062 26.609 39.4282 27.0751 39.5548C27.5412 39.6814 28.0394 39.5486 28.3809 39.2071L30.9273 36.6607L39.8718 45.6053C40.1246 45.858 40.4673 46.0001 40.8247 46.0001C41.1822 46.0001 41.5249 45.8581 41.7776 45.6053L45.6052 41.7776C46.1315 41.2514 46.1315 40.398 45.6053 39.8718ZM22.6475 22.6475C22.3091 22.9858 22.1756 23.4781 22.2964 23.9409L23.1078 27.0472H6.10497C4.22481 27.0473 2.69531 25.5177 2.69531 23.6376V6.10497C2.69531 4.22481 4.22481 2.69531 6.10497 2.69531H23.6376C25.5177 2.69531 27.0473 4.22481 27.0473 6.10497V23.1078L23.941 22.2964C23.4781 22.1754 22.9858 22.3091 22.6475 22.6475ZM40.8247 42.7465L31.8802 33.8019C31.617 33.5388 31.2721 33.4071 30.9273 33.4071C30.5825 33.4071 30.2375 33.5388 29.9744 33.8019L28.1377 35.6385L25.4857 25.4856L35.6387 28.1376L33.802 29.9743C33.2758 30.5005 33.2758 31.3539 33.802 31.8802L42.7465 40.8246L40.8247 42.7465Z" fill="#00C0F3" fill-opacity="0.6" stroke="#EAF1F8"/>
<path d="M20.6643 8.18347C20.1485 7.66766 19.312 7.66766 18.7961 8.18347L14.424 12.5555L10.052 8.18347C9.53617 7.66766 8.6997 7.66766 8.1838 8.18347C7.6679 8.69929 7.6679 9.53575 8.1838 10.0517L12.5559 14.4237L8.1838 18.7957C7.6679 19.3115 7.6679 20.148 8.1838 20.6639C8.44175 20.9218 8.77985 21.0509 9.11785 21.0509C9.45586 21.0509 9.79404 20.9218 10.0519 20.6639L14.4239 16.2919L18.796 20.6639C19.054 20.9218 19.392 21.0509 19.73 21.0509C20.0681 21.0509 20.4062 20.9218 20.6641 20.6639C21.18 20.1481 21.18 19.3116 20.6641 18.7957L16.292 14.4237L20.6641 10.0517C21.1801 9.53575 21.1801 8.69929 20.6643 8.18347Z" fill="#00C0F3" fill-opacity="0.6" stroke="#EAF1F8"/>
</svg>
