<svg width="54" height="54" viewBox="0 0 54 54" fill="none" xmlns="http://www.w3.org/2000/svg">
<path d="M53.8374 32.8527C53.5078 32.0594 52.7383 31.5467 51.8771 31.5467L45.4023 31.5479C45.4023 31.5477 45.4022 31.5474 45.4022 31.5467V2.5386C45.4022 1.13884 44.26 0 42.856 0H24.3438C22.9399 0 21.7976 1.13884 21.7976 2.5386V9.71432C20.5033 9.41422 19.1552 9.2553 17.7706 9.2553C7.97186 9.2553 0 17.2033 0 26.9726C0 36.7419 7.97186 44.6899 17.7706 44.6899C19.4766 44.6899 21.1269 44.4483 22.6897 43.9988L32.0995 53.3804C32.5003 53.78 33.0331 54 33.5999 54C34.1667 54 34.6996 53.78 35.1003 53.3804L53.3774 35.1581C53.9865 34.551 54.167 33.646 53.8374 32.8527ZM1.69749 26.9726C1.69749 18.1365 8.90785 10.9477 17.7706 10.9477C26.6334 10.9477 33.8438 18.1365 33.8438 26.9726C33.8438 35.8087 26.6334 42.9975 17.7706 42.9975C8.90785 42.9975 1.69749 35.8087 1.69749 26.9726ZM52.1772 33.9614L33.9 52.1838C33.7918 52.2915 33.6656 52.3076 33.5999 52.3076C33.5343 52.3076 33.408 52.2915 33.2998 52.1836L24.4708 43.3811C30.9579 40.7385 35.5412 34.3796 35.5412 26.9726C35.5412 19.1992 30.4939 12.5793 23.4951 10.1986V2.5386C23.4951 2.07201 23.8759 1.6924 24.3438 1.6924H42.856C43.324 1.6924 43.7047 2.07201 43.7047 2.5386V31.5467C43.7047 32.4799 44.4662 33.2391 45.4022 33.2391H51.8771C52.133 33.2391 52.2365 33.4217 52.2692 33.5003C52.3018 33.5789 52.3581 33.781 52.1772 33.9614Z" fill="#00C0F3" fill-opacity="0.6"/>
<path d="M18.1344 13.7015C10.8016 13.7015 4.83594 19.6672 4.83594 27C4.83594 34.3328 10.8016 40.2985 18.1344 40.2985C25.4673 40.2985 31.433 34.3328 31.433 27C31.433 19.6672 25.4673 13.7015 18.1344 13.7015ZM18.1344 38.6015C11.7373 38.6015 6.53288 33.3971 6.53288 27C6.53288 20.6029 11.7373 15.3984 18.1344 15.3984C24.5316 15.3984 29.736 20.6029 29.736 27C29.736 33.3971 24.5316 38.6015 18.1344 38.6015Z" fill="#00C0F3" fill-opacity="0.6"/>
</svg>
