<svg width="65" height="66" viewBox="0 0 65 66" fill="none" xmlns="http://www.w3.org/2000/svg">
<path d="M11.3438 63.8326C11.1848 63.7436 11.0612 63.6158 10.9783 63.4677V65.3181H47.4963V63.4676C47.4135 63.6158 47.29 63.7436 47.1309 63.8326C46.5014 64.127 46.1073 63.8183 45.8357 63.4674H12.639C12.3822 63.9257 11.8025 64.0893 11.3438 63.8326Z" fill="#00C0F3"/>
<path fill-rule="evenodd" clip-rule="evenodd" d="M64.3455 3.53099L62.172 1.3585C61.2985 0.485571 59.8775 0.485571 59.0038 1.35863L49.5439 10.8136H42.2747V3.43372C42.2747 1.91627 41.0396 0.681641 39.5212 0.681641H9.32782C7.80964 0.681641 6.57442 1.91627 6.57442 3.43372V10.8136H4.97821C2.23356 10.8136 0.00050754 13.0456 0.00050754 15.7889L0 47.4834C0 50.0863 2.11873 52.204 4.72291 52.204H18.5162L18.0343 60.2151H14.9432C13.3002 60.2151 11.781 61.1053 10.9783 62.538V63.4677C11.0612 63.6158 11.1848 63.7436 11.3438 63.8326C11.8025 64.0893 12.3822 63.9257 12.639 63.4674C13.1054 62.6346 13.9884 62.1173 14.9432 62.1173H43.5316C44.4863 62.1173 45.3691 62.6346 45.8357 63.4674C46.1073 63.8183 46.5014 64.127 47.1309 63.8326C47.29 63.7436 47.4135 63.6158 47.4963 63.4676V62.538C46.6938 61.1051 45.1745 60.2151 43.5316 60.2151H40.2019L39.7199 52.204H53.7519C56.3561 52.204 58.4748 50.0863 58.4748 47.4834L58.4743 17.4449C58.4743 16.9195 58.0484 16.4937 57.5227 16.4937C56.997 16.4937 56.571 16.9195 56.571 17.4449V44.8811H42.2749V28.757L64.3465 6.69652C65.2181 5.82296 65.2177 4.40291 64.3455 3.53099ZM40.6644 27.5488C40.5824 27.6043 40.2355 27.6618 40.2355 27.6618L39.2269 27.8221L37.6112 28.0798L38.0561 25.1213C38.0717 25.0174 38.1203 24.9214 38.1947 24.8472L38.569 24.4739L57.2261 5.82575L59.8759 8.47421L41.2187 27.1224C41.2187 27.1224 40.7701 27.4773 40.6644 27.5488ZM4.97808 12.7161H6.57429V44.8812H1.90366V15.789C1.90366 14.0945 3.2829 12.7161 4.97808 12.7161ZM38.2949 60.2151H19.941L20.4229 52.204H23.3943V52.8279C23.3943 55.8762 25.8754 58.3561 28.9252 58.3561H29.5495C32.5993 58.3561 35.0804 55.8762 35.0804 52.8279V52.204H37.8131L38.2949 60.2151ZM33.1771 52.2041V52.828C33.1771 54.8274 31.5498 56.4539 29.5495 56.4539H28.9252C26.9249 56.4539 25.2976 54.8274 25.2976 52.828V52.2041H33.1771ZM56.5714 47.4834C56.5714 49.0373 55.3065 50.3016 53.7518 50.3016H4.72291C3.16819 50.3018 1.90327 49.0375 1.90327 47.4834V46.7834H7.52593H41.323H56.5713L56.5714 47.4834ZM8.47757 44.8812V3.43385C8.47757 2.96536 8.85898 2.58413 9.3277 2.58413H39.5212C39.99 2.58413 40.3714 2.96536 40.3714 3.43385V15.5321C40.3714 16.0574 40.7973 16.4833 41.323 16.4833C41.8487 16.4833 42.2747 16.0574 42.2747 15.5321V12.7161H47.6406L36.55 23.8014C36.4601 23.8499 36.1719 25.4668 35.944 26.7449C35.8041 27.5301 35.6869 28.1873 35.6525 28.2746H11.846C11.3204 28.2746 10.8943 28.7005 10.8943 29.2258C10.8943 29.7511 11.3204 30.177 11.846 30.177H36.4645C36.5417 30.1853 38.028 29.9434 39.1462 29.7614C39.7868 29.6572 40.3065 29.5726 40.3715 29.5659V44.8812H8.47757ZM62.9997 5.35231L61.2219 7.12937L58.572 4.48078L60.3498 2.70385C60.4811 2.57259 60.6951 2.57259 60.8261 2.70385L62.9997 4.87634C63.1309 5.00735 63.1305 5.2213 62.9997 5.35231Z" fill="#00C0F3"/>
<path d="M13.2352 19.9434H23.5547C24.8454 19.9434 25.8954 18.8939 25.8954 17.6038V10.1447C25.8954 8.85464 24.8454 7.80518 23.5547 7.80518H13.2352C11.9446 7.80518 10.8945 8.85464 10.8945 10.1447V17.6038C10.8945 18.8939 11.9445 19.9434 13.2352 19.9434ZM12.7978 10.1447C12.7978 9.90361 12.994 9.70754 13.2352 9.70754H23.5547C23.7959 9.70754 23.9921 9.90361 23.9921 10.1447V17.6038C23.9921 17.8449 23.7959 18.041 23.5547 18.041H13.2352C12.9941 18.041 12.7978 17.8449 12.7978 17.6038V10.1447Z" fill="#00C0F3"/>
<path d="M37.2775 31.5322H30.4393C29.1486 31.5322 28.0986 32.5817 28.0986 33.8717V38.9996C28.0986 40.2897 29.1486 41.3391 30.4393 41.3391H37.2775C38.5682 41.3391 39.6181 40.2897 39.6181 38.9996V33.8717C39.6181 32.5817 38.5682 31.5322 37.2775 31.5322ZM37.7149 38.9996C37.7149 39.2407 37.5186 39.4368 37.2775 39.4368H30.4393C30.1981 39.4368 30.0019 39.2407 30.0019 38.9996V33.8717C30.0019 33.6307 30.1981 33.4346 30.4393 33.4346H37.2775C37.5186 33.4346 37.7149 33.6307 37.7149 33.8717V38.9996Z" fill="#00C0F3"/>
<path d="M29.1391 12.4629H37.4926C38.0183 12.4629 38.4442 12.037 38.4442 11.5117C38.4442 10.9864 38.0183 10.5605 37.4926 10.5605H29.1391C28.6136 10.5605 28.1875 10.9864 28.1875 11.5117C28.1875 12.037 28.6136 12.4629 29.1391 12.4629Z" fill="#00C0F3"/>
<path d="M29.1391 15.9736H37.4926C38.0183 15.9736 38.4442 15.5478 38.4442 15.0225C38.4442 14.4972 38.0183 14.0713 37.4926 14.0713H29.1391C28.6136 14.0713 28.1875 14.4972 28.1875 15.0225C28.1875 15.5478 28.6136 15.9736 29.1391 15.9736Z" fill="#00C0F3"/>
<path d="M11.8462 26.5391H28.111C28.6366 26.5391 29.0627 26.1132 29.0627 25.5879C29.0627 25.0626 28.6366 24.6367 28.111 24.6367H11.8462C11.3206 24.6367 10.8945 25.0626 10.8945 25.5879C10.8945 26.1132 11.3206 26.5391 11.8462 26.5391Z" fill="#00C0F3"/>
<path d="M24.9434 33.9822H18.7817C18.2562 33.9822 17.8301 34.4081 17.8301 34.9334C17.8301 35.4587 18.2562 35.8845 18.7817 35.8845H24.9434C25.4689 35.8845 25.895 35.4587 25.895 34.9334C25.895 34.4081 25.4689 33.9822 24.9434 33.9822Z" fill="#00C0F3"/>
<path d="M11.8462 35.8848H14.2853C14.8108 35.8848 15.2369 35.4589 15.2369 34.9336C15.2369 34.4083 14.8108 33.9824 14.2853 33.9824H11.8462C11.3206 33.9824 10.8945 34.4083 10.8945 34.9336C10.8945 35.4589 11.3206 35.8848 11.8462 35.8848Z" fill="#00C0F3"/>
<path d="M24.9437 37.4937H11.8462C11.3206 37.4937 10.8945 37.9195 10.8945 38.4448C10.8945 38.9701 11.3206 39.396 11.8462 39.396H24.9437C25.4693 39.396 25.8954 38.9701 25.8954 38.4448C25.8954 37.9195 25.4693 37.4937 24.9437 37.4937Z" fill="#00C0F3"/>
</svg>
