<svg width="63" height="64" viewBox="0 0 63 64" fill="none" xmlns="http://www.w3.org/2000/svg">
<path d="M45.8431 7.00404C45.8431 6.07029 45.0835 5.31079 44.1499 5.31079H6.79774C5.86412 5.31079 5.10449 6.07042 5.10449 7.00404V9.53054C5.10449 10.0483 5.52424 10.4679 6.04187 10.4679C6.55949 10.4679 6.97924 10.0482 6.97924 9.53054V7.18554H43.9681V16.2543H6.97937L6.97924 9.53054C6.97924 9.01279 6.55949 10.4679 6.04187 10.4679C5.52424 10.4679 5.11756 9.16981 5.11756 9.68744L5.10462 16.4359C5.10462 17.3695 5.86424 18.1292 6.79787 18.1292H44.1499C45.0836 18.1292 45.8431 17.3695 45.8431 16.4359V7.00404Z" fill="#00C0F3"/>
<path d="M13.1534 24.1657C13.1534 23.3153 12.4615 22.6235 11.6113 22.6235H6.97767C6.1273 22.6235 5.43555 23.3154 5.43555 24.1657V28.7992C5.43555 29.6495 6.12742 30.3414 6.97767 30.3414H11.6113C12.4617 30.3414 13.1534 29.6495 13.1534 28.7992V24.1657ZM11.2785 28.4665H7.3103V24.4983H11.2785V28.4665Z" fill="#00C0F3"/>
<path d="M23.9396 24.1657C23.9396 23.3153 23.2477 22.6235 22.3973 22.6235H17.7638C16.9134 22.6235 16.2217 23.3154 16.2217 24.1657V28.7992C16.2217 29.6495 16.9136 30.3414 17.7638 30.3414H22.3973C23.2477 30.3414 23.9396 29.6495 23.9396 28.7992V24.1657ZM22.0647 28.4665H18.0964V24.4983H22.0647V28.4665Z" fill="#00C0F3"/>
<path d="M28.5501 22.6235C27.6997 22.6235 27.0078 23.3154 27.0078 24.1657V28.7992C27.0078 29.6495 27.6997 30.3414 28.5501 30.3414H33.1836C34.0339 30.3414 34.7257 29.6495 34.7257 28.7992V24.1657C34.7257 23.3153 34.0338 22.6235 33.1836 22.6235H28.5501ZM32.8509 28.4665H28.8827V24.4983H32.8509V28.4665Z" fill="#00C0F3"/>
<path d="M43.9697 22.6235H39.3361C38.4857 22.6235 37.7939 23.3154 37.7939 24.1657V28.7992C37.7939 29.6495 38.4858 30.3414 39.3361 30.3414H43.9697C44.8201 30.3414 45.5118 29.6495 45.5118 28.7992V24.1657C45.5118 23.3153 44.8199 22.6235 43.9697 22.6235ZM43.6369 28.4665H39.6687V24.4983H43.6369V28.4665Z" fill="#00C0F3"/>
<path d="M13.1534 35.5768C13.1534 34.7264 12.4615 34.0347 11.6113 34.0347H6.97767C6.1273 34.0347 5.43555 34.7265 5.43555 35.5768V40.2103C5.43555 41.0607 6.12742 41.7525 6.97767 41.7525H11.6113C12.4617 41.7525 13.1534 41.0607 13.1534 40.2103V35.5768ZM11.2785 39.8777H7.3103V35.9094H11.2785V39.8777Z" fill="#00C0F3"/>
<path d="M23.9396 35.5765C23.9396 34.7262 23.2477 34.0344 22.3973 34.0344H17.7638C16.9134 34.0344 16.2217 34.7263 16.2217 35.5765V40.21C16.2217 41.0604 16.9136 41.7523 17.7638 41.7523H22.3973C23.2477 41.7523 23.9396 41.0604 23.9396 40.21V35.5765ZM22.0647 39.8774H18.0964V35.9092H22.0647V39.8774Z" fill="#00C0F3"/>
<path d="M22.3973 45.4453H17.7638C16.9134 45.4453 16.2217 46.1372 16.2217 46.9874V51.6209C16.2217 52.4713 16.9136 53.1632 17.7638 53.1632H22.3973C23.2477 53.1632 23.9396 52.4713 23.9396 51.6209V46.9874C23.9396 46.1372 23.2477 45.4453 22.3973 45.4453ZM22.0647 51.2884H18.0964V47.3202H22.0647V51.2884Z" fill="#00C0F3"/>
<path d="M46.7651 31.5942C41.9913 31.5942 37.6936 33.6699 34.7257 36.9655V35.5767C34.7257 34.7264 34.0338 34.0345 33.1836 34.0345H28.5501C27.6997 34.0345 27.0078 34.7264 27.0078 35.5767V40.2102C27.0078 41.0606 27.6997 41.7524 28.5501 41.7524H31.7327C31.2606 42.9224 30.9212 44.1596 30.7334 45.4454H28.5501C27.6997 45.4454 27.0078 46.1372 27.0078 46.9876V51.6211C27.0078 52.4715 27.6997 53.1632 28.5501 53.1632H31.4767C33.6962 59.4682 39.7108 64.0001 46.7651 64.0001C55.6994 64.0001 62.9681 56.7315 62.9681 47.7971C62.9681 38.8627 55.6994 31.5942 46.7651 31.5942ZM28.8826 39.8776V35.9094H32.8508V39.5037C32.7769 39.6272 32.7047 39.752 32.6341 39.8776H28.8826ZM28.8826 51.2886V47.3204H30.5697C30.5651 47.4787 30.5622 47.6376 30.5622 47.7972C30.5622 48.9956 30.6942 50.1637 30.9422 51.2886H28.8826ZM46.7651 62.1252C38.8646 62.1252 32.4369 55.6976 32.4369 47.7971C32.4369 39.8966 38.8646 33.469 46.7651 33.469C54.6656 33.469 61.0932 39.8966 61.0932 47.7971C61.0932 55.6976 54.6657 62.1252 46.7651 62.1252Z" fill="#00C0F3"/>
<path d="M46.3997 35.4463C39.5409 35.4463 33.9609 41.0263 33.9609 47.885C33.9609 54.7438 39.5409 60.3238 46.3997 60.3238C53.2584 60.3238 58.8384 54.7438 58.8384 47.885C58.8384 41.0263 53.2584 35.4463 46.3997 35.4463ZM46.3997 58.449C40.5747 58.449 35.8357 53.71 35.8357 47.885C35.8357 42.06 40.5747 37.321 46.3997 37.321C52.2247 37.321 56.9637 42.06 56.9637 47.885C56.9637 53.71 52.2247 58.449 46.3997 58.449Z" fill="#00C0F3"/>
<path d="M45.7721 48.184H47.7533C48.6527 48.184 49.3414 47.9579 49.8194 47.5057C50.2786 47.0663 50.5082 46.4517 50.5082 45.662C50.5082 44.8787 50.2817 44.2705 49.8289 43.8375C49.3509 43.3853 48.6622 43.1592 47.7627 43.1592H45.7721V48.184ZM45.7721 53.0654V55.1384H43.6587V53.0654H41.8379V51.5943H43.6587V49.913H41.8379V48.1935H43.6587V41.3538H48.3477C49.6433 41.3538 50.6906 41.7613 51.4894 42.5765C52.2756 43.3726 52.6687 44.3979 52.6687 45.6525C52.6687 46.9007 52.2693 47.9229 51.4705 48.7189C50.6528 49.5214 49.5899 49.9226 48.2816 49.9226H45.7721V51.5943H49.6119V53.0654H45.7721Z" fill="#00C0F3"/>
<path d="M11.6113 45.4453H6.97767C6.1273 45.4453 5.43555 46.1372 5.43555 46.9874V51.6209C5.43555 52.4713 6.12742 53.1632 6.97767 53.1632H11.6113C12.4617 53.1632 13.1534 52.4713 13.1534 51.6209V46.9874C13.1534 46.1372 12.4615 45.4453 11.6113 45.4453ZM11.2785 51.2884H7.3103V47.3202H11.2785V51.2884Z" fill="#00C0F3"/>
<path d="M33.1792 59.4271H5.4995C3.51813 59.4271 1.90612 57.8151 1.90612 55.8338V5.46813C1.90612 3.48675 3.51813 1.87475 5.4995 1.87475H45.4481C47.4295 1.87475 49.0415 3.48675 49.0415 5.46813V28.4748C49.0415 28.9925 49.4613 29.4121 49.9789 29.4121C50.4965 29.4121 50.9162 28.9924 50.9162 28.4748V5.46813C50.9162 2.453 48.4632 0 45.4481 0H5.4995C2.48425 0 0.03125 2.453 0.03125 5.46813V55.8338C0.03125 58.849 2.48425 61.302 5.49938 61.302H33.1792C33.697 61.302 34.1166 60.8823 34.1166 60.3646C34.1166 59.847 33.697 59.4271 33.1792 59.4271Z" fill="#00C0F3"/>
</svg>
