<svg width="70" height="68" viewBox="0 0 70 68" fill="none" xmlns="http://www.w3.org/2000/svg">
<path d="M14.9979 14.5L11.811 17.7371C11.6119 17.9395 11.5 18.2139 11.5 18.5C11.5 18.7861 11.6119 19.0605 11.811 19.2629L14.9979 22.5L16.5 20.9742L14.0642 18.5L16.5 16.0258L14.9979 14.5Z" fill="#00C0F3"/>
<path d="M18.5 22.5L22.0112 13.1367L23.8839 13.839L20.3727 23.2022L18.5 22.5Z" fill="#00C0F3"/>
<path d="M27.0021 22.5L30.189 19.2629C30.3881 19.0605 30.5 18.7861 30.5 18.5C30.5 18.2139 30.3881 17.9395 30.189 17.7371L27.0021 14.5L25.5 16.0258L27.9358 18.5L25.5 20.9742L27.0021 22.5Z" fill="#00C0F3"/>
<path d="M11.5 27.5H15.5V29.5H11.5V27.5Z" fill="#00C0F3"/>
<path d="M18.5 27.5H29.5V29.5H18.5V27.5Z" fill="#00C0F3"/>
<path d="M13.5 31.5H17.5V33.5H13.5V31.5Z" fill="#00C0F3"/>
<path d="M20.5 31.5H31.5V33.5H20.5V31.5Z" fill="#00C0F3"/>
<path d="M33.5 31.5H35.5V33.5H33.5V31.5Z" fill="#00C0F3"/>
<path d="M13.5 36.5H17.5V38.5H13.5V36.5Z" fill="#00C0F3"/>
<path d="M20.5 36.5H31.5V38.5H20.5V36.5Z" fill="#00C0F3"/>
<path d="M33.5 36.5H35.5V38.5H33.5V36.5Z" fill="#00C0F3"/>
<path d="M68.5501 12.6896L65.5807 12.2656C65.38 11.6412 65.1286 11.0344 64.829 10.451L66.6281 8.05293C66.7879 7.83972 66.8655 7.57601 66.8466 7.3102C66.8277 7.04439 66.7135 6.79432 66.5251 6.60589L63.3941 3.47489C63.2057 3.28675 62.9559 3.17278 62.6903 3.15387C62.4248 3.13496 62.1613 3.21238 61.9482 3.37193L59.549 5.16993C58.9655 4.87083 58.3587 4.61979 57.7344 4.41929L57.3104 1.44993C57.2725 1.18621 57.1409 0.944974 56.9395 0.770487C56.7382 0.596 56.4807 0.499964 56.2143 0.5H51.7857C51.5193 0.499964 51.2618 0.596 51.0605 0.770487C50.8591 0.944974 50.7275 1.18621 50.6896 1.44993L50.2656 4.41929C49.6413 4.61958 49.0344 4.87063 48.451 5.16993L46.0518 3.37193C45.8387 3.21238 45.5752 3.13496 45.3097 3.15387C45.0441 3.17278 44.7943 3.28675 44.6059 3.47489L41.4749 6.60589C41.2865 6.79432 41.1723 7.04439 41.1534 7.3102C41.1345 7.57601 41.2121 7.83972 41.3719 8.05293L43.171 10.451C42.8714 11.0344 42.62 11.6412 42.4193 12.2656L39.4499 12.6896C39.1862 12.7275 38.945 12.8591 38.7705 13.0605C38.596 13.2618 38.5 13.5193 38.5 13.7857V18.2143C38.5 18.4807 38.596 18.7382 38.7705 18.9395C38.945 19.1409 39.1862 19.2725 39.4499 19.3104L42.4193 19.7344C42.62 20.3587 42.8714 20.9656 43.171 21.549L41.3719 23.9471C41.2121 24.1603 41.1345 24.424 41.1534 24.6898C41.1723 24.9556 41.2865 25.2057 41.4749 25.3941L44.6059 28.5251C44.7943 28.7132 45.0441 28.8272 45.3097 28.8461C45.5752 28.865 45.8387 28.7876 46.0518 28.6281L48.451 26.8301C49.0344 27.1294 49.6413 27.3804 50.2656 27.5807L50.6896 30.5501C50.7275 30.8138 50.8591 31.055 51.0605 31.2295C51.2618 31.404 51.5193 31.5 51.7857 31.5H56.2143C56.4807 31.5 56.7382 31.404 56.9395 31.2295C57.1409 31.055 57.2725 30.8138 57.3104 30.5501L57.7344 27.5807C58.3587 27.3802 58.9655 27.1292 59.549 26.8301L61.9482 28.6281C62.1613 28.7876 62.4248 28.865 62.6903 28.8461C62.9559 28.8272 63.2057 28.7132 63.3941 28.5251L66.5251 25.3941C66.7135 25.2057 66.8277 24.9556 66.8466 24.6898C66.8655 24.424 66.7879 24.1603 66.6281 23.9471L64.829 21.549C65.1286 20.9656 65.38 20.3587 65.5807 19.7344L68.5501 19.3104C68.8138 19.2725 69.055 19.1409 69.2295 18.9395C69.404 18.7382 69.5 18.4807 69.5 18.2143V13.7857C69.5 13.5193 69.404 13.2618 69.2295 13.0605C69.055 12.8591 68.8138 12.7275 68.5501 12.6896ZM67.2857 17.2544L64.5588 17.6441C64.3421 17.6752 64.1394 17.7698 63.9764 17.916C63.8135 18.0622 63.6975 18.2535 63.6432 18.4656C63.4095 19.3828 63.0452 20.2616 62.5615 21.0751C62.4497 21.2638 62.3964 21.4814 62.4084 21.7004C62.4205 21.9194 62.4972 22.1299 62.6291 22.3052L64.2809 24.5084L62.5095 26.2798L60.3052 24.628C60.1299 24.4965 59.9196 24.4201 59.7008 24.4083C59.482 24.3964 59.2647 24.4498 59.0762 24.5615C58.2634 25.0453 57.3848 25.4088 56.4678 25.641C56.2551 25.695 56.0633 25.8109 55.9166 25.9741C55.77 26.1374 55.6751 26.3405 55.6441 26.5577L55.2544 29.2857H52.7456L52.357 26.5588C52.326 26.3416 52.2311 26.1385 52.0845 25.9753C51.9378 25.812 51.746 25.6961 51.5333 25.6421C50.6163 25.4099 49.7377 25.0464 48.9249 24.5626C48.7364 24.4509 48.5191 24.3975 48.3003 24.4094C48.0815 24.4212 47.8712 24.4977 47.6959 24.6291L45.4916 26.2809L43.7202 24.5095L45.372 22.3063C45.5039 22.131 45.5807 21.9205 45.5927 21.7015C45.6047 21.4825 45.5514 21.2649 45.4396 21.0762C44.9559 20.2627 44.5916 19.3839 44.3579 18.4667C44.3036 18.2546 44.1877 18.0633 44.0247 17.9171C43.8617 17.7709 43.659 17.6763 43.4423 17.6452L40.7143 17.2544V14.7456L43.4412 14.3559C43.6579 14.3248 43.8606 14.2302 44.0236 14.084C44.1865 13.9378 44.3025 13.7465 44.3568 13.5344C44.5905 12.6172 44.9548 11.7384 45.4385 10.9249C45.5503 10.7362 45.6036 10.5186 45.5916 10.2996C45.5795 10.0806 45.5028 9.8701 45.3709 9.69482L43.7191 7.49161L45.4905 5.72018L47.6948 7.37204C47.8701 7.50346 48.0804 7.57992 48.2992 7.59174C48.518 7.60357 48.7353 7.55022 48.9238 7.43846C49.7366 6.95475 50.6152 6.59116 51.5322 6.359C51.7449 6.30503 51.9367 6.18907 52.0834 6.02585C52.23 5.86263 52.3249 5.65951 52.3559 5.44229L52.7456 2.71429H55.2544L55.643 5.44118C55.674 5.65841 55.7689 5.86153 55.9155 6.02474C56.0622 6.18796 56.254 6.30392 56.4667 6.35789C57.3837 6.59005 58.2623 6.95364 59.0751 7.43736C59.2636 7.54912 59.4809 7.60246 59.6997 7.59063C59.9184 7.57881 60.1288 7.50235 60.3041 7.37093L62.5084 5.71907L64.2798 7.4905L62.628 9.69371C62.4961 9.869 62.4193 10.0795 62.4073 10.2985C62.3953 10.5175 62.4486 10.7351 62.5604 10.9237C63.0441 11.7373 63.4084 12.6161 63.6421 13.5333C63.6964 13.7454 63.8123 13.9367 63.9753 14.0829C64.1383 14.2291 64.341 14.3237 64.5577 14.3548L67.2857 14.7456V17.2544Z" fill="#00C0F3"/>
<path d="M54 9.5C52.7144 9.5 51.4577 9.88122 50.3888 10.5954C49.3199 11.3097 48.4868 12.3248 47.9948 13.5126C47.5028 14.7003 47.3741 16.0072 47.6249 17.2681C47.8757 18.529 48.4948 19.6872 49.4038 20.5962C50.3128 21.5052 51.471 22.1243 52.7319 22.3751C53.9928 22.6259 55.2997 22.4972 56.4874 22.0052C57.6752 21.5132 58.6903 20.6801 59.4046 19.6112C60.1188 18.5423 60.5 17.2856 60.5 16C60.4983 14.2766 59.8129 12.6243 58.5943 11.4057C57.3757 10.1871 55.7234 9.50172 54 9.5ZM54 20.3333C53.143 20.3333 52.3051 20.0792 51.5925 19.603C50.8799 19.1269 50.3245 18.4501 49.9965 17.6583C49.6685 16.8665 49.5827 15.9952 49.7499 15.1546C49.9171 14.314 50.3298 13.5419 50.9359 12.9359C51.5419 12.3298 52.314 11.9171 53.1546 11.7499C53.9952 11.5827 54.8665 11.6685 55.6583 11.9965C56.4501 12.3245 57.1269 12.8799 57.603 13.5925C58.0792 14.3051 58.3333 15.1429 58.3333 16C58.3333 17.1493 57.8768 18.2515 57.0641 19.0641C56.2515 19.8768 55.1493 20.3333 54 20.3333Z" fill="#00C0F3"/>
<path d="M58.2692 42.9615H4.73077V15.0769C4.73077 14.1895 5.08331 13.3384 5.71083 12.7108C6.33836 12.0833 7.18947 11.7308 8.07692 11.7308H39.3077V9.5H8.07692C6.59837 9.50177 5.18089 10.0899 4.1354 11.1354C3.08991 12.1809 2.50177 13.5984 2.5 15.0769V48.5385C2.50177 50.017 3.08991 51.4345 4.1354 52.48C5.18089 53.5255 6.59837 54.1136 8.07692 54.1154H22.4286L21.592 60.8077H19.2308C18.6391 60.8077 18.0717 61.0427 17.6534 61.4611C17.235 61.8794 17 62.4468 17 63.0385V65.2692C17 65.8609 17.235 66.4283 17.6534 66.8466C18.0717 67.265 18.6391 67.5 19.2308 67.5H43.7692C44.3609 67.5 44.9283 67.265 45.3466 66.8466C45.765 66.4283 46 65.8609 46 65.2692V63.0385C46 62.4468 45.765 61.8794 45.3466 61.4611C44.9283 61.0427 44.3609 60.8077 43.7692 60.8077H41.408L40.5714 54.1154H54.9231C56.4016 54.1136 57.8191 53.5255 58.8646 52.48C59.9101 51.4345 60.4982 50.017 60.5 48.5385V30.6923H58.2692V42.9615ZM43.7692 65.2692H19.2308V63.0385H43.7692V65.2692ZM39.1593 60.8077H23.8407L24.6772 54.1154H38.3228L39.1593 60.8077ZM54.9231 51.8846H8.07692C7.18947 51.8846 6.33836 51.5321 5.71083 50.9045C5.08331 50.277 4.73077 49.4259 4.73077 48.5385V45.1923H58.2692V48.5385C58.2692 49.4259 57.9167 50.277 57.2892 50.9045C56.6616 51.5321 55.8105 51.8846 54.9231 51.8846Z" fill="#00C0F3"/>
<path d="M51.5 47.5H53.5V49.5H51.5V47.5Z" fill="#00C0F3"/>
</svg>
