<svg width="61" height="61" viewBox="0 0 61 61" fill="none" xmlns="http://www.w3.org/2000/svg">
<path d="M35.0731 34.8558C33.4509 36.478 31.2987 37.3701 29.0036 37.3701C26.7085 37.3701 24.5563 36.478 22.9341 34.8558C21.3119 33.2355 20.4217 31.0814 20.4217 28.7882C20.4217 26.495 21.3138 24.3409 22.9341 22.7187C24.5563 21.0965 26.7085 20.2043 29.0036 20.2043C31.2987 20.2043 33.4509 21.0965 35.0731 22.7187C36.6953 24.339 37.5855 26.495 37.5855 28.7882C37.5855 31.0814 36.6953 33.2355 35.0731 34.8558ZM61 30.5C61 47.3169 47.3169 61 30.5 61C13.6831 61 0 47.3169 0 30.5C0 13.6831 13.6831 0 30.5 0C47.3169 0 61 13.6812 61 30.5ZM44.0706 41.114L39.0267 36.0567C40.5593 33.9541 41.398 31.4379 41.398 28.7863C41.398 25.4751 40.1094 22.3622 37.7685 20.0213C35.4277 17.6805 32.3167 16.3899 29.0036 16.3899C25.6905 16.3899 22.5795 17.6805 20.2387 20.0213C17.8978 22.3622 16.6092 25.4751 16.6092 28.7863C16.6092 32.0974 17.8997 35.2103 20.2387 37.5493C22.5795 39.8902 25.6905 41.1807 29.0036 41.1807C31.6819 41.1807 34.2248 40.3229 36.3408 38.7598L41.3713 43.8037C41.7431 44.1773 42.2311 44.3642 42.721 44.3642C43.209 44.3642 43.6951 44.1793 44.0668 43.8075C44.8121 43.0679 44.8121 41.8593 44.0706 41.114Z" fill="#22B573"/>
<path fill-rule="evenodd" clip-rule="evenodd" d="M44.0706 41.114L39.0267 36.0567C40.5593 33.9541 41.398 31.4379 41.398 28.7863C41.398 25.4751 40.1094 22.3622 37.7685 20.0213C35.4277 17.6805 32.3167 16.3899 29.0036 16.3899C25.6905 16.3899 22.5795 17.6805 20.2387 20.0213C17.8978 22.3622 16.6092 25.4751 16.6092 28.7863C16.6092 32.0974 17.8997 35.2103 20.2387 37.5493C22.5795 39.8902 25.6905 41.1807 29.0036 41.1807C31.6819 41.1807 34.2248 40.3229 36.3408 38.7598L41.3713 43.8037C41.7431 44.1773 42.2311 44.3642 42.721 44.3642C43.209 44.3642 43.6951 44.1793 44.0668 43.8075C44.8121 43.0679 44.8121 41.8593 44.0706 41.114ZM29.0036 37.3701C31.2987 37.3701 33.4509 36.478 35.0731 34.8558C36.6953 33.2355 37.5855 31.0814 37.5855 28.7882C37.5855 26.495 36.6953 24.339 35.0731 22.7187C33.4509 21.0965 31.2987 20.2043 29.0036 20.2043C26.7085 20.2043 24.5563 21.0965 22.9341 22.7187C21.3138 24.3409 20.4217 26.495 20.4217 28.7882C20.4217 31.0814 21.3119 33.2355 22.9341 34.8558C24.5563 36.478 26.7085 37.3701 29.0036 37.3701Z" fill="white"/>
</svg>
