<svg width="54" height="56" viewBox="0 0 54 56" fill="none" xmlns="http://www.w3.org/2000/svg">
<path fill-rule="evenodd" clip-rule="evenodd" d="M53.306 32.8763L38.0788 32.8549L41.0777 38.8668L37.065 38.8882L34.1505 32.8549H19.1134L16.1566 39.0165L12.165 39.0379L15.2696 32.8763L0.0846419 32.8549C0.401436 35.9571 1.87981 39.1877 3.12586 41.4769C15.5442 64.0908 50.7083 57.4157 53.306 32.8763ZM20.993 28.9398H32.292C31.8062 27.5277 27.5401 19.3337 26.6531 17.3226L20.993 28.9398ZM3.02026 14.6483C2.00652 16.4882 -0.0209559 21.2592 0.000163718 23.8265H19.937L26.5475 10.2411L29.99 16.9589L33.4113 23.8265H53.4116C53.3904 21.4945 51.4686 16.5524 50.5182 14.905C39.4938 -3.75089 14.0024 -4.75643 3.02026 14.6483Z" fill="#00C0F3"/>
</svg>
