<svg width="142" height="31" viewBox="0 0 142 31" fill="none" xmlns="http://www.w3.org/2000/svg">
<path d="M74.6059 23.5107C75.3042 23.5107 75.8397 23.7086 76.2238 24.116C76.6195 24.5234 76.8058 25.0937 76.8058 25.827C76.8058 26.5604 76.6195 27.1307 76.2238 27.5381C75.8513 27.9455 75.3042 28.155 74.6059 28.155H73.0811V23.5107H74.6059ZM73.5234 27.7592H74.5826C75.1529 27.7592 75.5952 27.5846 75.8979 27.2587C76.2121 26.9212 76.3635 26.4439 76.3635 25.8387C76.3635 25.2101 76.2121 24.7446 75.8979 24.407C75.5952 24.0695 75.1529 23.9065 74.5826 23.9065H73.5234V27.7592ZM77.5041 24.6864H77.9232V28.155H77.5041V24.6864ZM77.7137 23.9996C77.6322 23.9996 77.5623 23.9763 77.5158 23.9181C77.4598 23.8671 77.4263 23.7959 77.4227 23.7203C77.4227 23.6388 77.4576 23.5689 77.5158 23.5107C77.5623 23.4525 77.6322 23.4293 77.7137 23.4293C77.7951 23.4293 77.865 23.4525 77.9115 23.5107C77.9697 23.5689 78.0047 23.6388 78.0047 23.7203C78.0047 23.7901 77.9697 23.8599 77.9115 23.9181C77.865 23.9763 77.7951 23.9996 77.7137 23.9996ZM80.0882 27.7825C80.4257 27.7825 80.6934 27.6545 80.9029 27.3984C81.1125 27.154 81.2172 26.8164 81.2172 26.409C81.2172 26.0016 81.1125 25.6641 80.9029 25.408C80.8067 25.2846 80.6828 25.1856 80.5413 25.1189C80.3998 25.0522 80.2446 25.0196 80.0882 25.0239C79.7622 25.0239 79.4945 25.1519 79.285 25.408C79.0871 25.6641 78.9824 26.0016 78.9824 26.409C78.9824 26.8281 79.0871 27.154 79.285 27.4101C79.4829 27.6661 79.7506 27.7825 80.0882 27.7825ZM80.1114 29.3655C79.739 29.3655 79.4131 29.284 79.1686 29.1094C79.0498 29.0436 78.9473 28.9519 78.8687 28.8411C78.7901 28.7303 78.7375 28.6032 78.7147 28.4693H79.1686C79.2035 28.6322 79.3199 28.7486 79.4945 28.8417C79.6691 28.9348 79.8903 28.9814 80.1464 28.9814C80.4606 28.9814 80.7283 28.9116 80.9262 28.7603C81.0195 28.682 81.094 28.5839 81.1443 28.4732C81.1947 28.3624 81.2196 28.2417 81.2172 28.1201V27.4217H81.2056C81.1008 27.6428 80.9495 27.8291 80.74 27.9571C80.5258 28.0976 80.2744 28.1705 80.0183 28.1666C79.576 28.1666 79.2268 28.0037 78.9591 27.6778C78.6798 27.3635 78.5517 26.9328 78.5517 26.409C78.5517 25.8852 78.6798 25.4546 78.9591 25.1403C79.2268 24.8144 79.576 24.6514 80.0183 24.6514C80.2977 24.6514 80.5421 24.7213 80.7516 24.861C80.9728 24.989 81.1241 25.1752 81.2289 25.408V24.6864H81.6362V28.0851C81.6362 28.4809 81.4966 28.7952 81.2289 29.0163C80.9495 29.2491 80.577 29.3655 80.1114 29.3655ZM82.4394 24.6864H82.8584V28.155H82.4394V24.6864ZM82.6489 23.9996C82.5674 23.9996 82.4976 23.9763 82.451 23.9181C82.395 23.8671 82.3615 23.7959 82.3579 23.7203C82.3579 23.6388 82.3928 23.5689 82.451 23.5107C82.4976 23.4525 82.5674 23.4293 82.6489 23.4293C82.7304 23.4293 82.8002 23.4525 82.8468 23.5107C82.905 23.5689 82.9399 23.6388 82.9399 23.7203C82.9399 23.7901 82.905 23.8599 82.8468 23.9181C82.8002 23.9763 82.7304 23.9996 82.6489 23.9996ZM84.2668 23.8599V24.6864H84.9652V25.0472H84.2668V27.282C84.2668 27.4682 84.3134 27.5963 84.3832 27.6778C84.4531 27.7592 84.5695 27.7942 84.7324 27.7942C84.8255 27.7942 84.9186 27.7942 84.9768 27.7825V28.155C84.9303 28.1666 84.8139 28.1783 84.6509 28.1783C84.3599 28.1783 84.1621 28.1084 84.034 27.9688C83.906 27.8291 83.8478 27.6079 83.8478 27.3053V25.0472H83.3473V24.6864H83.8478V23.8599H84.2668ZM86.6413 27.8174C86.9556 27.8174 87.2117 27.7243 87.4212 27.5381C87.6307 27.3518 87.7354 27.1191 87.7354 26.8513V26.4672L86.7228 26.5371C86.1292 26.572 85.8265 26.7931 85.8265 27.1889C85.8265 27.3751 85.908 27.5264 86.0477 27.6428C86.199 27.7592 86.3969 27.8174 86.6413 27.8174ZM86.5598 28.1899C86.2107 28.1899 85.9313 28.0968 85.7101 27.9105C85.6071 27.8214 85.5254 27.7103 85.471 27.5854C85.4166 27.4605 85.3909 27.325 85.3959 27.1889C85.3959 26.5836 85.8149 26.2577 86.6646 26.1879L87.7354 26.118V25.827C87.7354 25.571 87.654 25.3731 87.5027 25.2334C87.3513 25.0937 87.1302 25.0239 86.8508 25.0239C86.6064 25.0239 86.4085 25.0821 86.2572 25.1985C86.0943 25.3149 86.0011 25.4779 85.9546 25.6874H85.5472C85.5705 25.3847 85.6985 25.1403 85.9429 24.9424C86.1874 24.7446 86.49 24.6514 86.8625 24.6514C87.2582 24.6514 87.5725 24.7562 87.8053 24.9541C88.0381 25.1636 88.1545 25.4429 88.1545 25.7921V28.155H87.7471V27.4915C87.654 27.701 87.491 27.8756 87.2815 28.0037C87.0603 28.1317 86.8159 28.1899 86.5598 28.1899ZM88.9343 23.3129H89.365V28.155H88.9343V23.3129ZM96.1393 28.155H95.7319V24.3488H95.7087L94.1024 28.1317H93.7183L92.1003 24.3488H92.0887V28.155H91.6697V23.5107H92.1818L93.8929 27.573H93.9161L95.6388 23.5107H96.1393V28.155ZM98.0715 27.8174C98.3742 27.8174 98.6419 27.7243 98.8514 27.5381C99.0609 27.3518 99.1657 27.1191 99.1657 26.8513V26.4672L98.153 26.5371C97.5594 26.572 97.2567 26.7931 97.2567 27.1889C97.2567 27.3751 97.3266 27.5264 97.4779 27.6428C97.6292 27.7592 97.8271 27.8174 98.0715 27.8174ZM97.9784 28.1899C97.6408 28.1899 97.3615 28.0968 97.1403 27.9105C97.0373 27.8214 96.9556 27.7103 96.9012 27.5854C96.8468 27.4605 96.8211 27.325 96.8261 27.1889C96.8261 26.5836 97.2451 26.2577 98.0948 26.1879L99.1657 26.118V25.827C99.1657 25.571 99.0842 25.3731 98.9329 25.2334C98.7815 25.0937 98.5604 25.0239 98.281 25.0239C98.0366 25.0239 97.8387 25.0821 97.6874 25.1985C97.5245 25.3149 97.4197 25.4779 97.3848 25.6874H96.9774C96.989 25.3847 97.1287 25.1403 97.3731 24.9424C97.6176 24.7446 97.9202 24.6514 98.281 24.6514C98.6884 24.6514 99.0027 24.7562 99.2355 24.9541C99.4683 25.1636 99.5847 25.4429 99.5847 25.7921V28.155H99.1773V27.4915C99.0725 27.701 98.9212 27.8756 98.7117 28.0037C98.4905 28.1317 98.2461 28.1899 97.9784 28.1899ZM100.33 24.6864H100.737V25.3033H100.749C100.807 25.0937 100.912 24.9308 101.063 24.8144C101.182 24.7372 101.316 24.6859 101.457 24.6639C101.597 24.6418 101.74 24.6495 101.878 24.6864V25.1054C101.778 25.0674 101.67 25.0515 101.563 25.0588C101.319 25.0588 101.121 25.1403 100.981 25.3265C100.83 25.5011 100.76 25.7223 100.76 26.0016V28.155H100.33V24.6864ZM104.566 24.6864H105.09L103.531 26.1879L105.125 28.155H104.625L103.228 26.444L102.832 26.8048V28.155H102.401V23.3129H102.832V26.3392L104.566 24.6864ZM106.766 25.0239C106.622 25.0182 106.479 25.0444 106.346 25.1008C106.213 25.1571 106.094 25.2422 105.998 25.3498C105.8 25.5593 105.684 25.827 105.661 26.1762H107.826C107.814 25.827 107.721 25.5593 107.523 25.3498C107.429 25.2424 107.313 25.1574 107.182 25.101C107.051 25.0446 106.909 25.0183 106.766 25.0239ZM108.221 27.1773C108.163 27.4682 108.012 27.7127 107.744 27.8989C107.488 28.0968 107.162 28.1899 106.79 28.1899C106.312 28.1899 105.928 28.0386 105.649 27.7243C105.37 27.3984 105.218 26.9677 105.218 26.4323C105.218 25.8852 105.37 25.4546 105.649 25.1403C105.928 24.8144 106.301 24.6514 106.766 24.6514C107.22 24.6514 107.581 24.8028 107.861 25.1054C108.128 25.408 108.268 25.827 108.268 26.3392V26.5254H105.661V26.5487C105.661 26.9328 105.765 27.2471 105.975 27.4799C106.184 27.701 106.464 27.8174 106.801 27.8174C107.057 27.8174 107.279 27.7592 107.453 27.6312C107.628 27.5148 107.744 27.3635 107.802 27.1773H108.221ZM109.467 23.8599V24.6864H110.165V25.0472H109.467V27.282C109.467 27.4682 109.513 27.5963 109.583 27.6778C109.653 27.7592 109.769 27.7942 109.932 27.7942C110.026 27.7942 110.119 27.7942 110.177 27.7825V28.155C110.13 28.1666 110.026 28.1783 109.851 28.1783C109.56 28.1783 109.362 28.1084 109.234 27.9688C109.106 27.8291 109.048 27.6079 109.048 27.3053V25.0472H108.547V24.6864H109.048V23.8599H109.467ZM110.817 24.6864H111.236V28.155H110.817V24.6864ZM111.027 23.9996C110.99 24.0011 110.953 23.9946 110.919 23.9805C110.885 23.9665 110.854 23.9452 110.829 23.9181C110.773 23.8671 110.739 23.7959 110.736 23.7203C110.736 23.6388 110.77 23.5689 110.829 23.5107C110.887 23.4525 110.945 23.4293 111.027 23.4293C111.108 23.4293 111.178 23.4525 111.236 23.5107C111.283 23.5689 111.318 23.6388 111.318 23.7203C111.318 23.7901 111.283 23.8599 111.236 23.9181C111.178 23.9763 111.108 23.9996 111.027 23.9996ZM112.039 24.6864H112.435V25.3382H112.447C112.656 24.8726 113.04 24.6514 113.611 24.6514C113.995 24.6514 114.297 24.7678 114.53 24.989C114.751 25.2218 114.868 25.536 114.868 25.9202V28.155H114.437V25.99C114.437 25.6874 114.355 25.4546 114.193 25.28C114.03 25.117 113.797 25.0239 113.494 25.0239C113.192 25.0239 112.935 25.1287 112.749 25.3265C112.555 25.5435 112.451 25.8267 112.458 26.118V28.155H112.039V24.6864ZM116.986 27.7825C117.312 27.7825 117.591 27.6545 117.801 27.3984C117.999 27.154 118.103 26.8164 118.103 26.409C118.103 26.0016 117.999 25.6641 117.801 25.408C117.704 25.2855 117.58 25.1871 117.438 25.1205C117.297 25.0539 117.142 25.0208 116.986 25.0239C116.649 25.0239 116.381 25.1519 116.183 25.408C115.973 25.6641 115.88 26.0016 115.88 26.409C115.88 26.8281 115.973 27.154 116.183 27.4101C116.381 27.6661 116.649 27.7825 116.986 27.7825ZM117.009 29.3655C116.625 29.3655 116.311 29.284 116.055 29.1094C115.939 29.0413 115.839 28.9487 115.763 28.8382C115.687 28.7276 115.635 28.6017 115.613 28.4693H116.055C116.101 28.6322 116.206 28.7486 116.381 28.8417C116.555 28.9348 116.777 28.9814 117.033 28.9814C117.359 28.9814 117.615 28.9116 117.812 28.7603C117.908 28.6838 117.984 28.586 118.034 28.4748C118.085 28.3636 118.108 28.2421 118.103 28.1201V27.4217C117.999 27.6428 117.847 27.8291 117.638 27.9571C117.428 28.0968 117.184 28.1666 116.905 28.1666C116.474 28.1666 116.113 28.0037 115.845 27.6778C115.578 27.3635 115.438 26.9328 115.438 26.409C115.438 25.8852 115.578 25.4546 115.845 25.1403C116.113 24.8144 116.474 24.6514 116.916 24.6514C117.184 24.6514 117.428 24.7213 117.65 24.861C117.859 24.989 118.022 25.1752 118.115 25.408H118.127V24.6864H118.534V28.0851C118.534 28.4809 118.394 28.7952 118.115 29.0163C117.847 29.2491 117.475 29.3655 117.009 29.3655ZM123.376 26.7349H121.432L120.92 28.155H120.455L122.189 23.5107H122.62L124.354 28.155H123.9L123.376 26.7349ZM121.56 26.3508H123.248L122.41 24.0578H122.399L121.56 26.3508ZM126.1 27.7825C126.438 27.7825 126.705 27.6545 126.915 27.3984C127.124 27.154 127.229 26.8164 127.229 26.409C127.229 26.0016 127.124 25.6641 126.915 25.408C126.819 25.2846 126.695 25.1856 126.553 25.1189C126.412 25.0522 126.256 25.0196 126.1 25.0239C125.774 25.0239 125.506 25.1519 125.297 25.408C125.099 25.6641 124.994 26.0016 124.994 26.409C124.994 26.8281 125.099 27.154 125.297 27.4101C125.506 27.6661 125.762 27.7825 126.1 27.7825ZM126.135 29.3655C125.751 29.3655 125.425 29.284 125.18 29.1094C125.062 29.0451 124.959 28.9535 124.883 28.8423C124.806 28.7311 124.756 28.6032 124.738 28.4693H125.18C125.215 28.6322 125.332 28.7486 125.506 28.8417C125.681 28.9348 125.902 28.9814 126.158 28.9814C126.484 28.9814 126.74 28.9116 126.938 28.7603C127.031 28.682 127.106 28.5839 127.156 28.4732C127.206 28.3624 127.231 28.2417 127.229 28.1201V27.4217H127.217C127.113 27.6428 126.961 27.8291 126.752 27.9571C126.538 28.0976 126.286 28.1705 126.03 28.1666C125.588 28.1666 125.239 28.0037 124.971 27.6778C124.692 27.3635 124.564 26.9328 124.564 26.409C124.564 25.8852 124.692 25.4546 124.971 25.1403C125.239 24.8144 125.599 24.6514 126.042 24.6514C126.309 24.6514 126.554 24.7213 126.775 24.861C126.985 24.989 127.136 25.1752 127.241 25.408V24.6864H127.648V28.0851C127.648 28.4809 127.508 28.7952 127.241 29.0163C126.961 29.2491 126.589 29.3655 126.135 29.3655ZM129.778 25.0239C129.634 25.0205 129.491 25.0479 129.359 25.1041C129.226 25.1602 129.107 25.244 129.01 25.3498C128.812 25.5593 128.707 25.827 128.684 26.1762H130.837C130.837 25.827 130.733 25.5593 130.546 25.3498C130.45 25.2422 130.332 25.1571 130.199 25.1008C130.066 25.0444 129.922 25.0182 129.778 25.0239ZM131.233 27.1773C131.187 27.4682 131.035 27.7127 130.767 27.8989C130.5 28.0968 130.185 28.1899 129.813 28.1899C129.336 28.1899 128.952 28.0386 128.672 27.7243C128.381 27.3984 128.242 26.9677 128.242 26.4323C128.242 25.8852 128.381 25.4546 128.661 25.1403C128.952 24.8144 129.324 24.6514 129.79 24.6514C130.244 24.6514 130.605 24.8028 130.884 25.1054C131.152 25.408 131.28 25.827 131.28 26.3392V26.5254H128.684V26.5487C128.684 26.9328 128.789 27.2471 128.998 27.4799C129.196 27.701 129.475 27.8174 129.825 27.8174C130.081 27.8174 130.29 27.7592 130.476 27.6312C130.651 27.5148 130.767 27.3635 130.814 27.1773H131.233ZM131.873 24.6864H132.281V25.3382H132.292C132.49 24.8726 132.886 24.6514 133.456 24.6514C133.84 24.6514 134.143 24.7678 134.364 24.989C134.597 25.2218 134.702 25.536 134.702 25.9202V28.155H134.283V25.99C134.283 25.6874 134.201 25.4546 134.027 25.28C133.864 25.117 133.631 25.0239 133.34 25.0239C133.026 25.0239 132.781 25.1287 132.595 25.3265C132.397 25.5361 132.304 25.7921 132.304 26.118V28.155H131.873V24.6864ZM137.844 25.7805C137.804 25.5684 137.688 25.3782 137.519 25.2451C137.324 25.0981 137.087 25.0203 136.843 25.0239C136.506 25.0239 136.227 25.1519 136.029 25.408C135.819 25.6641 135.714 26.0016 135.714 26.4207C135.714 26.8513 135.819 27.1889 136.029 27.4333C136.227 27.6894 136.506 27.8058 136.843 27.8058C137.111 27.8058 137.332 27.7476 137.507 27.6196C137.681 27.4915 137.798 27.3169 137.844 27.0841H138.275C138.217 27.41 138.066 27.6778 137.81 27.8873C137.542 28.0851 137.228 28.1899 136.843 28.1899C136.378 28.1899 135.994 28.0386 135.714 27.7127C135.423 27.3984 135.284 26.9677 135.284 26.4207C135.284 25.8852 135.423 25.4546 135.714 25.1287C135.994 24.8144 136.366 24.6514 136.843 24.6514C137.228 24.6514 137.553 24.7562 137.821 24.989C138.077 25.1985 138.229 25.4546 138.263 25.7805H137.844ZM139.078 29.3655C139.008 29.3655 138.939 29.3539 138.869 29.3306V28.9698C138.927 28.9814 138.997 28.993 139.078 28.993C139.23 28.993 139.358 28.9465 139.462 28.8534C139.555 28.7603 139.649 28.6089 139.718 28.3878L139.8 28.1783L138.496 24.6864H138.95L140.009 27.7243H140.021L141.092 24.6864H141.534L140.184 28.3179C140.033 28.7253 139.881 29.0047 139.73 29.1444C139.579 29.284 139.358 29.3655 139.078 29.3655Z" fill="black"/>
<path d="M43.2139 14.5456H38.8956L37.9528 17.5253H35.3105L39.5823 5.22217H42.6086L46.8921 17.5253H44.1567L43.2139 14.5456ZM39.4426 12.6134H42.6668L41.0838 7.5734H41.0256L39.4426 12.6134ZM53.8177 8.1321H56.6578L53.0378 12.1711L56.8207 17.5253H53.9574L51.2104 13.6726L50.5353 14.3943V17.5253H48.0444V4.62854H50.5353V11.9383H50.5702L53.8177 8.1321ZM66.3653 17.5253H63.9559V15.8259H63.9093C63.4088 17.0598 62.4311 17.665 60.9528 17.665C59.9285 17.665 59.1021 17.3508 58.4852 16.7222C57.8567 16.0937 57.5424 15.244 57.5424 14.1615V8.1321H60.0333V13.6377C60.0333 14.2662 60.1963 14.7435 60.5338 15.0927C60.8597 15.4302 61.3137 15.5932 61.8957 15.5932C62.4893 15.5932 62.9549 15.3953 63.3273 15.0112C63.6882 14.6271 63.8744 14.1149 63.8744 13.4864V8.1321H66.3653V17.5253ZM71.5566 17.6417C70.381 17.6417 69.4498 17.2111 68.7631 16.3381C68.0647 15.4768 67.7039 14.3011 67.7039 12.8229C67.7039 11.3563 68.0647 10.1923 68.7631 9.31935C69.4615 8.45801 70.3926 8.02734 71.5682 8.02734C72.2317 8.02734 72.8253 8.17865 73.3375 8.49293C73.838 8.79556 74.1988 9.2146 74.4433 9.73838H74.4898V4.62854H76.9807V17.5253H74.5247V15.9307H74.4782C74.2454 16.4429 73.8729 16.8619 73.3608 17.1762C72.837 17.4788 72.2434 17.6417 71.5566 17.6417ZM72.383 10.041C71.7312 10.041 71.2191 10.2854 70.835 10.786C70.4508 11.2981 70.2646 11.9732 70.2646 12.8345C70.2646 13.6842 70.4508 14.371 70.835 14.8715C71.2191 15.372 71.7312 15.6281 72.383 15.6281C73.0232 15.6281 73.5354 15.372 73.9311 14.8715C74.3152 14.3593 74.5131 13.6842 74.5131 12.8345C74.5131 11.9848 74.3152 11.3097 73.9311 10.7976C73.5354 10.2971 73.0232 10.041 72.383 10.041ZM78.7616 8.1321H81.2525V17.5253H78.7616V8.1321ZM80.007 7.10781C79.6346 7.10781 79.3203 6.99141 79.0642 6.73534C78.7965 6.4909 78.6685 6.17663 78.6685 5.80415C78.6685 5.44332 78.7965 5.12906 79.0642 4.87298C79.3203 4.62855 79.6346 4.51215 80.007 4.51215C80.3795 4.51215 80.7054 4.62855 80.9615 4.87298C81.2292 5.12906 81.3573 5.44332 81.3573 5.80415C81.3573 6.17663 81.2292 6.4909 80.9615 6.73534C80.7054 6.99141 80.3795 7.10781 80.007 7.10781ZM82.9868 8.1321H85.3962V9.81986H85.4428C85.9899 8.60933 87.0025 8.00406 88.4691 8.00406C89.5051 8.00406 90.3198 8.3067 90.9251 8.93524C91.5071 9.55215 91.8097 10.4135 91.8097 11.5076V17.5253H89.3188V12.0314C89.3188 11.4029 89.1559 10.9256 88.8416 10.5881C88.5157 10.2389 88.0617 10.0759 87.4681 10.0759C86.8745 10.0759 86.3972 10.2622 86.0364 10.6579C85.6639 11.042 85.4777 11.5425 85.4777 12.1711V17.5253H82.9868V8.1321ZM97.746 17.6883C96.3143 17.6883 95.1852 17.2576 94.3588 16.3963C93.5324 15.535 93.1134 14.3361 93.1134 12.8345C93.1134 11.333 93.5324 10.1458 94.3705 9.27279C95.1969 8.41145 96.3259 7.96914 97.746 7.96914C99.166 7.96914 100.295 8.41145 101.121 9.27279C101.96 10.1458 102.379 11.333 102.379 12.8345C102.379 14.3477 101.96 15.535 101.133 16.4079C100.307 17.2576 99.1777 17.6883 97.746 17.6883ZM97.746 15.7677C98.4094 15.7677 98.9216 15.5117 99.294 14.9995C99.6549 14.4874 99.8411 13.7657 99.8411 12.8345C99.8411 11.9034 99.6549 11.1817 99.2824 10.6579C98.9099 10.1458 98.3978 9.8897 97.746 9.8897C97.0825 9.8897 96.5704 10.1458 96.1979 10.6579C95.8254 11.1817 95.6392 11.9034 95.6392 12.8345C95.6392 13.7657 95.8254 14.4874 96.1979 14.9995C96.5704 15.5117 97.0825 15.7677 97.746 15.7677ZM108.78 17.5253H105.987L102.728 8.1321H105.393L107.384 15.3022H107.43L109.421 8.1321H112.028L108.78 17.5253Z" fill="#00C0F3"/>
<path d="M118.965 6.04858V8.13209H120.711V10.0177H118.965V14.5805C118.965 15.3022 119.338 15.663 120.083 15.663C120.327 15.663 120.537 15.6513 120.711 15.6164V17.4555C120.362 17.5253 119.966 17.5603 119.501 17.5603C118.418 17.5603 117.638 17.3624 117.173 16.9666C116.707 16.5709 116.474 15.9074 116.474 14.9995V10.0177H115.206V8.13209H116.474V6.04858H118.965ZM126.287 17.6883C124.855 17.6883 123.726 17.2576 122.9 16.3963C122.073 15.5349 121.654 14.3361 121.654 12.8229C121.654 11.333 122.073 10.1458 122.911 9.27279C123.749 8.41145 124.867 7.96914 126.287 7.96914C127.707 7.96914 128.836 8.41145 129.662 9.27279C130.5 10.1458 130.919 11.333 130.919 12.8229C130.919 14.3477 130.5 15.535 129.674 16.4079C128.847 17.2576 127.718 17.6883 126.287 17.6883ZM126.287 15.7677C126.95 15.7677 127.462 15.5117 127.835 14.9995C128.196 14.4874 128.382 13.7657 128.382 12.8229C128.382 11.9034 128.196 11.1817 127.823 10.6579C127.451 10.1458 126.938 9.88969 126.287 9.88969C125.623 9.88969 125.111 10.1458 124.739 10.6579C124.366 11.1817 124.18 11.9034 124.18 12.8229C124.18 13.7657 124.366 14.4874 124.739 14.9995C125.111 15.5117 125.623 15.7677 126.287 15.7677ZM137.682 8.02734C138.881 8.02734 139.824 8.45801 140.51 9.30771C141.197 10.169 141.535 11.333 141.535 12.8229C141.535 14.3244 141.197 15.4884 140.51 16.3497C139.824 17.2111 138.892 17.6417 137.717 17.6417C136.308 17.6417 135.342 17.0714 134.795 15.954H134.749V20.4818H132.258V8.13209H134.714V9.73838H134.76C135.016 9.21459 135.401 8.79556 135.913 8.48129C136.436 8.17866 137.018 8.02734 137.682 8.02734ZM136.856 15.6281C137.507 15.6281 138.019 15.372 138.404 14.8715C138.799 14.3593 138.986 13.6842 138.986 12.8229C138.986 11.9848 138.799 11.3097 138.404 10.7976C138.019 10.2971 137.496 10.041 136.856 10.041C136.215 10.041 135.703 10.2971 135.319 10.8092C134.935 11.3214 134.737 11.9965 134.737 12.8345C134.737 13.6842 134.935 14.3593 135.319 14.8715C135.703 15.372 136.215 15.6281 136.856 15.6281ZM113.355 17.6301C112.971 17.6301 112.645 17.5021 112.377 17.2343C112.109 16.9666 111.981 16.6407 111.981 16.2566C111.981 15.8725 112.109 15.5466 112.377 15.2905C112.645 15.0228 112.971 14.8831 113.355 14.8831C113.739 14.8831 114.065 15.0228 114.333 15.2905C114.589 15.5466 114.728 15.8725 114.728 16.2566C114.728 16.6407 114.589 16.9666 114.333 17.2343C114.065 17.5021 113.739 17.6301 113.355 17.6301Z" fill="black"/>
<path fill-rule="evenodd" clip-rule="evenodd" d="M30.115 18.3065L21.5125 18.2944L23.2067 21.6908L20.9397 21.7029L19.2932 18.2944H10.798L9.12763 21.7754L6.87259 21.7875L8.62651 18.3065L0.0478181 18.2944C0.22679 20.047 1.06199 21.8721 1.76594 23.1654C8.78162 35.941 28.6474 32.17 30.115 18.3065ZM11.8599 16.0826H18.2432C17.9688 15.2848 15.5587 10.6556 15.0576 9.51949L11.8599 16.0826ZM1.70629 8.00865C1.13358 9.04811 -0.0118389 11.7434 9.24917e-05 13.1938H11.2634L14.9979 5.5188L16.9427 9.31402L18.8756 13.1938H30.1747C30.1627 11.8764 29.077 9.08437 28.5401 8.1537C22.3119 -2.3859 7.91063 -2.95398 1.70629 8.00865Z" fill="#00C0F3"/>
</svg>
