<svg width="684" height="259" viewBox="0 0 684 259" fill="none" xmlns="http://www.w3.org/2000/svg">
<g clip-path="url(#clip0_660_3811)">
<path d="M683.803 214.313H-0.197266V228.545H683.803V214.313Z" fill="#3C4D6B"/>
<path d="M165.947 265.985H150.841L149.51 228.531H167.292L165.947 265.985Z" fill="#3C4D6B"/>
<path d="M539.546 265.985H524.441L523.109 228.531H540.892L539.546 265.985Z" fill="#3C4D6B"/>
<path d="M166.807 242.274H149.995L149.51 228.531H167.292L166.807 242.274Z" fill="#22334C"/>
<path d="M540.393 242.274H523.595L523.109 228.531H540.892L540.393 242.274Z" fill="#22334C"/>
<path d="M148.026 201.74C151.508 201.74 159.581 201.28 165.101 197.419C168.735 194.868 170.58 191.425 170.58 187.16C170.58 182.448 168.68 178.74 164.949 176.148C158.901 171.952 150.37 172.51 149.996 172.524L150.675 178.266C150.675 178.266 156.335 177.946 159.872 180.427C161.953 181.891 163.007 184.149 163.007 187.16C163.007 189.794 162.008 191.759 159.983 193.181C155.433 196.373 147.055 195.955 146.972 195.955L146.348 201.698C146.445 201.698 147.069 201.74 148.04 201.74H148.026Z" fill="#00C0F3"/>
<path d="M155.336 161.024H99.8516L108.063 213.867H146.708L155.336 161.024Z" fill="#00C0F3"/>
<path d="M127.857 149.44C131.241 146.89 134.015 144.227 136.651 140.91C139.175 137.592 141.436 133.661 142.407 128.769C143.434 123.89 142.407 118.064 139.73 113.645C137.109 109.198 133.558 105.992 130.007 103.4C129.521 103.037 129.174 102.773 128.842 102.508L127.815 101.699L125.804 100.054C124.5 98.9532 123.224 97.8381 122.045 96.723C119.728 94.5485 117.551 92.0952 116.899 90.4922C116.58 89.7395 116.857 89.3632 117.287 90.2134C117.467 90.6037 117.606 91.2449 117.62 91.7189C117.634 92.2067 117.606 92.5273 117.717 92.5831C117.814 92.7364 118.522 92.0952 119.451 91.4122C120.394 90.6874 121.629 89.8231 122.96 88.9032C129.091 84.7075 130.673 76.3162 126.497 70.1552C122.322 63.9941 113.972 62.4051 107.841 66.6007C107.009 67.1722 106.246 67.8273 105.58 68.5382L105.302 68.8449C103.915 70.3503 102.459 71.9533 100.919 73.9048C99.3796 75.898 97.7012 78.0725 96.1476 81.5015C94.608 84.7215 93.6092 90.0183 94.8021 94.4648C95.9118 98.9253 98.1034 101.783 100.004 103.902C101.96 106.006 103.86 107.484 105.705 108.78C107.55 110.063 109.367 111.192 111.156 112.167C112.945 113.171 114.721 114.063 116.483 114.927L121.601 117.297C124.236 118.51 126.497 119.987 127.995 121.604C129.452 123.221 130.284 124.922 130.367 127.333C130.492 132.17 126.927 138.707 122.78 143.502L122.558 143.767C121.143 145.398 121.31 147.879 122.946 149.301C124.361 150.542 126.4 150.569 127.843 149.482L127.857 149.44Z" fill="#C2E1FE" fill-opacity="0.46"/>
<path d="M213.484 155.755H479.474V165.066C479.474 174.823 471.582 182.755 461.872 182.755H231.101C221.391 182.755 213.498 174.823 213.498 165.066V155.755H213.484Z" fill="#286AB3"/>
<path d="M374.291 182.769H319.709V206.395H374.291V182.769Z" fill="#1A5BA4"/>
<path d="M225.788 0H467.143C473.94 0 479.461 5.54774 479.461 12.3779V156.201H213.484V12.3779C213.484 5.54774 219.005 0 225.802 0H225.788Z" fill="#286AB3"/>
<path d="M470.335 11.2349H224.291V146.555H470.335V11.2349Z" fill="#EAF1F8"/>
<path d="M352.485 168.049C352.485 171.381 349.794 174.085 346.479 174.085C343.164 174.085 340.473 171.381 340.473 168.049C340.473 164.718 343.164 162.013 346.479 162.013C349.794 162.013 352.485 164.718 352.485 168.049Z" fill="white"/>
<path d="M397.648 214.313H295.363C295.363 209.95 298.887 206.409 303.228 206.409H389.769C394.111 206.409 397.634 209.95 397.634 214.313H397.648Z" fill="#194A81"/>
<g filter="url(#filter0_d_660_3811)">
<path d="M273.92 172.482H236.635V194.575H273.92V172.482Z" fill="white"/>
</g>
<path d="M261.365 168.356H247.758V176.622H261.365V168.356Z" fill="#00C0F3"/>
<path d="M455.073 27.7387H355.285C352.643 27.7387 350.5 29.8918 350.5 32.5477V128.128C350.5 130.784 352.643 132.937 355.285 132.937H455.073C457.716 132.937 459.859 130.784 459.859 128.128V32.5477C459.859 29.8918 457.716 27.7387 455.073 27.7387Z" fill="white" fill-opacity="0.9"/>
<path d="M329.908 74.1874H241.173C237.765 74.1874 235.002 76.4062 235.002 79.1433V127.981C235.002 130.718 237.765 132.937 241.173 132.937H329.908C333.316 132.937 336.08 130.718 336.08 127.981V79.1433C336.08 76.4062 333.316 74.1874 329.908 74.1874Z" fill="white" fill-opacity="0.9"/>
<path d="M322.283 112.591H248.818C247.668 112.591 246.736 113.347 246.736 114.278V114.431C246.736 115.363 247.668 116.118 248.818 116.118H322.283C323.433 116.118 324.365 115.363 324.365 114.431V114.278C324.365 113.347 323.433 112.591 322.283 112.591Z" fill="#DAE6F5"/>
<path d="M290.695 120.885H248.818C247.668 120.885 246.736 121.64 246.736 122.572V122.725C246.736 123.657 247.668 124.412 248.818 124.412H290.695C291.845 124.412 292.777 123.657 292.777 122.725V122.572C292.777 121.64 291.845 120.885 290.695 120.885Z" fill="#DAE6F5"/>
<path d="M263.699 100.313C268.054 95.9363 268.054 88.8404 263.699 84.4638C259.343 80.0872 252.282 80.0872 247.927 84.4638C243.572 88.8404 243.572 95.9363 247.927 100.313C252.282 104.69 259.343 104.69 263.699 100.313Z" fill="#00C0F3"/>
<path d="M439.594 46.7377H371.127V115.541H439.594V46.7377Z" fill="#C2E1FE"/>
<path d="M421.311 87.1191C427.126 87.1191 431.839 82.3824 431.839 76.5393C431.839 70.6963 427.126 65.9596 421.311 65.9596C415.497 65.9596 410.783 70.6963 410.783 76.5393C410.783 82.3824 415.497 87.1191 421.311 87.1191Z" fill="#EAF1F8"/>
<path d="M407.869 93.9911L420.089 79.2993L440.452 97.7825V115.541H407.869V93.9911Z" fill="white"/>
<path d="M371.127 93.7122L384.929 72.4273L428.872 115.541H371.127V93.7122Z" fill="#286AB3"/>
<path d="M516.968 150.862C510.588 150.862 505.428 156.062 505.428 162.46C505.428 168.858 510.602 174.057 516.968 174.057H629.573V168.579H518.883C515.526 168.579 512.793 165.833 512.793 162.46C512.793 159.086 515.526 156.34 518.883 156.34H629.573V150.862H516.968Z" fill="#286AB3"/>
<path d="M512.793 162.46C512.793 165.833 515.526 168.579 518.882 168.579H624.385V156.34H518.882C515.526 156.34 512.793 159.086 512.793 162.46Z" fill="white"/>
<path d="M518.632 174.168C507.84 174.168 499.102 182.95 499.102 193.795C499.102 204.639 507.84 213.421 518.632 213.421H618.212V206.186H519.866C513.083 206.186 507.591 200.666 507.591 193.85C507.591 187.034 513.083 181.514 519.866 181.514H618.212V174.168H518.632Z" fill="#00C0F3"/>
<path d="M507.59 193.836C507.59 200.653 513.083 206.172 519.866 206.172H613.245V181.5H519.866C513.083 181.5 507.59 187.02 507.59 193.836Z" fill="white"/>
<path d="M525.344 189.724H536.427V202.019L530.892 198.673L525.344 202.019V189.724Z" fill="#286AB3"/>
<path d="M288.286 44.5703C288.785 44.5703 289.167 44.7121 289.442 45.004C289.724 45.2958 289.857 45.7044 289.857 46.2297C289.857 46.7551 289.724 47.1636 289.442 47.4555C289.176 47.7473 288.785 47.8974 288.286 47.8974H287.197V44.5703H288.286ZM287.513 47.6139H288.27C288.677 47.6139 288.993 47.4889 289.209 47.2554C289.433 47.0136 289.541 46.6717 289.541 46.2381C289.541 45.7878 289.433 45.4542 289.209 45.2124C288.993 44.9706 288.677 44.8539 288.27 44.8539H287.513V47.6139ZM290.356 45.4125H290.655V47.8974H290.356V45.4125ZM290.506 44.9206C290.447 44.9206 290.398 44.9039 290.364 44.8622C290.324 44.8256 290.3 44.7747 290.298 44.7204C290.298 44.6621 290.323 44.612 290.364 44.5703C290.398 44.5287 290.447 44.512 290.506 44.512C290.564 44.512 290.614 44.5287 290.647 44.5703C290.689 44.612 290.713 44.6621 290.713 44.7204C290.713 44.7705 290.689 44.8205 290.647 44.8622C290.614 44.9039 290.564 44.9206 290.506 44.9206ZM292.201 47.6306C292.442 47.6306 292.634 47.5389 292.783 47.3554C292.933 47.1803 293.008 46.9385 293.008 46.6467C293.008 46.3548 292.933 46.113 292.783 45.9295C292.715 45.8412 292.626 45.7702 292.525 45.7224C292.424 45.6746 292.313 45.6513 292.201 45.6544C291.969 45.6544 291.777 45.7461 291.628 45.9295C291.487 46.113 291.412 46.3548 291.412 46.6467C291.412 46.9468 291.487 47.1803 291.628 47.3638C291.769 47.5472 291.96 47.6306 292.201 47.6306ZM292.218 48.7647C291.952 48.7647 291.719 48.7063 291.545 48.5812C291.46 48.5341 291.387 48.4683 291.33 48.389C291.274 48.3096 291.237 48.2185 291.221 48.1226H291.545C291.57 48.2393 291.653 48.3227 291.777 48.3894C291.902 48.4561 292.06 48.4895 292.243 48.4895C292.467 48.4895 292.659 48.4395 292.8 48.3311C292.866 48.275 292.92 48.2047 292.956 48.1254C292.992 48.046 293.009 47.9596 293.008 47.8724V47.3721H292.999C292.925 47.5305 292.817 47.664 292.667 47.7557C292.514 47.8563 292.334 47.9086 292.152 47.9058C291.836 47.9058 291.586 47.789 291.395 47.5556C291.196 47.3304 291.104 47.0219 291.104 46.6467C291.104 46.2714 291.196 45.9629 291.395 45.7377C291.586 45.5043 291.836 45.3875 292.152 45.3875C292.351 45.3875 292.526 45.4376 292.675 45.5376C292.833 45.6293 292.941 45.7628 293.016 45.9295V45.4125H293.307V47.8474C293.307 48.1309 293.207 48.3561 293.016 48.5145C292.817 48.6813 292.551 48.7647 292.218 48.7647ZM293.881 45.4125H294.18V47.8974H293.881V45.4125ZM294.03 44.9206C293.972 44.9206 293.922 44.9039 293.889 44.8622C293.849 44.8256 293.825 44.7747 293.822 44.7204C293.822 44.6621 293.847 44.612 293.889 44.5703C293.922 44.5287 293.972 44.512 294.03 44.512C294.088 44.512 294.138 44.5287 294.171 44.5703C294.213 44.612 294.238 44.6621 294.238 44.7204C294.238 44.7705 294.213 44.8205 294.171 44.8622C294.138 44.9039 294.088 44.9206 294.03 44.9206ZM295.186 44.8205V45.4125H295.684V45.671H295.186V47.2721C295.186 47.4055 295.219 47.4972 295.269 47.5556C295.319 47.6139 295.402 47.6389 295.518 47.6389C295.585 47.6389 295.651 47.639 295.693 47.6306V47.8974C295.659 47.9058 295.576 47.9141 295.46 47.9141C295.252 47.9141 295.111 47.8641 295.019 47.764C294.928 47.664 294.886 47.5055 294.886 47.2887V45.671H294.529V45.4125H294.886V44.8205H295.186ZM296.881 47.6556C297.106 47.6556 297.289 47.5889 297.438 47.4555C297.588 47.3221 297.663 47.1553 297.663 46.9635V46.6883L296.939 46.7384C296.516 46.7634 296.299 46.9218 296.299 47.2053C296.299 47.3388 296.358 47.4472 296.457 47.5305C296.565 47.6139 296.707 47.6556 296.881 47.6556ZM296.823 47.9225C296.574 47.9225 296.374 47.8557 296.216 47.7223C296.143 47.6585 296.084 47.5789 296.045 47.4894C296.007 47.4 295.988 47.3029 295.992 47.2053C295.992 46.7717 296.291 46.5383 296.898 46.4882L297.663 46.4382V46.2297C297.663 46.0463 297.604 45.9045 297.496 45.8045C297.388 45.7044 297.23 45.6544 297.031 45.6544C296.856 45.6544 296.715 45.6961 296.607 45.7794C296.491 45.8628 296.424 45.9796 296.391 46.1297H296.1C296.117 45.9129 296.208 45.7377 296.383 45.596C296.557 45.4542 296.773 45.3875 297.039 45.3875C297.322 45.3875 297.546 45.4626 297.713 45.6043C297.879 45.7544 297.962 45.9545 297.962 46.2047V47.8974H297.671V47.4221C297.604 47.5722 297.488 47.6973 297.338 47.789C297.181 47.8808 297.006 47.9225 296.823 47.9225ZM298.519 44.4286H298.826V47.8974H298.519V44.4286ZM303.664 47.8974H303.373V45.1707H303.357L302.21 47.8808H301.935L300.78 45.1707H300.772V47.8974H300.472V44.5703H300.838L302.06 47.4805H302.077L303.307 44.5703H303.664V47.8974ZM305.044 47.6556C305.26 47.6556 305.451 47.5889 305.601 47.4555C305.751 47.3221 305.826 47.1553 305.826 46.9635V46.6883L305.102 46.7384C304.678 46.7634 304.462 46.9218 304.462 47.2053C304.462 47.3388 304.512 47.4472 304.62 47.5305C304.728 47.6139 304.87 47.6556 305.044 47.6556ZM304.978 47.9225C304.737 47.9225 304.537 47.8557 304.379 47.7223C304.306 47.6585 304.247 47.5789 304.208 47.4894C304.17 47.4 304.151 47.3029 304.155 47.2053C304.155 46.7717 304.454 46.5383 305.061 46.4882L305.826 46.4382V46.2297C305.826 46.0463 305.767 45.9045 305.659 45.8045C305.551 45.7044 305.393 45.6544 305.194 45.6544C305.019 45.6544 304.878 45.6961 304.77 45.7794C304.653 45.8628 304.579 45.9796 304.554 46.1297H304.263C304.271 45.9129 304.371 45.7377 304.545 45.596C304.72 45.4542 304.936 45.3875 305.194 45.3875C305.485 45.3875 305.709 45.4626 305.875 45.6043C306.042 45.7544 306.125 45.9545 306.125 46.2047V47.8974H305.834V47.4221C305.759 47.5722 305.651 47.6973 305.501 47.789C305.343 47.8808 305.169 47.9225 304.978 47.9225ZM306.657 45.4125H306.948V45.8545H306.956C306.998 45.7044 307.072 45.5877 307.18 45.5043C307.266 45.449 307.361 45.4122 307.462 45.3964C307.562 45.3806 307.664 45.3861 307.762 45.4125V45.7127C307.691 45.6855 307.614 45.6741 307.538 45.6794C307.363 45.6794 307.222 45.7378 307.122 45.8712C307.014 45.9962 306.964 46.1547 306.964 46.3548V47.8974H306.657V45.4125ZM309.683 45.4125H310.057L308.943 46.4882L310.082 47.8974H309.724L308.727 46.6717L308.444 46.9302V47.8974H308.136V44.4286H308.444V46.5966L309.683 45.4125ZM311.254 45.6544C311.151 45.6503 311.048 45.6691 310.953 45.7094C310.858 45.7498 310.774 45.8107 310.705 45.8878C310.564 46.0379 310.481 46.2297 310.464 46.4799H312.01C312.002 46.2297 311.935 46.0379 311.794 45.8878C311.727 45.8109 311.644 45.75 311.55 45.7096C311.457 45.6692 311.355 45.6503 311.254 45.6544ZM312.293 47.197C312.251 47.4055 312.143 47.5806 311.952 47.714C311.769 47.8558 311.536 47.9225 311.27 47.9225C310.929 47.9225 310.655 47.8141 310.456 47.5889C310.256 47.3554 310.148 47.0469 310.148 46.6633C310.148 46.2714 310.256 45.9629 310.456 45.7377C310.655 45.5043 310.921 45.3875 311.254 45.3875C311.578 45.3875 311.835 45.4959 312.035 45.7127C312.226 45.9295 312.326 46.2297 312.326 46.5966V46.73H310.464V46.7467C310.464 47.0219 310.539 47.247 310.688 47.4138C310.838 47.5722 311.037 47.6556 311.279 47.6556C311.461 47.6556 311.619 47.6139 311.744 47.5222C311.869 47.4388 311.952 47.3304 311.993 47.197H312.293ZM313.182 44.8205V45.4125H313.681V45.671H313.182V47.2721C313.182 47.4055 313.215 47.4972 313.265 47.5556C313.315 47.6139 313.398 47.6389 313.515 47.6389C313.581 47.6389 313.648 47.639 313.689 47.6306V47.8974C313.656 47.9058 313.581 47.9141 313.456 47.9141C313.249 47.9141 313.107 47.8641 313.016 47.764C312.924 47.664 312.883 47.5055 312.883 47.2887V45.671H312.525V45.4125H312.883V44.8205H313.182ZM314.146 45.4125H314.446V47.8974H314.146V45.4125ZM314.296 44.9206C314.27 44.9216 314.243 44.917 314.219 44.9069C314.195 44.8968 314.173 44.8816 314.155 44.8622C314.115 44.8256 314.091 44.7747 314.088 44.7204C314.088 44.6621 314.113 44.612 314.155 44.5703C314.196 44.5287 314.238 44.512 314.296 44.512C314.354 44.512 314.404 44.5287 314.446 44.5703C314.479 44.612 314.504 44.6621 314.504 44.7204C314.504 44.7705 314.479 44.8205 314.446 44.8622C314.404 44.9039 314.354 44.9206 314.296 44.9206ZM315.019 45.4125H315.302V45.8795H315.31C315.46 45.546 315.734 45.3875 316.141 45.3875C316.416 45.3875 316.632 45.4709 316.798 45.6293C316.956 45.7961 317.039 46.0213 317.039 46.2964V47.8974H316.732V46.3465C316.732 46.1297 316.673 45.9629 316.557 45.8378C316.441 45.7211 316.274 45.6544 316.058 45.6544C315.842 45.6544 315.659 45.7294 315.526 45.8712C315.387 46.0266 315.313 46.2295 315.318 46.4382V47.8974H315.019V45.4125ZM318.552 47.6306C318.785 47.6306 318.984 47.5389 319.134 47.3554C319.275 47.1803 319.35 46.9385 319.35 46.6467C319.35 46.3548 319.275 46.113 319.134 45.9295C319.065 45.8418 318.976 45.7713 318.875 45.7236C318.774 45.6758 318.664 45.6521 318.552 45.6544C318.311 45.6544 318.12 45.7461 317.978 45.9295C317.829 46.113 317.762 46.3548 317.762 46.6467C317.762 46.9468 317.829 47.1803 317.978 47.3638C318.12 47.5472 318.311 47.6306 318.552 47.6306ZM318.569 48.7647C318.294 48.7647 318.07 48.7063 317.887 48.5812C317.804 48.5324 317.733 48.4661 317.679 48.3869C317.624 48.3077 317.587 48.2175 317.571 48.1226H317.887C317.92 48.2393 317.995 48.3227 318.12 48.3894C318.244 48.4561 318.402 48.4895 318.585 48.4895C318.818 48.4895 319.001 48.4395 319.142 48.3311C319.21 48.2763 319.264 48.2062 319.3 48.1266C319.337 48.0469 319.354 47.9599 319.35 47.8724V47.3721C319.275 47.5305 319.167 47.664 319.017 47.7557C318.868 47.8557 318.693 47.9058 318.494 47.9058C318.186 47.9058 317.929 47.789 317.737 47.5556C317.546 47.3304 317.446 47.0219 317.446 46.6467C317.446 46.2714 317.546 45.9629 317.737 45.7377C317.929 45.5043 318.186 45.3875 318.502 45.3875C318.693 45.3875 318.868 45.4376 319.026 45.5376C319.175 45.6293 319.292 45.7628 319.358 45.9295H319.367V45.4125H319.658V47.8474C319.658 48.1309 319.558 48.3561 319.358 48.5145C319.167 48.6813 318.901 48.7647 318.569 48.7647ZM323.115 46.8801H321.727L321.362 47.8974H321.029L322.268 44.5703H322.575L323.814 47.8974H323.49L323.115 46.8801ZM321.819 46.605H323.024L322.426 44.9623H322.417L321.819 46.605ZM325.061 47.6306C325.302 47.6306 325.493 47.5389 325.642 47.3554C325.792 47.1803 325.867 46.9385 325.867 46.6467C325.867 46.3548 325.792 46.113 325.642 45.9295C325.574 45.8412 325.485 45.7702 325.384 45.7224C325.283 45.6746 325.172 45.6513 325.061 45.6544C324.828 45.6544 324.637 45.7461 324.487 45.9295C324.346 46.113 324.271 46.3548 324.271 46.6467C324.271 46.9468 324.346 47.1803 324.487 47.3638C324.637 47.5472 324.82 47.6306 325.061 47.6306ZM325.086 48.7647C324.811 48.7647 324.578 48.7063 324.404 48.5812C324.319 48.5351 324.246 48.4695 324.191 48.3898C324.136 48.3101 324.101 48.2186 324.088 48.1226H324.404C324.429 48.2393 324.512 48.3227 324.637 48.3894C324.761 48.4561 324.919 48.4895 325.102 48.4895C325.335 48.4895 325.518 48.4395 325.659 48.3311C325.726 48.275 325.779 48.2047 325.815 48.1254C325.851 48.046 325.869 47.9596 325.867 47.8724V47.3721H325.859C325.784 47.5305 325.676 47.664 325.526 47.7557C325.373 47.8563 325.194 47.9086 325.011 47.9058C324.695 47.9058 324.445 47.789 324.254 47.5556C324.055 47.3304 323.963 47.0219 323.963 46.6467C323.963 46.2714 324.055 45.9629 324.254 45.7377C324.445 45.5043 324.703 45.3875 325.019 45.3875C325.21 45.3875 325.385 45.4376 325.543 45.5376C325.692 45.6293 325.8 45.7628 325.875 45.9295V45.4125H326.166V47.8474C326.166 48.1309 326.066 48.3561 325.875 48.5145C325.676 48.6813 325.41 48.7647 325.086 48.7647ZM327.687 45.6544C327.585 45.6519 327.483 45.6715 327.388 45.7118C327.293 45.752 327.208 45.8121 327.139 45.8878C326.997 46.0379 326.923 46.2297 326.906 46.4799H328.444C328.444 46.2297 328.369 46.0379 328.236 45.8878C328.167 45.8107 328.083 45.7498 327.988 45.7094C327.893 45.6691 327.79 45.6503 327.687 45.6544ZM328.726 47.197C328.693 47.4055 328.585 47.5806 328.394 47.714C328.203 47.8558 327.978 47.9225 327.712 47.9225C327.371 47.9225 327.097 47.8141 326.898 47.5889C326.69 47.3554 326.59 47.0469 326.59 46.6633C326.59 46.2714 326.69 45.9629 326.889 45.7377C327.097 45.5043 327.363 45.3875 327.696 45.3875C328.02 45.3875 328.278 45.4959 328.477 45.7127C328.668 45.9295 328.76 46.2297 328.76 46.5966V46.73H326.906V46.7467C326.906 47.0219 326.981 47.247 327.13 47.4138C327.272 47.5722 327.471 47.6556 327.721 47.6556C327.903 47.6556 328.053 47.6139 328.186 47.5222C328.311 47.4388 328.394 47.3304 328.427 47.197H328.726ZM329.184 45.4125H329.475V45.8795H329.483C329.624 45.546 329.907 45.3875 330.314 45.3875C330.588 45.3875 330.805 45.4709 330.962 45.6293C331.129 45.7961 331.204 46.0213 331.204 46.2964V47.8974H330.904V46.3465C330.904 46.1297 330.846 45.9629 330.721 45.8378C330.605 45.7211 330.439 45.6544 330.231 45.6544C330.007 45.6544 329.832 45.7294 329.699 45.8712C329.558 46.0213 329.491 46.2047 329.491 46.4382V47.8974H329.184V45.4125ZM333.448 46.1964C333.419 46.0445 333.336 45.9082 333.215 45.8128C333.077 45.7075 332.907 45.6518 332.733 45.6544C332.492 45.6544 332.292 45.7461 332.151 45.9295C332.002 46.113 331.927 46.3548 331.927 46.655C331.927 46.9635 332.002 47.2053 332.151 47.3805C332.292 47.5639 332.492 47.6473 332.733 47.6473C332.924 47.6473 333.082 47.6056 333.207 47.5139C333.332 47.4221 333.415 47.2971 333.448 47.1303H333.755C333.714 47.3638 333.606 47.5556 333.423 47.7057C333.232 47.8474 333.007 47.9225 332.733 47.9225C332.401 47.9225 332.126 47.8141 331.927 47.5806C331.719 47.3554 331.619 47.0469 331.619 46.655C331.619 46.2714 331.719 45.9629 331.927 45.7294C332.126 45.5043 332.392 45.3875 332.733 45.3875C333.007 45.3875 333.24 45.4626 333.431 45.6293C333.614 45.7794 333.722 45.9629 333.747 46.1964H333.448ZM334.329 48.7647C334.279 48.7647 334.229 48.7563 334.179 48.7396V48.4811C334.221 48.4895 334.271 48.4978 334.329 48.4978C334.437 48.4978 334.529 48.4645 334.603 48.3978C334.67 48.3311 334.736 48.2227 334.786 48.0642L334.844 47.9141L333.913 45.4125H334.238L334.994 47.5889H335.002L335.767 45.4125H336.083L335.119 48.0142C335.011 48.306 334.903 48.5062 334.795 48.6062C334.686 48.7063 334.529 48.7647 334.329 48.7647Z" fill="#3C4D6B"/>
<path d="M265.865 38.1478H262.781L262.108 40.2825H260.221L263.271 31.4686H265.433L268.492 40.2825H266.538L265.865 38.1478ZM263.172 36.7636H265.474L264.344 33.153H264.302L263.172 36.7636ZM273.438 33.5533H275.466L272.881 36.4468L275.582 40.2825H273.537L271.576 37.5224L271.093 38.0394V40.2825H269.315V31.0433H271.093V36.28H271.118L273.438 33.5533ZM282.398 40.2825H280.678V39.0651H280.644C280.287 39.949 279.589 40.3826 278.533 40.3826C277.802 40.3826 277.211 40.1574 276.771 39.7072C276.322 39.2569 276.098 38.6481 276.098 37.8727V33.5533H277.876V37.4974C277.876 37.9477 277.993 38.2896 278.234 38.5397C278.467 38.7816 278.791 38.8983 279.206 38.8983C279.63 38.8983 279.963 38.7566 280.229 38.4814C280.487 38.2062 280.62 37.8393 280.62 37.389V33.5533H282.398V40.2825ZM286.106 40.3659C285.266 40.3659 284.601 40.0574 284.111 39.432C283.612 38.8149 283.354 37.9727 283.354 36.9137C283.354 35.8631 283.612 35.0292 284.111 34.4038C284.61 33.7867 285.275 33.4782 286.114 33.4782C286.588 33.4782 287.012 33.5866 287.378 33.8118C287.735 34.0286 287.993 34.3288 288.167 34.704H288.201V31.0433H289.979V40.2825H288.225V39.1401H288.192C288.026 39.507 287.76 39.8072 287.394 40.0324C287.02 40.2492 286.596 40.3659 286.106 40.3659ZM286.696 34.9208C286.23 34.9208 285.865 35.0959 285.59 35.4545C285.316 35.8214 285.183 36.305 285.183 36.9221C285.183 37.5308 285.316 38.0228 285.59 38.3813C285.865 38.7399 286.23 38.9233 286.696 38.9233C287.153 38.9233 287.519 38.7399 287.802 38.3813C288.076 38.0144 288.217 37.5308 288.217 36.9221C288.217 36.3133 288.076 35.8297 287.802 35.4628C287.519 35.1042 287.153 34.9208 286.696 34.9208ZM291.251 33.5533H293.03V40.2825H291.251V33.5533ZM292.141 32.8195C291.875 32.8195 291.65 32.7361 291.467 32.5526C291.276 32.3775 291.185 32.1524 291.185 31.8855C291.185 31.627 291.276 31.4019 291.467 31.2185C291.65 31.0434 291.875 30.96 292.141 30.96C292.407 30.96 292.639 31.0434 292.822 31.2185C293.013 31.4019 293.105 31.627 293.105 31.8855C293.105 32.1524 293.013 32.3775 292.822 32.5526C292.639 32.7361 292.407 32.8195 292.141 32.8195ZM294.269 33.5533H295.989V34.7624H296.023C296.413 33.8952 297.136 33.4615 298.184 33.4615C298.924 33.4615 299.506 33.6783 299.938 34.1286C300.353 34.5706 300.569 35.1876 300.569 35.9715V40.2825H298.791V36.3467C298.791 35.8964 298.674 35.5545 298.45 35.3127C298.217 35.0626 297.893 34.9458 297.469 34.9458C297.045 34.9458 296.704 35.0792 296.447 35.3627C296.181 35.6379 296.048 35.9965 296.048 36.4468V40.2825H294.269V33.5533ZM304.809 40.3993C303.786 40.3993 302.98 40.0907 302.39 39.4737C301.8 38.8566 301.5 37.9977 301.5 36.9221C301.5 35.8464 301.8 34.9958 302.398 34.3704C302.988 33.7534 303.795 33.4365 304.809 33.4365C305.823 33.4365 306.629 33.7534 307.219 34.3704C307.818 34.9958 308.117 35.8464 308.117 36.9221C308.117 38.0061 307.818 38.8566 307.228 39.482C306.638 40.0907 305.831 40.3993 304.809 40.3993ZM304.809 39.0234C305.283 39.0234 305.648 38.8399 305.914 38.473C306.172 38.1061 306.305 37.5891 306.305 36.9221C306.305 36.255 306.172 35.738 305.906 35.3627C305.64 34.9958 305.274 34.8124 304.809 34.8124C304.335 34.8124 303.969 34.9958 303.703 35.3627C303.437 35.738 303.304 36.255 303.304 36.9221C303.304 37.5891 303.437 38.1061 303.703 38.473C303.969 38.8399 304.335 39.0234 304.809 39.0234ZM312.689 40.2825H310.694L308.367 33.5533H310.27L311.692 38.6898H311.725L313.146 33.5533H315.008L312.689 40.2825Z" fill="#00C0F3"/>
<path d="M319.962 32.0607V33.5533H321.209V34.9042H319.962V38.1729C319.962 38.6899 320.228 38.9484 320.76 38.9484C320.935 38.9484 321.084 38.9401 321.209 38.9151V40.2326C320.96 40.2826 320.677 40.3076 320.344 40.3076C319.571 40.3076 319.014 40.1658 318.682 39.8823C318.349 39.5988 318.183 39.1235 318.183 38.4731V34.9042H317.277V33.5533H318.183V32.0607H319.962ZM325.191 40.3993C324.168 40.3993 323.362 40.0908 322.772 39.4737C322.182 38.8567 321.882 37.9978 321.882 36.9138C321.882 35.8465 322.182 34.9959 322.78 34.3705C323.379 33.7535 324.177 33.4366 325.191 33.4366C326.205 33.4366 327.011 33.7535 327.601 34.3705C328.2 34.9959 328.499 35.8465 328.499 36.9138C328.499 38.0061 328.2 38.8567 327.61 39.4821C327.019 40.0908 326.213 40.3993 325.191 40.3993ZM325.191 39.0235C325.664 39.0235 326.03 38.84 326.296 38.4731C326.554 38.1062 326.687 37.5892 326.687 36.9138C326.687 36.255 326.554 35.738 326.288 35.3628C326.022 34.9959 325.656 34.8125 325.191 34.8125C324.717 34.8125 324.351 34.9959 324.085 35.3628C323.819 35.738 323.686 36.255 323.686 36.9138C323.686 37.5892 323.819 38.1062 324.085 38.4731C324.351 38.84 324.717 39.0235 325.191 39.0235ZM333.329 33.4783C334.185 33.4783 334.858 33.7868 335.349 34.3955C335.839 35.0126 336.08 35.8465 336.08 36.9138C336.08 37.9895 335.839 38.8233 335.349 39.4404C334.858 40.0574 334.193 40.366 333.354 40.366C332.348 40.366 331.658 39.9574 331.267 39.1569H331.234V42.4006H329.455V33.5533H331.209V34.7041H331.242C331.425 34.3288 331.699 34.0286 332.065 33.8035C332.439 33.5867 332.855 33.4783 333.329 33.4783ZM332.738 38.9234C333.204 38.9234 333.57 38.7399 333.844 38.3814C334.127 38.0145 334.26 37.5308 334.26 36.9138C334.26 36.3134 334.127 35.8298 333.844 35.4629C333.57 35.1043 333.196 34.9209 332.738 34.9209C332.281 34.9209 331.915 35.1043 331.641 35.4712C331.367 35.8381 331.226 36.3218 331.226 36.9221C331.226 37.5308 331.367 38.0145 331.641 38.3814C331.915 38.7399 332.281 38.9234 332.738 38.9234ZM315.955 40.3576C315.681 40.3576 315.448 40.2659 315.257 40.0741C315.066 39.8823 314.975 39.6489 314.975 39.3737C314.975 39.0985 315.066 38.865 315.257 38.6816C315.448 38.4898 315.681 38.3897 315.955 38.3897C316.23 38.3897 316.463 38.4898 316.654 38.6816C316.837 38.865 316.936 39.0985 316.936 39.3737C316.936 39.6489 316.837 39.8823 316.654 40.0741C316.463 40.2659 316.23 40.3576 315.955 40.3576Z" fill="#296AB3"/>
<path fill-rule="evenodd" clip-rule="evenodd" d="M256.51 40.8422L250.367 40.8335L251.577 43.2666L249.958 43.2753L248.782 40.8335H242.715L241.522 43.3272L239.912 43.3359L241.165 40.8422L235.038 40.8335C235.166 42.089 235.762 43.3965 236.265 44.323C241.275 53.4754 255.462 50.7738 256.51 40.8422ZM243.474 39.2489H248.032C247.836 38.6775 246.115 35.3611 245.757 34.5472L243.474 39.2489ZM236.222 33.4648C235.813 34.2095 234.995 36.1404 235.004 37.1795H243.048L245.715 31.6811L247.104 34.4L248.484 37.1795H256.553C256.545 36.2357 255.769 34.2355 255.386 33.5688C250.938 26.0183 240.653 25.6113 236.222 33.4648Z" fill="#00C0F3"/>
</g>
<defs>
<filter id="filter0_d_660_3811" x="202.635" y="142.482" width="105.285" height="90.0934" filterUnits="userSpaceOnUse" color-interpolation-filters="sRGB">
<feFlood flood-opacity="0" result="BackgroundImageFix"/>
<feColorMatrix in="SourceAlpha" type="matrix" values="0 0 0 0 0 0 0 0 0 0 0 0 0 0 0 0 0 0 127 0" result="hardAlpha"/>
<feOffset dy="4"/>
<feGaussianBlur stdDeviation="17"/>
<feComposite in2="hardAlpha" operator="out"/>
<feColorMatrix type="matrix" values="0 0 0 0 0 0 0 0 0 0 0 0 0 0 0 0 0 0 0.25 0"/>
<feBlend mode="normal" in2="BackgroundImageFix" result="effect1_dropShadow_660_3811"/>
<feBlend mode="normal" in="SourceGraphic" in2="effect1_dropShadow_660_3811" result="shape"/>
</filter>
<clipPath id="clip0_660_3811">
<rect width="684" height="259" fill="white"/>
</clipPath>
</defs>
</svg>
