<svg width="48" height="46" viewBox="0 0 48 46" fill="none" xmlns="http://www.w3.org/2000/svg">
<g clip-path="url(#clip0_660_3744)">
<path d="M42.2042 36.965H7.28785C5.56304 36.965 4.16992 35.6703 4.16992 34.0902V9.37886C4.16992 7.78853 5.57409 6.50403 7.28785 6.50403H12.5424C12.852 6.50403 13.0953 6.72831 13.0953 7.01375C13.0953 7.2992 12.852 7.52347 12.5424 7.52347H7.28785C6.1822 7.52347 5.27557 8.35942 5.27557 9.37886V34.0902C5.27557 35.1096 6.1822 35.9456 7.28785 35.9456H42.2042C43.3098 35.9456 44.2164 35.1096 44.2164 34.0902V9.37886C44.2164 8.35942 43.3098 7.52347 42.2042 7.52347H36.9496C36.64 7.52347 36.3968 7.2992 36.3968 7.01375C36.3968 6.72831 36.64 6.50403 36.9496 6.50403H42.2042C43.929 6.50403 45.3221 7.79872 45.3221 9.37886V34.0902C45.3221 35.6805 43.9179 36.965 42.2042 36.965Z" fill="#00C0F3" stroke="#00C0F3" stroke-width="0.5"/>
<path d="M44.7686 31.3377H4.71103C4.40145 31.3377 4.1582 31.1134 4.1582 30.828C4.1582 30.5425 4.40145 30.3182 4.71103 30.3182H44.7575C45.0671 30.3182 45.3104 30.5425 45.3104 30.828C45.3104 31.1134 45.0671 31.3377 44.7686 31.3377Z" fill="#00C0F3" stroke="#00C0F3" stroke-width="0.5"/>
<path d="M19.6151 42.4393C19.5598 42.4393 19.5045 42.4292 19.4492 42.419C19.1618 42.3374 18.9959 42.052 19.0844 41.7869L20.8976 36.3125C20.9861 36.0474 21.2957 35.8945 21.5831 35.9761C21.8706 36.0576 22.0364 36.3431 21.948 36.6081L20.1347 42.0825C20.0684 42.2966 19.8583 42.4393 19.6151 42.4393Z" fill="#00C0F3" stroke="#00C0F3" stroke-width="0.5"/>
<path d="M29.8658 42.4393C29.6337 42.4393 29.4125 42.2966 29.3351 42.0825L27.5219 36.6081C27.4334 36.3431 27.5993 36.0576 27.8867 35.9761C28.1742 35.8945 28.4838 36.0474 28.5722 36.3125L30.3855 41.7869C30.4739 42.052 30.3081 42.3374 30.0206 42.419C29.9764 42.4292 29.9211 42.4393 29.8658 42.4393Z" fill="#00C0F3" stroke="#00C0F3" stroke-width="0.5"/>
<path d="M33.0168 45.4467H16.4653C16.2773 45.4467 16.1004 45.355 16.0009 45.2123C15.9014 45.0695 15.8793 44.886 15.9567 44.7229L17.4383 41.7156C17.5267 41.5321 17.7257 41.4199 17.9469 41.4199H31.5463C31.7675 41.4199 31.9554 41.5321 32.0549 41.7156L33.5365 44.7229C33.6139 44.8758 33.6028 45.0593 33.4923 45.2123C33.3817 45.3652 33.2048 45.4467 33.0168 45.4467ZM17.3277 44.4273H32.1655L31.1925 42.4394H18.3007L17.3277 44.4273Z" fill="#00C0F3" stroke="#00C0F3" stroke-width="0.5"/>
<path d="M40.8417 34.1513H38.752C38.4425 34.1513 38.1992 33.927 38.1992 33.6416C38.1992 33.3561 38.4425 33.1318 38.752 33.1318H40.8307C41.1402 33.1318 41.3835 33.3561 41.3835 33.6416C41.3835 33.927 41.1402 34.1513 40.8417 34.1513Z" fill="#00C0F3" stroke="#00C0F3" stroke-width="0.5"/>
<path d="M36.2994 34.1513H34.2208C33.9112 34.1513 33.668 33.927 33.668 33.6416C33.668 33.3561 33.9112 33.1318 34.2208 33.1318H36.2994C36.609 33.1318 36.8522 33.3561 36.8522 33.6416C36.8522 33.927 36.5979 34.1513 36.2994 34.1513Z" fill="#00C0F3" stroke="#00C0F3" stroke-width="0.5"/>
<path d="M31.7564 34.1513H29.6778C29.3682 34.1513 29.125 33.927 29.125 33.6416C29.125 33.3561 29.3682 33.1318 29.6778 33.1318H31.7564C32.066 33.1318 32.3093 33.3561 32.3093 33.6416C32.3093 33.927 32.055 34.1513 31.7564 34.1513Z" fill="#00C0F3" stroke="#00C0F3" stroke-width="0.5"/>
<path d="M26.1139 22.5568H23.401C23.0826 22.5568 22.8231 22.3202 22.8113 22.0161L22.6933 19.8196C22.4928 19.752 22.2923 19.6732 22.1036 19.5831L20.405 21.0699C20.1691 21.2727 19.8153 21.2614 19.5912 21.0474L17.6685 19.2114C17.4444 18.9973 17.4326 18.6594 17.6449 18.4341L19.1901 16.8121C19.0958 16.6319 19.0132 16.4404 18.9424 16.2489L16.6423 16.1363C16.3239 16.125 16.0762 15.8772 16.0762 15.5731V12.9824C16.0762 12.6782 16.3239 12.4304 16.6423 12.4192L18.9424 12.3065C19.0132 12.115 19.0958 11.9236 19.1901 11.7433L17.6449 10.1213C17.4326 9.89603 17.4444 9.55812 17.6685 9.3441L19.5912 7.50807C19.8153 7.29405 20.1691 7.28279 20.405 7.48554L22.1036 8.96112C22.2923 8.87101 22.4928 8.79216 22.6933 8.72458L22.8113 6.5281C22.8231 6.22397 23.0826 5.98743 23.401 5.98743H26.1139C26.4324 5.98743 26.6919 6.22397 26.7037 6.5281L26.8217 8.72458C27.0222 8.79216 27.2227 8.87101 27.4114 8.96112L29.1099 7.48554C29.3458 7.28279 29.6997 7.29405 29.9238 7.50807L31.8464 9.3441C32.0706 9.55812 32.0824 9.89603 31.87 10.1213L30.3131 11.7546C30.4074 11.9348 30.49 12.1263 30.5608 12.3178L32.8608 12.4304C33.1793 12.4417 33.427 12.6895 33.427 12.9936V15.5844C33.427 15.8885 33.1793 16.1363 32.8608 16.1476L30.5608 16.2602C30.49 16.4517 30.4074 16.6432 30.3131 16.8234L31.8582 18.4454C32.0706 18.6707 32.0588 19.0086 31.8347 19.2226L29.9238 21.0474C29.6997 21.2614 29.3458 21.2727 29.1099 21.0699L27.4114 19.5943C27.2227 19.6845 27.0222 19.7633 26.8217 19.8309L26.7037 22.0274C26.6801 22.3202 26.4206 22.5568 26.1139 22.5568ZM23.9554 21.4304H25.5478L25.6539 19.3803C25.6657 19.1325 25.8427 18.9298 26.0904 18.8622C26.4796 18.7608 26.857 18.6144 27.2109 18.4229C27.435 18.299 27.7063 18.3328 27.895 18.4905L29.4874 19.8647L30.6079 18.7946L29.1689 17.274C29.0038 17.0937 28.9684 16.8347 29.0981 16.6206C29.2987 16.2827 29.452 15.9223 29.5582 15.5506C29.6289 15.314 29.8413 15.1451 30.1007 15.1338L32.2475 15.0324V13.5118L30.1007 13.4104C29.8413 13.3991 29.6289 13.2302 29.5582 12.9936C29.452 12.6219 29.2987 12.2615 29.0981 11.9236C28.9684 11.7095 29.0038 11.4505 29.1689 11.2702L30.6079 9.7496L29.4874 8.67952L27.895 10.0537C27.7063 10.2114 27.435 10.2452 27.2109 10.1213C26.857 9.92983 26.4796 9.7834 26.0904 9.68202C25.8427 9.61444 25.6657 9.41168 25.6539 9.16387L25.5478 7.11383H23.9554L23.8493 9.16387C23.8375 9.41168 23.6605 9.61444 23.4128 9.68202C23.0236 9.7834 22.6461 9.92983 22.2923 10.1213C22.0682 10.2452 21.7969 10.2114 21.6082 10.0537L20.0158 8.67952L18.8952 9.7496L20.3343 11.2702C20.4994 11.4505 20.5348 11.7095 20.405 11.9236C20.2045 12.2615 20.0512 12.6219 19.945 12.9936C19.8742 13.2302 19.6619 13.3991 19.4024 13.4104L17.2557 13.5118V15.0324L19.4024 15.1338C19.6619 15.1451 19.8742 15.314 19.945 15.5506C20.0512 15.9223 20.2045 16.2827 20.405 16.6206C20.5348 16.8347 20.4994 17.0937 20.3343 17.274L18.8952 18.7946L20.0158 19.8647L21.6082 18.4905C21.7969 18.3328 22.0682 18.299 22.2923 18.4229C22.6461 18.6144 23.0236 18.7608 23.4128 18.8622C23.6605 18.9298 23.8375 19.1325 23.8493 19.3803L23.9554 21.4304Z" fill="#00C0F3" stroke="#00C0F3" stroke-width="0.5"/>
<path d="M24.7531 17.612C22.8305 17.612 21.2617 16.1139 21.2617 14.2779C21.2617 12.4418 22.8305 10.9437 24.7531 10.9437C26.6757 10.9437 28.2445 12.4418 28.2445 14.2779C28.2445 16.1139 26.6757 17.612 24.7531 17.612ZM24.7531 12.0814C23.4792 12.0814 22.4412 13.0726 22.4412 14.2891C22.4412 15.5056 23.4792 16.4969 24.7531 16.4969C26.027 16.4969 27.065 15.5056 27.065 14.2891C27.065 13.0726 26.0152 12.0814 24.7531 12.0814Z" fill="#00C0F3" stroke="#00C0F3" stroke-width="0.5"/>
<path d="M34.3236 27.9633H15.1627C13.7364 27.9633 12.5645 26.8929 12.5645 25.5676V2.97675C12.5645 1.66167 13.7254 0.581055 15.1627 0.581055H34.3125C35.7388 0.581055 36.9108 1.65147 36.9108 2.97675V25.5778C36.9219 26.8929 35.7499 27.9633 34.3236 27.9633ZM15.1627 1.6005C14.3445 1.6005 13.6701 2.21217 13.6701 2.97675V25.5778C13.6701 26.3322 14.3335 26.9541 15.1627 26.9541H34.3125C35.1307 26.9541 35.8051 26.3424 35.8051 25.5778V2.97675C35.8051 2.22236 35.1418 1.6005 34.3125 1.6005H15.1627Z" fill="#00C0F3" stroke="#00C0F3" stroke-width="0.5"/>
</g>
<defs>
<clipPath id="clip0_660_3744">
<rect width="47.8696" height="45.875" fill="white"/>
</clipPath>
</defs>
</svg>
