<svg width="57" height="49" viewBox="0 0 57 49" fill="none" xmlns="http://www.w3.org/2000/svg">
<g clip-path="url(#clip0_804_6067)">
<path d="M33.1483 7.78791L39.0499 4.42216C39.7341 4.04136 39.1232 2.97267 38.4389 3.36575L32.5251 6.73151C31.8409 7.12459 32.464 8.18099 33.1483 7.78791Z" fill="#00C0F3" stroke="#00C0F3" stroke-width="0.4"/>
<path d="M38.8679 9.29874L34.6036 10.9693C33.8704 11.2519 34.1881 12.4434 34.9212 12.1486L39.1855 10.4903C39.9187 10.2077 39.601 9.01621 38.8679 9.29874Z" fill="#00C0F3" stroke="#00C0F3" stroke-width="0.4"/>
<path d="M30.5963 3.83245L34.2008 1.00718C34.824 0.52811 33.9564 -0.344039 33.3333 0.135029L29.7288 2.9603C29.1056 3.45165 29.9731 4.31151 30.5963 3.83245Z" fill="#00C0F3" stroke="#00C0F3" stroke-width="0.4"/>
<path d="M11.9752 19.9611C11.8348 19.7116 11.7453 19.4364 11.7117 19.1517C11.6782 18.867 11.7013 18.5785 11.7797 18.3028C11.8514 18.0261 11.9783 17.767 12.1527 17.5411C12.327 17.3152 12.5451 17.1271 12.7938 16.9885L13.3436 16.6814L12.7327 15.6127L12.1951 15.9198C11.806 16.1375 11.464 16.4311 11.1892 16.7833C10.9143 17.1356 10.7121 17.5394 10.5945 17.9712C10.475 18.4029 10.4416 18.8542 10.4961 19.299C10.5506 19.7437 10.692 20.1733 10.9121 20.563L11.9752 19.9611Z" fill="#00C0F3" stroke="#00C0F3" stroke-width="0.4"/>
<path d="M56.0469 25.9556C56.2997 25.9556 56.5421 25.8547 56.7209 25.675C56.8996 25.4953 57 25.2516 57 24.9975V15.4039C57.0002 15.2633 56.9697 15.1244 56.9106 14.997C56.8515 14.8697 56.7652 14.7569 56.6579 14.6668H56.6457C56.4751 14.5315 56.2642 14.4579 56.0469 14.458H39.4367V15.6864H54.2752L48.5813 19.2855C48.4885 19.3394 48.3831 19.3678 48.2759 19.3678C48.1686 19.3678 48.0633 19.3394 47.9704 19.2855L42.2643 15.6741H47.2251V14.4457H40.4926C40.2693 14.4442 40.0528 14.5226 39.8817 14.6668C39.7744 14.7569 39.6881 14.8697 39.629 14.997C39.5698 15.1244 39.5393 15.2633 39.5395 15.4039V15.8338H31.0476L29.8257 13.6718C30.4353 13.193 30.9006 12.5535 31.17 11.8245C31.4394 11.0955 31.5022 10.3057 31.3515 9.54292C31.2008 8.78015 30.8424 8.07442 30.3163 7.50431C29.7902 6.9342 29.117 6.52208 28.3717 6.31386C27.5091 6.06804 26.5899 6.11554 25.7569 6.44898L22.8122 1.22837C22.72 1.06539 22.5869 0.929645 22.426 0.834775C22.2652 0.739906 22.0823 0.689248 21.8958 0.687886C21.7103 0.686756 21.5278 0.735032 21.3668 0.827808C21.2058 0.920583 21.0722 1.05455 20.9794 1.21609L15.5421 10.5149C15.2072 11.0895 14.7265 11.5642 14.1492 11.8907L10.0315 14.2369C9.34473 14.6317 8.75573 15.1776 8.30868 15.8338H5.20514C4.62283 15.837 4.06528 16.071 3.65351 16.485C3.24174 16.8989 3.009 17.4594 3.00579 18.0449V43.4477H0.867524C0.637442 43.4477 0.416784 43.5396 0.254092 43.7032C0.0913996 43.8667 0 44.0886 0 44.3199L0 46.9855C0.00320533 47.5187 0.215355 48.0293 0.590459 48.4064C0.965562 48.7835 1.47339 48.9968 2.00386 49H9.26174V47.7716H2.00386C1.79646 47.7716 1.59756 47.6888 1.45091 47.5414C1.30425 47.3939 1.22186 47.194 1.22186 46.9855V44.6761H50.7196V46.9855C50.7196 47.194 50.6372 47.3939 50.4906 47.5414C50.3439 47.6888 50.145 47.7716 49.9376 47.7716H7.80772V49H49.9376C50.4691 49 50.9788 48.7877 51.3546 48.4099C51.7304 48.0321 51.9415 47.5197 51.9415 46.9855V44.3199C51.9431 44.2059 51.9222 44.0928 51.8799 43.987C51.8377 43.8813 51.7749 43.785 51.6953 43.7039C51.6157 43.6227 51.5209 43.5583 51.4163 43.5143C51.3118 43.4704 51.1995 43.4477 51.0862 43.4477H48.9479V40.3522H56.0469C56.2997 40.3522 56.5421 40.2513 56.7209 40.0716C56.8996 39.8919 57 39.6482 57 39.3941V29.7882C57 29.6623 56.9753 29.5377 56.9274 29.4215C56.8796 29.3053 56.8094 29.1996 56.7209 29.1107C56.6324 29.0217 56.5273 28.9511 56.4117 28.903C56.296 28.8548 56.1721 28.83 56.0469 28.83H48.9479V25.9556H56.0469ZM48.2759 20.5999C48.6136 20.597 48.9437 20.4992 49.2289 20.3174L55.7781 16.1654V24.7272H40.7614V16.1654L47.3106 20.3174C47.5993 20.5014 47.934 20.5993 48.2759 20.5999ZM28.0418 7.50538C28.4162 7.60772 28.7668 7.78343 29.0735 8.02242C29.3801 8.2614 29.6367 8.55896 29.8286 8.89799C30.0205 9.23701 30.1439 9.61082 30.1916 9.99792C30.2393 10.385 30.2105 10.7778 30.1068 11.1537C29.9537 11.7093 29.6439 12.2084 29.2148 12.5909L27.7852 10.0604L26.3678 7.52995C26.9113 7.35625 27.4936 7.34771 28.0418 7.50538ZM21.8836 2.08824L27.101 11.3379L28.7871 14.3229L31.5608 19.2487H29.6547L20.9183 3.74655L21.8836 2.08824ZM10.6302 15.3056L14.7479 12.9594C15.5122 12.5283 16.1489 11.9009 16.5929 11.1414L20.1974 4.96264L28.2373 19.2241L21.1138 19.1627C20.2412 19.1615 19.3829 19.3857 18.6212 19.8137H18.5968L14.919 21.902H14.9312L14.4913 22.1599C13.5917 22.6164 12.5518 22.7072 11.5873 22.4136C10.6228 22.12 9.80778 21.4644 9.31119 20.5828C8.8146 19.7013 8.67459 18.6614 8.92017 17.6788C9.16576 16.6963 9.77811 15.8464 10.6302 15.3056ZM18.1447 21.4966L21.7614 27.9087L20.8206 27.9456C20.4961 27.9586 20.1745 27.8804 19.8917 27.7198C19.609 27.5593 19.3764 27.3227 19.2199 27.0366L16.5929 22.381L18.1447 21.4966ZM55.7781 39.1238H40.7614V30.0584H55.7781V39.1238ZM47.726 28.83H40.4926C40.3674 28.83 40.2435 28.8548 40.1279 28.903C40.0123 28.9511 39.9072 29.0217 39.8187 29.1107C39.7302 29.1996 39.66 29.3053 39.6121 29.4215C39.5642 29.5377 39.5395 29.6623 39.5395 29.7882V39.3941C39.5395 39.6482 39.64 39.8919 39.8187 40.0716C39.9974 40.2513 40.2398 40.3522 40.4926 40.3522H47.726V43.4477H4.22765V18.0449C4.22765 17.7842 4.33064 17.5343 4.51395 17.35C4.69727 17.1657 4.9459 17.0622 5.20514 17.0622H7.69775C7.66109 17.1604 7.63666 17.2587 7.6 17.357C7.33197 18.3433 7.36008 19.3873 7.68079 20.3577C8.0015 21.328 8.60049 22.1813 9.4024 22.8102C10.2043 23.4391 11.1733 23.8156 12.1875 23.8922C13.2017 23.9689 14.2158 23.7423 15.1023 23.2409L15.5299 22.9829L18.1569 27.6508C18.4182 28.1132 18.7966 28.4978 19.2538 28.7653C19.711 29.0329 20.2305 29.1739 20.7595 29.174H20.8695L22.0058 29.1371C22.1954 29.1296 22.3797 29.0724 22.5404 28.9711C22.7012 28.8698 22.8328 28.728 22.9222 28.5598C23.0178 28.3959 23.0682 28.2093 23.0682 28.0193C23.0682 27.8293 23.0178 27.6427 22.9222 27.4788L19.2077 20.8947H19.2199C19.7956 20.5733 20.4431 20.4042 21.1016 20.4034L31.8418 20.4893C32.0278 20.4931 32.2114 20.4459 32.3728 20.3529C32.5342 20.2598 32.6674 20.1244 32.7582 19.9611C32.8535 19.8021 32.9049 19.6203 32.907 19.4346C32.9092 19.2489 32.862 19.066 32.7704 18.9047L31.7318 17.0744H39.5395V25.0098C39.5395 25.2639 39.64 25.5076 39.8187 25.6873C39.9974 25.867 40.2398 25.9679 40.4926 25.9679H47.726V28.83Z" fill="#00C0F3" stroke="#00C0F3" stroke-width="0.4"/>
<path d="M46.0883 37.4164C46.3242 37.5533 46.5918 37.6254 46.8641 37.6254C47.1365 37.6254 47.4041 37.5533 47.64 37.4164L50.1815 35.9423C50.4175 35.8054 50.6135 35.6085 50.7497 35.3713C50.886 35.1341 50.9577 34.865 50.9577 34.5911C50.9577 34.3172 50.886 34.0481 50.7497 33.8109C50.6135 33.5738 50.4175 33.3768 50.1815 33.2399L47.64 31.7659C47.4045 31.6277 47.1368 31.5549 46.8641 31.5549C46.5915 31.5549 46.3238 31.6277 46.0883 31.7659C45.8519 31.8986 45.6556 32.0931 45.5201 32.3288C45.3846 32.5645 45.3149 32.8326 45.3185 33.1048V36.0652C45.3153 36.3389 45.385 36.6086 45.5204 36.8462C45.6557 37.0837 45.8518 37.2806 46.0883 37.4164ZM46.5404 33.1048C46.5405 33.048 46.5552 32.9921 46.5831 32.9427C46.6109 32.8932 46.6509 32.8517 46.6992 32.8223C46.752 32.7937 46.8104 32.7769 46.8703 32.7731C46.9268 32.7738 46.982 32.7908 47.0291 32.8223L49.5706 34.3086C49.6229 34.3344 49.6669 34.3747 49.6972 34.4247C49.7275 34.4748 49.7429 34.5325 49.7416 34.5911C49.7415 34.6494 49.7255 34.7066 49.6953 34.7564C49.6652 34.8062 49.622 34.8467 49.5706 34.8737L47.0291 36.3477C46.9795 36.3751 46.9236 36.3893 46.867 36.3887C46.8104 36.3882 46.7548 36.373 46.7057 36.3446C46.6566 36.3162 46.6156 36.2756 46.5866 36.2267C46.5577 36.1777 46.5417 36.1221 46.5404 36.0652V33.1048Z" fill="#00C0F3" stroke="#00C0F3" stroke-width="0.4"/>
<path d="M7.69727 34.37H26.3063V35.5984H7.69727V34.37Z" fill="#00C0F3" stroke="#00C0F3" stroke-width="0.4"/>
<path d="M7.69727 38.7184H13.0368V39.9468H7.69727V38.7184Z" fill="#00C0F3" stroke="#00C0F3" stroke-width="0.4"/>
<path d="M15.0781 38.7184H26.3193V39.9468H15.0781V38.7184Z" fill="#00C0F3" stroke="#00C0F3" stroke-width="0.4"/>
</g>
<defs>
<clipPath id="clip0_804_6067">
<rect width="57" height="49" fill="white"/>
</clipPath>
</defs>
</svg>
