<svg width="45" height="46" viewBox="0 0 45 46" fill="none" xmlns="http://www.w3.org/2000/svg">
<g clip-path="url(#clip0_660_3719)">
<path d="M42.0601 24.983C41.4592 24.983 41.0587 25.3922 41.0587 26.0057V39.3012C41.0587 39.9149 40.6581 40.3239 40.0573 40.3239H4.00612C3.40525 40.3239 3.00473 39.9148 3.00473 39.3012V26.0057C3.00473 25.3921 2.60412 24.983 2.00334 24.983C1.40256 24.983 1.00195 25.3922 1.00195 26.0057V39.3012C1.00195 41.0399 2.30378 42.3694 4.00621 42.3694H40.0573C41.7598 42.3694 43.0616 41.0399 43.0616 39.3012V26.0057C43.0616 25.3921 42.661 24.983 42.0601 24.983Z" fill="#00C0F3"/>
<path d="M41.0582 10.6648H3.00425C1.30182 10.6648 0 11.9943 0 13.733V20.2784C0 21.7102 1.00139 22.9375 2.3033 23.2443L18.0256 26.8238V30.0965C18.0256 30.7102 18.4262 31.1192 19.027 31.1192H25.0355C25.6364 31.1192 26.0369 30.7101 26.0369 30.0965V26.8238L41.7592 23.2443C43.0611 22.9375 44.0625 21.7102 44.0625 20.2784V13.7329C44.0625 11.9943 42.7607 10.6648 41.0582 10.6648ZM24.0341 29.0738H20.0285V24.983H24.0341V29.0738ZM42.0596 20.2784C42.0596 20.7897 41.7592 21.1988 41.2585 21.3011L26.0369 24.7784V23.9602C26.0369 23.3465 25.6363 22.9375 25.0355 22.9375H19.027C18.4261 22.9375 18.0256 23.3466 18.0256 23.9602V24.7784L2.80399 21.3011C2.3033 21.1988 2.00286 20.7898 2.00286 20.2784V13.733C2.00286 13.1193 2.40347 12.7103 3.00425 12.7103H41.0582C41.6591 12.7103 42.0596 13.1194 42.0596 13.733V20.2784Z" fill="#00C0F3"/>
<path d="M27.038 3.50562H17.0238C15.3214 3.50562 14.0195 4.83514 14.0195 6.57379V7.59648C14.0195 8.21014 14.4201 8.61918 15.0209 8.61918C15.6217 8.61918 16.0223 8.21005 16.0223 7.59648V6.57379C16.0223 5.96014 16.4229 5.55109 17.0237 5.55109H27.0379C27.6388 5.55109 28.0393 5.96022 28.0393 6.57379V7.59648C28.0393 8.21014 28.4399 8.61918 29.0407 8.61918C29.6416 8.61918 30.0421 8.21005 30.0421 7.59648V6.57379C30.0423 4.83514 28.7404 3.50562 27.038 3.50562Z" fill="#00C0F3"/>
</g>
<defs>
<clipPath id="clip0_660_3719">
<rect width="44.0625" height="45" fill="white" transform="translate(0 0.4375)"/>
</clipPath>
</defs>
</svg>
