<svg width="46" height="44" viewBox="0 0 46 44" fill="none" xmlns="http://www.w3.org/2000/svg">
<g clip-path="url(#clip0_660_3678)">
<path d="M26.7985 26.8591C25.2951 26.8591 23.8668 27.4935 22.9053 28.5537C21.9439 27.4935 20.5155 26.8591 19.0121 26.8591C16.1957 26.8591 13.9043 29.013 13.9043 31.6606C13.9043 35.0362 15.6037 38.2803 18.4501 40.3384L22.9053 43.5599L27.3606 40.3384C30.207 38.2803 31.9064 35.0362 31.9064 31.6606C31.9064 29.013 29.615 26.8591 26.7985 26.8591ZM25.7142 38.3265L22.9053 40.3575L20.0965 38.3265C17.9099 36.7454 16.6046 34.2535 16.6046 31.6606C16.6046 30.4127 17.6846 29.3974 19.0122 29.3974C19.853 29.3974 20.644 29.8184 21.0767 30.4962L22.9053 33.3611L24.734 30.4962C25.1667 29.8184 25.9577 29.3974 26.7985 29.3974C28.126 29.3974 29.2061 30.4127 29.2061 31.6606C29.2061 34.2536 27.9007 36.7455 25.7142 38.3265Z" fill="#00C0F3" stroke="#EAF1F8" stroke-width="0.8"/>
<path d="M37.538 0.5H8.27033C5.91674 0.5 4.00195 2.29982 4.00195 4.51228V16.7941C4.00195 19.0064 5.91665 20.8063 8.27033 20.8063H18.2523L22.9041 25.6649L27.5559 20.8063H37.5379C39.8915 20.8063 41.8063 19.0065 41.8063 16.7941V4.51228C41.8063 2.29982 39.8916 0.5 37.538 0.5ZM39.106 16.7941C39.106 17.6067 38.4025 18.268 37.5379 18.268H26.3532L22.9041 21.8705L19.455 18.268H8.27033C7.40578 18.268 6.70226 17.6068 6.70226 16.7941V4.51228C6.70226 3.69952 7.40578 3.03829 8.27033 3.03829H37.5379C38.4025 3.03829 39.106 3.69952 39.106 4.51228V16.7941Z" fill="#00C0F3" stroke="#EAF1F8" stroke-width="0.8"/>
<path d="M35.1524 7.3097L33.3389 5.42908L30.7648 7.62233V5.86812H28.0645V15.1003H30.7648V13.1158L33.5324 15.6257L35.4072 13.7989L31.5945 10.3412L35.1524 7.3097Z" fill="#00C0F3" stroke="#EAF1F8" stroke-width="0.8"/>
<path d="M10.9609 8.11495H12.6925V15.7298H15.3928V5.57666H10.9609V8.11495Z" fill="#00C0F3" stroke="#EAF1F8" stroke-width="0.8"/>
<path d="M21.7631 5.57654C19.7774 5.57654 18.1621 7.09494 18.1621 8.96135V12.3449C18.1621 14.2113 19.7774 15.7297 21.7631 15.7297C23.7486 15.7297 25.3639 14.2113 25.3639 12.3449V8.96135C25.3639 7.09494 23.7485 5.57654 21.7631 5.57654ZM22.6636 12.3449C22.6636 12.8117 22.2596 13.1914 21.7631 13.1914C21.2664 13.1914 20.8624 12.8117 20.8624 12.3449V8.96135C20.8624 8.49456 21.2664 8.11483 21.7631 8.11483C22.2596 8.11483 22.6636 8.49456 22.6636 8.96135V12.3449Z" fill="#00C0F3" stroke="#EAF1F8" stroke-width="0.8"/>
</g>
<defs>
<clipPath id="clip0_660_3678">
<rect width="45.8085" height="43.06" fill="white" transform="translate(0 0.5)"/>
</clipPath>
</defs>
</svg>
