<svg width="45" height="46" viewBox="0 0 45 46" fill="none" xmlns="http://www.w3.org/2000/svg">
<g clip-path="url(#clip0_660_3685)">
<path d="M22.4988 16.1826C18.8339 16.1826 15.9629 12.7168 15.9629 8.29187C15.9629 3.03459 19.3392 1.16174 22.4988 1.16174C25.6586 1.16174 29.035 3.03459 29.035 8.29187C29.035 12.7168 26.164 16.1826 22.4988 16.1826ZM22.4988 2.48527C19.1864 2.48527 17.2864 4.60176 17.2864 8.29187C17.2864 11.9742 19.5761 14.8591 22.4988 14.8591C25.4218 14.8591 27.7115 11.9742 27.7115 8.29187C27.7115 4.60176 25.8115 2.48527 22.4988 2.48527Z" fill="#00C0F3" stroke="#00C0F3" stroke-width="0.7"/>
<path d="M34.2792 27.1179C33.9138 27.1179 33.6175 26.8219 33.6175 26.4561V22.8823C33.6175 20.8854 28.4122 19.2601 22.0143 19.2601C19.0713 19.2601 16.378 19.6187 14.4308 20.2701C13.0401 20.7348 11.3821 21.5659 11.3821 22.8823V26.4561C11.3821 26.8219 11.0858 27.1179 10.7204 27.1179C10.3549 27.1179 10.0586 26.8219 10.0586 26.4561V22.8823C10.0586 21.721 10.7443 20.1073 14.0111 19.0145C16.0901 18.3198 18.9323 17.9365 22.0143 17.9365C28.2403 17.9365 34.941 19.4843 34.941 22.8823V26.4561C34.941 26.8219 34.6447 27.1179 34.2792 27.1179Z" fill="#00C0F3" stroke="#00C0F3" stroke-width="0.7"/>
<path d="M33.7805 44.8382H11.2143C10.2323 44.8382 9.38701 44.1015 9.24871 43.125C9.24838 43.1231 9.24838 43.1211 9.24806 43.1192L7.23627 28.044C7.16033 27.4753 7.33353 26.9014 7.71127 26.4697C8.08771 26.04 8.63121 25.7931 9.2025 25.7931H35.7988C36.3701 25.7931 36.9136 26.04 37.29 26.4697C37.6678 26.9014 37.8409 27.4753 37.765 28.044L35.7532 43.1192C35.6117 44.1176 34.7825 44.8382 33.7805 44.8382ZM10.5596 42.9415C10.6071 43.2685 10.8879 43.5147 11.2143 43.5147H33.7805C34.1166 43.5147 34.3948 43.2723 34.442 42.9389L36.4531 27.8695C36.479 27.6756 36.4224 27.4882 36.2941 27.3415C36.1671 27.1968 35.991 27.1166 35.7988 27.1166H9.2025C9.01024 27.1166 8.83413 27.1968 8.70715 27.3415C8.57886 27.4882 8.52232 27.6756 8.54817 27.8695L10.5596 42.9415Z" fill="#00C0F3" stroke="#00C0F3" stroke-width="0.7"/>
<path d="M22.4996 39.2151C19.3381 39.2151 16.8613 37.5025 16.8613 35.3169C16.8613 33.1312 19.3381 31.4193 22.4996 31.4193C25.6611 31.4193 28.1378 33.1312 28.1378 35.3169C28.1378 37.5025 25.6611 39.2151 22.4996 39.2151ZM22.4996 32.7428C20.1608 32.7428 18.1849 33.9216 18.1849 35.3169C18.1849 36.7128 20.1608 37.8916 22.4996 37.8916C24.8384 37.8916 26.8143 36.7128 26.8143 35.3169C26.8143 33.9216 24.8384 32.7428 22.4996 32.7428Z" fill="#00C0F3" stroke="#00C0F3" stroke-width="0.7"/>
</g>
<defs>
<clipPath id="clip0_660_3685">
<rect width="45" height="45" fill="white" transform="translate(0 0.5)"/>
</clipPath>
</defs>
</svg>
