<svg width="43" height="44" viewBox="0 0 43 44" fill="none" xmlns="http://www.w3.org/2000/svg">
<g clip-path="url(#clip0_660_3780)">
<path d="M24.9746 8.39099H9.20117C8.47559 8.39099 7.88672 8.98019 7.88672 9.70616C7.88672 10.4321 8.47559 11.0213 9.20117 11.0213H24.9746C25.7002 11.0213 26.2891 10.4321 26.2891 9.70616C26.2891 8.98019 25.7002 8.39099 24.9746 8.39099Z" fill="#00C0F3" stroke="#EAF1F8" stroke-width="0.7"/>
<path d="M19.7168 13.6517H9.20117C8.47559 13.6517 7.88672 14.2409 7.88672 14.9669C7.88672 15.6929 8.47559 16.2821 9.20117 16.2821H19.7168C20.4424 16.2821 21.0312 15.6929 21.0312 14.9669C21.0312 14.2409 20.4424 13.6517 19.7168 13.6517Z" fill="#00C0F3" stroke="#EAF1F8" stroke-width="0.7"/>
<path d="M28.918 0.5H5.25781C2.35813 0.5 0 2.85941 0 5.76068V32.0641C0 32.5744 0.294437 33.0399 0.757125 33.2556C0.933262 33.3372 1.12517 33.3792 1.31445 33.3792C1.61678 33.3792 1.91647 33.274 2.1557 33.0741L9.677 26.8034H28.918C31.8176 26.8034 34.1758 24.444 34.1758 21.5427V5.76068C34.1758 2.85941 31.8176 0.5 28.918 0.5ZM31.5469 21.5427C31.5469 22.992 30.3691 24.1731 28.918 24.1731H9.20117C8.89359 24.1731 8.59652 24.2809 8.35992 24.4782L2.62891 29.2575V5.76068C2.62891 4.31136 3.80666 3.13034 5.25781 3.13034H28.918C30.3691 3.13034 31.5469 4.31136 31.5469 5.76068V21.5427Z" fill="#00C0F3" stroke="#EAF1F8" stroke-width="0.7"/>
<path d="M36.8047 11.0214C36.0791 11.0214 35.4902 11.6106 35.4902 12.3365C35.4902 13.0625 36.0791 13.6517 36.8047 13.6517C38.2558 13.6517 39.4336 14.8327 39.4336 16.282V38.5321L34.996 34.9811C34.7647 34.797 34.4728 34.6944 34.1758 34.6944H15.7734C14.3223 34.6944 13.1445 33.5134 13.1445 32.0641V30.7489C13.1445 30.0229 12.5557 29.4337 11.8301 29.4337C11.1045 29.4337 10.5156 30.0229 10.5156 30.7489V32.0641C10.5156 34.9653 12.8738 37.3248 15.7734 37.3248H33.7131L39.9252 42.2987C40.1644 42.4881 40.4562 42.5854 40.748 42.5854C40.94 42.5854 41.1345 42.5434 41.3185 42.4566C41.7733 42.2356 42.0625 41.7753 42.0625 41.2703V16.282C42.0625 13.3808 39.7044 11.0214 36.8047 11.0214Z" fill="#00C0F3" stroke="#EAF1F8" stroke-width="0.7"/>
</g>
<defs>
<clipPath id="clip0_660_3780">
<rect width="42.0625" height="42.9574" fill="white" transform="translate(0 0.5)"/>
</clipPath>
</defs>
</svg>
